<svg width="205" height="54" viewBox="0 0 205 54" fill="none" xmlns="http://www.w3.org/2000/svg">
<path d="M51.0132 23.0709C51.0132 24.3553 51.6187 24.6122 52.5362 25.1993H46.0224C46.9031 24.6489 47.5453 24.3736 47.5453 23.0709V14.6671C47.5453 14.3001 47.5637 13.4561 47.2701 13.1809C47.1416 13.0524 46.9214 13.0341 46.738 13.0341C44.1141 13.0157 43.8755 15.658 43.1966 15.658L43.6187 12.3552H51.0132V23.0709ZM54.9399 12.3552L55.3619 15.658C54.683 15.658 54.4445 13.0157 51.8206 13.0341C51.6554 13.0341 51.4169 13.0524 51.2885 13.1809C51.0499 13.401 51.0132 14.0066 51.0132 14.4102V12.3552H54.9399ZM64.3355 23.5663C64.8125 24.6672 65.5648 25.1993 66.0603 25.1993H63.1245C61.6566 25.1993 60.9776 24.6305 60.4639 23.3645L59.2529 20.5204H56.3537L55.9684 21.5112C55.6565 22.6856 55.9684 24.0067 57.106 24.6489L58.0602 25.1993H53.7666L58.7758 12.3552H59.473L64.3355 23.5663ZM56.5923 19.8598H58.9593L57.7116 16.9424L56.5923 19.8598ZM72.5902 25.1993C73.4342 24.9425 73.9663 24.5021 73.581 23.7498C73.159 22.9424 72.8103 22.4287 72.3149 21.658C71.9479 21.0525 71.5626 20.4653 71.1773 19.8598V23.4929C71.1773 23.5663 71.1956 23.6397 71.1956 23.7131V25.1993H69.5809C69.5259 25.1993 69.4709 25.181 69.4342 25.181C69.3791 25.181 69.3424 25.1993 69.3057 25.1993H66.1314C67.0672 24.7773 67.691 24.6489 67.691 23.4929V14.1167C67.6176 13.0708 67.214 12.5937 66.48 12.3552H71.1773V18.5571L74.5168 14.9057C74.6819 14.7222 74.792 14.4836 74.8471 14.2634C74.9572 13.8047 74.9021 13.1625 74.425 12.9056L73.3425 12.3552H77.7645L73.0856 17.5112L77.893 25.1993H72.5902ZM88.0885 22.025H88.4187L87.8866 25.1993H81.2627C79.9966 25.1259 79.3911 23.9516 79.3911 22.8874V14.4836C79.3911 13.9515 79.1709 13.1992 78.7122 12.8873L77.8682 12.3552H87.3362L87.4646 15.6029C87.1894 14.6304 86.5288 12.9423 83.7031 13.0341C82.7673 13.0524 82.859 13.8598 82.859 14.557V18.4653C83.96 18.447 85.0793 17.6213 85.0793 16.502V16.2084H85.6114V21.3828H85.0793V21.0892C85.0793 19.9699 83.96 19.1442 82.859 19.1259V22.9975C82.859 24.7406 83.1159 24.5204 84.7306 24.5204C86.4187 24.5204 87.4829 23.3094 88.0885 22.025ZM106.548 13.8965C108.034 15.1075 108.75 16.8139 108.731 18.6855C108.695 20.4653 108.108 22.1901 106.768 23.4746C105.667 24.5571 104.163 25.1993 102.566 25.1993C98.8598 25.1993 95.8689 22.6856 95.8322 18.869C95.7955 15.1258 98.2543 12.502 101.924 12.3552C103.594 12.2818 105.282 12.8506 106.548 13.8965ZM104.309 22.447C104.658 21.236 104.731 19.8415 104.713 18.5938C104.695 17.0892 104.199 13.5111 102.346 13.0891C102.218 13.0524 102.089 13.0341 101.961 13.0524C100.97 13.0524 100.456 14.3001 100.218 15.0891C99.869 16.3002 99.7772 17.713 99.8139 18.9791C99.8873 20.5387 100.383 24.5204 102.566 24.5204C102.695 24.5021 102.823 24.4837 102.952 24.447C103.722 24.1718 104.108 23.1443 104.309 22.447ZM114.38 13.0341C113.555 13.0524 113.555 13.713 113.555 14.3552V18.4653C114.619 18.4286 115.775 17.658 115.775 16.502V16.2084H116.307V21.3828H115.775V21.0892C115.775 19.9699 114.656 19.1442 113.555 19.1259V22.869C113.555 23.9516 112.931 25.1259 111.683 25.1993H110.068V14.4836C110.068 14.0616 109.977 13.6212 109.738 13.2543C109.646 13.1442 109.518 12.979 109.39 12.8873L108.546 12.3552H113.555H118.032L118.16 15.6029C117.885 14.6304 117.225 12.9423 114.38 13.0341ZM124.039 13.0341C123.213 13.0524 123.213 13.713 123.213 14.3552V18.4653C124.277 18.4286 125.433 17.658 125.433 16.502V16.2084H125.965V21.3828H125.433V21.0892C125.433 19.9699 124.314 19.1442 123.213 19.1259V22.869C123.213 23.9516 122.589 25.1259 121.341 25.1993H119.727V14.4836C119.727 14.0616 119.635 13.6212 119.396 13.2543C119.305 13.1442 119.176 12.979 119.048 12.8873L118.204 12.3552H123.213H127.69L127.819 15.6029C127.543 14.6304 126.883 12.9423 124.039 13.0341ZM143.072 23.0709C143.072 23.603 143.274 24.3553 143.733 24.6489L144.595 25.1993H138.081C138.925 24.6489 139.604 24.392 139.604 23.0709V19.9149L136.063 13.713C135.531 12.7772 135.164 12.5754 134.338 12.3552H137.274C138.595 12.3552 139.311 12.6671 139.916 13.768L142.65 18.6121C143.109 17.7314 143.531 16.869 143.99 15.9882C144.65 14.6121 144.724 12.7955 143.256 12.3552H146.687L143.072 19.3828V23.0709ZM156.187 23.5663C156.664 24.6672 157.416 25.1993 157.912 25.1993H154.976C153.508 25.1993 152.829 24.6305 152.315 23.3645L151.104 20.5204H148.205L147.82 21.5112C147.508 22.6856 147.82 24.0067 148.958 24.6489L149.912 25.1993H145.618L150.627 12.3552H151.325L156.187 23.5663ZM148.444 19.8598H150.811L149.563 16.9424L148.444 19.8598ZM164.342 24.4837C165.369 24.5021 166.305 23.7498 166.654 22.8507L167.241 21.291V24.5388C166.103 25.0342 165.021 25.1993 163.773 25.1993C159.498 25.1993 156.415 22.7589 156.415 18.6672C156.415 14.8323 159.131 12.3552 163.296 12.3552C165.168 12.3552 167.406 13.0891 167.902 15.0157L167.938 15.1809L165.645 17.3827C165.736 17.0341 167.259 13.0524 163.553 13.0524C158.984 13.0524 158.012 24.3002 164.342 24.4837ZM180.533 23.0709C180.533 23.5479 180.753 24.392 181.212 24.6489L182.056 25.1993H175.56L176.404 24.6489C176.771 24.4287 177.028 23.7498 177.065 23.3645V19.1259H173.028V23.0709C173.028 23.603 173.212 24.3369 173.689 24.6489L174.551 25.1993H168.019L168.863 24.6489C168.991 24.5755 169.12 24.4103 169.211 24.3002C169.45 23.9333 169.542 23.4929 169.542 23.0709V14.4836C169.542 14.0616 169.45 13.6212 169.211 13.2543C169.12 13.1442 168.991 12.979 168.863 12.8873L168.019 12.3552H174.551L173.689 12.8873C173.212 13.291 173.028 13.8781 173.028 14.4836V18.4653H177.065V14.19C177.01 13.7497 176.771 13.1625 176.404 12.8873L175.56 12.3552H182.056L181.212 12.8873C180.753 13.2176 180.533 13.9515 180.533 14.4836V23.0709ZM189.848 23.0709C189.848 24.3553 190.453 24.6122 191.371 25.1993H184.857C185.738 24.6489 186.38 24.3736 186.38 23.0709V14.6671C186.38 14.3001 186.398 13.4561 186.105 13.1809C185.976 13.0524 185.756 13.0341 185.573 13.0341C182.949 13.0157 182.71 15.658 182.031 15.658L182.453 12.3552H189.848V23.0709ZM193.775 12.3552L194.197 15.658C193.518 15.658 193.279 13.0157 190.655 13.0341C190.49 13.0341 190.252 13.0524 190.123 13.1809C189.885 13.401 189.848 14.0066 189.848 14.4102V12.3552H193.775ZM197.997 14.5754C197.997 16.924 203.85 16.6488 203.868 21.6213C203.722 24.1535 201.813 25.1993 199.355 25.1993C197.52 25.1993 196.455 24.5204 195.923 24.5204C195.63 24.5204 195.171 24.759 195.171 25.1993H194.914V20.5938H195.134C195.281 22.7039 197.703 24.5021 199.391 24.5021C200.29 24.5021 200.969 24.0067 201.024 22.814C201.153 19.9332 194.767 20.5938 195.006 15.768C195.116 13.401 197.153 12.3552 199.208 12.3552C201.153 12.3552 203.116 13.291 203.538 14.9607L203.575 15.1258L201.446 17.0708L201.281 16.9424C201.758 16.3919 201.795 15.4928 201.52 14.6855C201.226 13.8047 200.125 13.0708 199.226 13.0708C198.547 13.0708 197.997 13.4928 197.997 14.5754Z" fill="white"/>
<path d="M48.9694 38.8577L46.4713 43.0582V45.9089H45.5345V43.0481L43.0464 38.8577H44.094L46.0079 42.1617L47.9218 38.8577H48.9694ZM61.991 45.9089L61.4168 44.3274H58.2438L57.6696 45.9089H56.6723L59.3014 38.8577H60.3591L62.9882 45.9089H61.991ZM58.5661 43.451H61.0945L59.8252 39.9758L58.5661 43.451ZM75.3398 46.0398C74.2721 46.0398 73.389 45.6873 72.6906 44.9821C71.9989 44.277 71.653 43.4107 71.653 42.3833C71.653 41.3558 71.9989 40.4895 72.6906 39.7844C73.389 39.0793 74.2721 38.7267 75.3398 38.7267C75.9845 38.7267 76.5755 38.8812 77.1127 39.1901C77.6566 39.499 78.0797 39.9153 78.3819 40.4391L77.566 40.9126C77.3645 40.5231 77.0623 40.2142 76.6594 39.9858C76.2632 39.7508 75.8233 39.6333 75.3398 39.6333C74.5272 39.6333 73.8624 39.8952 73.3453 40.419C72.835 40.9428 72.5798 41.5976 72.5798 42.3833C72.5798 43.1623 72.835 43.8137 73.3453 44.3375C73.8624 44.8613 74.5272 45.1232 75.3398 45.1232C75.8233 45.1232 76.2632 45.009 76.6594 44.7807C77.0623 44.5456 77.3645 44.2367 77.566 43.8539L78.3819 44.3173C78.0864 44.8411 77.6667 45.2608 77.1228 45.5765C76.5788 45.8854 75.9845 46.0398 75.3398 46.0398ZM92.266 38.8577H93.1928V45.9089H92.266V42.7358H88.8412V45.9089H87.9044V38.8577H88.8412V41.8494H92.266V38.8577ZM107.676 38.8577V39.7441H105.591V45.9089H104.664V39.7441H102.589V38.8577H107.676ZM132.225 45.9089L130.643 43.2093H128.981V45.9089H128.044V38.8577H130.865C131.469 38.8577 131.986 39.0725 132.416 39.5023C132.846 39.9254 133.061 40.4391 133.061 41.0435C133.061 41.5002 132.923 41.9165 132.648 42.2926C132.379 42.6687 132.03 42.9339 131.6 43.0884L133.262 45.9089H132.225ZM128.981 39.734V42.3631H130.865C131.214 42.3631 131.51 42.2355 131.751 41.9803C132 41.7184 132.124 41.4062 132.124 41.0435C132.124 40.6809 132 40.372 131.751 40.1168C131.51 39.8616 131.214 39.734 130.865 39.734H128.981ZM143.601 45.0224H146.874V45.9089H142.664V38.8577H146.824V39.7441H143.601V41.9098H146.572V42.7862H143.601V45.0224ZM160.849 38.8577H161.785V45.9089H161.03L157.404 40.6406V45.9089H156.467V38.8577H157.222L160.849 44.1158V38.8577ZM176.268 38.8577V39.7441H174.183V45.9089H173.256V39.7441H171.181V38.8577H176.268ZM189.789 45.9089L189.215 44.3274H186.042L185.467 45.9089H184.47L187.099 38.8577H188.157L190.786 45.9089H189.789ZM186.364 43.451H188.892L187.623 39.9758L186.364 43.451ZM201.016 45.0224H204.058V45.9089H200.079V38.8577H201.016V45.0224Z" fill="white"/>
<path d="M0.226929 17.6092L4.28149 19.5071V51.2518L1.25134 52.2021V53.9808H26.8339V52.0829L23.005 51.2518C23.5831 47.3855 24.851 35.6353 20.9612 24.8488C19.7872 21.6108 18.2734 18.7355 16.6607 16.223C16.6987 15.4053 16.8407 14.4523 17.2794 14.2465C18.068 13.8594 19.1938 13.8594 19.1938 13.5372C19.1938 13.215 19.0239 12.5056 17.1678 12.4001C15.8417 12.3215 14.7767 12.6546 14.267 12.8603C10.9909 8.63672 7.77059 5.91304 6.43175 4.87068L5.86122 4.52142H5.70654V0H4.85962V4.52142H4.28149V16.3773L3.22411 15.7654C3.22411 15.7654 2.20223 15.6463 1.36038 15.8141C0.513461 15.9739 -0.0519968 16.4098 0.00378828 16.954C0.0595733 17.4982 0.226929 17.6092 0.226929 17.6092ZM18.494 30.3206C20.0687 41.8488 18.494 49.8926 18.494 49.8926H14.0439C14.2214 48.7501 15.9152 41.3317 14.5307 29.1537C13.0372 16.0659 8.19151 8.27663 8.19151 8.27663C8.19151 8.27663 16.6683 16.9377 18.494 30.3206ZM7.31163 11.0355C7.90498 12.465 8.67329 14.5037 9.45681 17.1381H7.31163V11.0355ZM7.31163 19.1524H10.0299C10.1161 19.4638 10.2048 19.7914 10.2885 20.119H7.31163V19.1524ZM7.31163 20.766H10.4432C10.5751 21.294 10.7094 21.8436 10.8362 22.4094C10.8388 22.4338 10.8413 22.4609 10.8514 22.4825H7.31163V20.766ZM7.31163 23.1296H10.9858C11.1101 23.7009 11.214 24.2722 11.3231 24.8488H7.31163V23.1296ZM7.31163 25.4932H11.4372C11.5386 26.0699 11.6274 26.6357 11.711 27.2178H7.31163V25.4932ZM7.31163 27.8568H11.7998C11.8226 28.0328 11.853 28.2223 11.8708 28.401H7.31163V27.8568ZM7.31163 30.4207H12.1117C12.1472 30.7159 12.1776 31.011 12.2004 31.298H7.31163V30.4207ZM7.31163 31.945H12.2587C12.3069 32.5217 12.35 33.0984 12.3906 33.6643H7.31163V31.945ZM7.31163 34.3086H12.4388C12.4692 34.8907 12.5022 35.4674 12.5275 36.0333H7.31163V34.3086ZM7.31163 36.6722H12.5554C12.5808 37.2597 12.596 37.8364 12.6137 38.3969H7.31163V36.6722ZM7.31163 39.0412H12.629C12.6315 39.2632 12.6315 39.4852 12.6366 39.7018H7.31163V39.0412ZM7.31163 41.7216H12.6467C12.6467 41.9761 12.6442 42.2252 12.6442 42.4688H7.31163V41.7216ZM7.31163 43.1186H12.634C12.6315 43.7224 12.6137 44.2991 12.5985 44.8378H7.31163V43.1186ZM7.31163 45.4822H12.5808C12.5554 46.1103 12.5326 46.6924 12.5098 47.2068H7.31163V45.4822ZM7.31163 47.8512H12.4743C12.4312 48.6174 12.3906 49.1995 12.3602 49.5704H7.31163V47.8512Z" fill="#BEA355"/>
</svg>
