<svg width="24" height="25" viewBox="0 0 24 25" fill="none" xmlns="http://www.w3.org/2000/svg">
<g clip-path="url(#clip0_4006_3814)">
<path d="M20.8428 17.2897C20.5101 18.0583 20.1163 18.7658 19.66 19.4163C19.0381 20.3031 18.5288 20.9169 18.1364 21.2577C17.528 21.8172 16.8762 22.1038 16.1782 22.12C15.6771 22.12 15.0728 21.9775 14.3693 21.6882C13.6636 21.4003 13.015 21.2577 12.422 21.2577C11.8 21.2577 11.133 21.4003 10.4195 21.6882C9.70493 21.9775 9.12928 22.1282 8.68916 22.1431C8.01981 22.1716 7.35264 21.877 6.68668 21.2577C6.26164 20.887 5.72999 20.2515 5.09309 19.3511C4.40976 18.3897 3.84796 17.2748 3.40784 16.0037C2.93648 14.6308 2.7002 13.3013 2.7002 12.0142C2.7002 10.5398 3.01878 9.26823 3.65689 8.20262C4.1584 7.34668 4.82557 6.67149 5.66059 6.17583C6.49562 5.68016 7.39786 5.42758 8.36949 5.41142C8.90114 5.41142 9.59833 5.57587 10.4647 5.89907C11.3287 6.22336 11.8834 6.38781 12.1266 6.38781C12.3085 6.38781 12.9247 6.19552 13.9694 5.81216C14.9573 5.45664 15.7911 5.30943 16.4742 5.36742C18.3251 5.5168 19.7157 6.24644 20.6405 7.56097C18.9851 8.56398 18.1662 9.96881 18.1825 11.771C18.1975 13.1747 18.7067 14.3429 19.7076 15.2704C20.1611 15.7009 20.6676 16.0336 21.2312 16.2699C21.109 16.6243 20.98 16.9638 20.8428 17.2897ZM16.5978 0.585145C16.5978 1.6854 16.1958 2.7127 15.3946 3.66356C14.4277 4.79394 13.2582 5.44713 11.99 5.34406C11.9738 5.21207 11.9645 5.07314 11.9645 4.92716C11.9645 3.87092 12.4243 2.74054 13.2408 1.81629C13.6485 1.34833 14.167 0.959228 14.7957 0.648834C15.4231 0.34307 16.0166 0.173976 16.5747 0.14502C16.591 0.292106 16.5978 0.439202 16.5978 0.585131V0.585145Z" fill="white"/>
</g>
<defs>
<clipPath id="clip0_4006_3814">
<rect width="24" height="24" fill="white" transform="translate(0 0.144775)"/>
</clipPath>
</defs>
</svg>
