<svg width="12" height="11" viewBox="0 0 12 11" fill="none" xmlns="http://www.w3.org/2000/svg">
<path d="M1.11364 5.26465C0.84377 5.26465 0.625 5.48851 0.625 5.76465V10.2646H1.60227V8.63965H10.3977V10.2646H11.375V5.76465C11.375 5.48851 11.1562 5.26465 10.8864 5.26465H8.875V4.38965C8.875 4.18254 8.70711 4.01465 8.5 4.01465H6.75C6.54289 4.01465 6.375 4.18254 6.375 4.38965V5.26465H5.625V4.38965C5.625 4.18254 5.45711 4.01465 5.25 4.01465H3.5C3.29289 4.01465 3.125 4.18254 3.125 4.38965V5.26465H1.11364Z" fill="black"/>
<path fill-rule="evenodd" clip-rule="evenodd" d="M2.59722 3.00389V5.76465H1.625V2.53066L1.79967 2.38075C2.97919 1.36839 4.42805 0.764648 6 0.764648C7.57195 0.764648 9.02081 1.36839 10.2003 2.38075L10.375 2.53066V5.76465H9.40278V3.00389C8.41512 2.21497 7.24686 1.76465 6 1.76465C4.75314 1.76465 3.58488 2.21497 2.59722 3.00389Z" fill="black"/>
</svg>
