<svg width="14" height="14" viewBox="0 0 14 14" fill="none" xmlns="http://www.w3.org/2000/svg">
<path fill-rule="evenodd" clip-rule="evenodd" d="M2.39453 12.1659L2.97786 10.9992L4.02136 11.521L3.43803 12.6876L2.39453 12.1659ZM10.5612 12.6876L9.97786 11.521L11.0214 10.9992L11.6047 12.1659L10.5612 12.6876Z" fill="black"/>
<path d="M12.25 6.56262V8.89596C12.25 10.5068 10.9442 11.8126 9.33333 11.8126H4.66667C3.05584 11.8126 1.75 10.5068 1.75 8.89596V6.56262H12.25Z" fill="black"/>
<path fill-rule="evenodd" clip-rule="evenodd" d="M12.8327 7.14591H1.16602V5.97925H12.8327V7.14591Z" fill="black"/>
<path fill-rule="evenodd" clip-rule="evenodd" d="M3.80532 2.47929C3.31453 2.47929 2.91667 2.87715 2.91667 3.36794V6.56262H1.75V3.36794C1.75 2.23282 2.6702 1.31262 3.80532 1.31262C4.71614 1.31262 5.51833 1.91208 5.77641 2.78557L5.80943 2.89734L4.69057 3.22791L4.65755 3.11614L5.21698 2.95086L4.65755 3.11614C4.54597 2.73847 4.19913 2.47929 3.80532 2.47929Z" fill="black"/>
<path fill-rule="evenodd" clip-rule="evenodd" d="M6.48793 2.93457L5.02959 4.10124L4.30078 3.19023L5.75911 2.02356L6.48793 2.93457Z" fill="black"/>
</svg>
