<svg width="12" height="12" viewBox="0 0 12 12" fill="none" xmlns="http://www.w3.org/2000/svg">
<path fill-rule="evenodd" clip-rule="evenodd" d="M1.39453 11.1659L1.97786 9.99921L3.02136 10.521L2.43803 11.6876L1.39453 11.1659ZM9.5612 11.6876L8.97786 10.521L10.0214 9.99921L10.6047 11.1659L9.5612 11.6876Z" fill="black"/>
<path d="M11.25 5.56262V7.89596C11.25 9.50679 9.94416 10.8126 8.33333 10.8126H3.66667C2.05584 10.8126 0.75 9.50679 0.75 7.89596V5.56262H11.25Z" fill="black"/>
<path fill-rule="evenodd" clip-rule="evenodd" d="M11.8327 6.14591H0.166016V4.97925H11.8327V6.14591Z" fill="black"/>
<path fill-rule="evenodd" clip-rule="evenodd" d="M2.80532 1.47929C2.31453 1.47929 1.91667 1.87715 1.91667 2.36794V5.56262H0.75V2.36794C0.75 1.23282 1.6702 0.312622 2.80532 0.312622C3.71614 0.312622 4.51833 0.91208 4.77641 1.78557L4.80943 1.89734L3.69057 2.22791L3.65755 2.11614L4.21698 1.95086L3.65755 2.11614C3.54597 1.73847 3.19913 1.47929 2.80532 1.47929Z" fill="black"/>
<path fill-rule="evenodd" clip-rule="evenodd" d="M5.48793 1.93457L4.02959 3.10124L3.30078 2.19023L4.75911 1.02356L5.48793 1.93457Z" fill="black"/>
</svg>
