<svg width="35" height="35" viewBox="0 0 35 35" fill="none" xmlns="http://www.w3.org/2000/svg">
<path fill-rule="evenodd" clip-rule="evenodd" d="M4.75258 30.7605C5.22453 30.5771 5.77691 30.4167 6.38954 30.4167C6.98068 30.4167 7.58514 30.5685 8.11221 30.7388C8.65064 30.9127 9.20779 31.1401 9.70895 31.3456L9.75738 31.3655C10.2585 31.5711 10.7017 31.7528 11.1032 31.8868C11.5349 32.0308 11.7949 32.0754 11.9283 32.0736L11.9556 32.0735C12.4683 32.0778 13.1044 31.8134 14.1367 31.3571C14.1527 31.35 14.1689 31.3429 14.1851 31.3357C15.0699 30.9444 16.2631 30.4167 17.5007 30.4167C18.7382 30.4167 19.9314 30.9444 20.8162 31.3357L20.8646 31.3571C21.8969 31.8134 22.533 32.0778 23.0457 32.0735C23.08 32.0732 23.1143 32.0743 23.1485 32.0769C23.8681 32.1302 24.5938 31.8591 25.5167 31.4243C25.6057 31.3823 25.6987 31.3378 25.7946 31.292C26.1507 31.1217 26.5458 30.9328 26.9217 30.7849C27.4077 30.5937 27.9877 30.4167 28.6118 30.4167C29.2061 30.4167 29.7964 30.5687 30.3093 30.74C30.8085 30.9069 31.3232 31.1238 31.7878 31.3197L31.8436 31.3432C32.3431 31.5538 32.7893 31.7399 33.207 31.8764C33.6295 32.0145 33.9418 32.0735 34.1673 32.0735V34.5735C33.5595 34.5735 32.9585 34.4253 32.4305 34.2528C31.8975 34.0786 31.3558 33.8506 30.8726 33.647L30.8599 33.6416C30.3615 33.4316 29.924 33.2471 29.517 33.1112C29.1003 32.9719 28.8088 32.9167 28.6118 32.9167C28.4444 32.9167 28.204 32.9669 27.837 33.1113C27.552 33.2234 27.2661 33.36 26.9257 33.5225C26.8174 33.5743 26.7035 33.6287 26.5823 33.6858C25.6731 34.1142 24.4309 34.6637 23.0136 34.5735C21.9302 34.5667 20.8337 34.0792 20.0112 33.7135C19.9575 33.6896 19.9051 33.6663 19.8539 33.6437C18.8612 33.2049 18.1397 32.9167 17.5007 32.9167C16.8616 32.9167 16.1401 33.2049 15.1474 33.6437C15.0962 33.6663 15.0438 33.6896 14.9902 33.7135C14.1575 34.0837 13.0441 34.5787 11.9478 34.5735C11.384 34.5784 10.8022 34.4218 10.3121 34.2583C9.82814 34.0969 9.31365 33.8857 8.84081 33.6917C8.81385 33.6806 8.78702 33.6696 8.76035 33.6587C8.24587 33.4477 7.77617 33.2574 7.34379 33.1177C6.90006 32.9744 6.58979 32.9167 6.38954 32.9167C6.21078 32.9167 5.98552 32.9635 5.65805 33.0907C5.39734 33.192 5.13948 33.3154 4.82112 33.4676C4.71747 33.5172 4.60741 33.5698 4.48875 33.6258C3.57452 34.0568 2.37252 34.5735 0.833984 34.5735V32.0735C1.79545 32.0735 2.57984 31.7618 3.42269 31.3644C3.50645 31.325 3.59403 31.283 3.68437 31.2397C4.02052 31.0788 4.39487 30.8995 4.75258 30.7605Z" fill="black"/>
<path fill-rule="evenodd" clip-rule="evenodd" d="M12.9622 1.32335C13.1156 0.78672 13.606 0.416748 14.1641 0.416748H20.8308C21.3889 0.416748 21.8794 0.78672 22.0327 1.32335L23.4404 6.25008H26.811L30.0511 19.2102L33.0079 20.5244C33.6047 20.7896 33.8968 21.4696 33.6782 22.085C33.2376 23.3252 32.2912 25.8563 31.0262 28.3438C30.4194 28.1452 29.563 27.9167 28.6123 27.9167C27.5322 27.9167 26.6129 28.22 26.0069 28.4585C25.5471 28.6394 25.0841 28.8609 24.7466 29.0223C24.6494 29.0688 24.533 29.1244 24.4516 29.1628C24.0196 29.3663 23.744 29.4777 23.5418 29.5381C23.2847 29.6299 23.0552 29.5689 22.9725 29.527C22.7319 29.4432 22.2575 29.2391 21.7272 29.0047C20.8865 28.6314 19.2769 27.9167 17.5012 27.9167C15.7255 27.9167 14.1159 28.6314 13.2752 29.0046C13.1647 29.0535 13.0489 29.1071 12.9331 29.1607C12.4933 29.3642 12.053 29.568 11.8948 29.5152C11.5894 29.4134 11.1769 29.2454 10.6532 29.0306C10.1654 28.8305 9.52331 28.5672 8.88117 28.3598C8.26944 28.1622 7.37134 27.9167 6.39009 27.9167C5.4223 27.9167 4.59726 28.151 3.99065 28.3759C2.71742 25.8781 1.76475 23.3305 1.32235 22.085C1.10375 21.4696 1.39577 20.7896 1.99258 20.5244L4.95277 19.2087L8.19244 6.25008H11.5546L12.9622 1.32335ZM7.85183 17.9203L17.5003 13.6321L27.152 17.9218L24.8591 8.75008H10.1444L7.85183 17.9203Z" fill="black"/>
</svg>
