<svg width="37" height="36" viewBox="0 0 37 36" fill="none" xmlns="http://www.w3.org/2000/svg">
<path fill-rule="evenodd" clip-rule="evenodd" d="M18.8346 0.0833435C8.93953 0.0833435 0.917969 8.10491 0.917969 18C0.917969 27.8951 8.93953 35.9167 18.8346 35.9167C28.7297 35.9167 36.7513 27.8951 36.7513 18C36.7513 8.10491 28.7297 0.0833435 18.8346 0.0833435ZM17.5846 8.83334V10.1905C16.5524 10.3703 15.6064 10.7706 14.841 11.3479C13.7745 12.1523 13.0013 13.357 13.0013 14.7902C13.0013 16.0534 13.4395 17.229 14.584 18.0172C15.6275 18.7357 17.0842 19.0032 18.8346 19.0032C20.4279 19.0032 21.3712 19.249 21.8913 19.5957C22.3033 19.8704 22.5846 20.2965 22.5846 21.21C22.5846 21.9874 22.2703 22.4587 21.7161 22.799C21.0866 23.1856 20.0982 23.4167 18.8346 23.4167C17.6756 23.4167 16.6808 23.0898 16.0099 22.626C15.3341 22.1588 15.0846 21.6376 15.0846 21.21H12.5846C12.5846 22.6915 13.4545 23.8986 14.5883 24.6825C15.4249 25.2608 16.4592 25.6555 17.5846 25.8243V27.1667H20.0846V25.851C21.1505 25.7341 22.1735 25.4518 23.0242 24.9295C24.2796 24.1587 25.0846 22.9017 25.0846 21.21C25.0846 19.6543 24.5326 18.352 23.278 17.5156C22.1314 16.7512 20.5747 16.5032 18.8346 16.5032C17.2518 16.5032 16.4167 16.2438 16.0019 15.9581C15.6881 15.742 15.5013 15.4362 15.5013 14.7902C15.5013 14.3143 15.7541 13.7906 16.3464 13.3438C16.9394 12.8966 17.8149 12.5833 18.8346 12.5833C19.8543 12.5833 20.7299 12.8966 21.3228 13.3438C21.9152 13.7906 22.168 14.3143 22.168 14.7902H24.668C24.668 13.357 23.8948 12.1523 22.8282 11.3479C22.0628 10.7706 21.1169 10.3703 20.0846 10.1905V8.83334H17.5846Z" fill="black"/>
</svg>
