<svg width="56" height="27" viewBox="0 0 56 27" fill="none" xmlns="http://www.w3.org/2000/svg">
<path d="M33.1436 7.2309C34.406 7.25263 35.6666 7.29108 36.929 7.28774C37.3921 7.28774 37.7465 7.43655 38.0926 7.73416C39.9301 9.30747 41.7793 10.8691 43.6302 12.4257C44.1234 12.8403 44.6501 13.2165 45.1433 13.6295C45.3857 13.8318 45.6415 13.9121 45.9508 13.9254C46.837 13.9605 47.7214 14.0241 48.6076 14.0742C50.9166 14.2046 53.2239 14.3351 55.5328 14.4638C55.8405 14.4805 55.9174 14.544 55.9124 14.8433C55.909 15.0306 55.8856 15.2178 55.8572 15.4034C55.4944 17.8194 54.5063 19.9796 53.1403 21.9776C52.1956 23.3603 51.0955 24.6092 49.7713 25.6458C49.0807 26.1876 48.3083 26.5504 47.4305 26.6474C46.8169 26.7159 46.2016 26.756 45.5797 26.756C33.9077 26.7527 22.2375 26.756 10.5655 26.756C10.3766 26.756 10.1893 26.7477 10.0004 26.751C9.77134 26.7544 9.62421 26.639 9.44531 26.4969C8.96713 26.1174 8.66785 25.6224 8.39867 25.0874C7.76834 25.0874 7.15139 25.0874 6.53444 25.0874C6.45418 25.0874 6.37225 25.0941 6.29534 25.1159C6.14988 25.1576 6.08301 25.2663 6.07799 25.4151C6.07297 25.5756 6.15156 25.6726 6.30872 25.6743C6.73841 25.6809 7.16811 25.6876 7.5978 25.6743C7.80512 25.6692 7.95894 25.7144 8.0626 25.9084C8.11109 26.0003 8.20639 26.0689 8.26491 26.1575C8.43043 26.4083 8.32343 26.6574 8.02582 26.6708C7.46237 26.6975 6.89725 26.7042 6.3338 26.7042C6.20673 26.7042 6.05625 26.6657 5.95594 26.5922C5.59145 26.318 5.22195 26.0371 5.15172 25.5338C5.13668 25.4285 5.10324 25.3248 5.08652 25.2178C5.07147 25.1192 4.99289 25.0674 4.92267 25.0707C4.61001 25.0807 4.28398 25.0272 3.88104 25.2947C4.39266 25.5087 4.60667 25.9084 4.8491 26.2845C4.91096 26.3815 4.94607 26.5069 4.87251 26.5805C4.8073 26.6457 4.68023 26.6624 4.57657 26.6758C4.4378 26.6958 4.3241 26.6139 4.20038 26.5587C3.75731 26.3648 3.31759 26.1574 2.86114 26.0036C1.96664 25.7027 1.27278 25.1192 0.603998 24.4905C0.44349 24.3401 0.334812 24.1545 0.25623 23.9538C-0.108257 23.0259 0.0422209 21.7519 1.4801 21.2101C1.8379 21.0747 2.06863 20.8774 2.2793 20.5898C3.18216 19.3526 4.10006 18.1254 4.99623 16.8814C5.32059 16.43 5.71852 16.1157 6.23181 15.8917C7.06779 15.5272 7.8837 15.1125 8.69293 14.6895C8.96546 14.5474 9.27812 14.437 9.48544 14.1729C9.37509 14.0893 9.27477 14.0374 9.20622 13.9572C8.89858 13.5977 8.93369 13.3285 9.34165 13.1179C9.79475 12.8855 10.2696 12.6915 10.731 12.4758C11.144 12.2836 11.557 12.0879 11.9666 11.8873C12.0937 11.8254 12.1422 11.7318 12.1321 11.568C12.0954 10.9928 12.2358 10.8323 12.7725 10.8122C13.1755 10.7972 13.5801 10.8056 13.983 10.8122C14.3458 10.8206 14.6702 10.737 14.9561 10.5013C15.3507 10.1769 15.7636 9.87593 16.1566 9.5499C16.7969 9.01655 17.4289 8.47317 18.0626 7.93146C18.5943 7.47669 19.1828 7.25765 19.9051 7.27437C21.3831 7.31115 22.8628 7.27938 24.3425 7.26768C24.4862 7.26768 24.6618 7.33123 24.7922 7.13728C24.7504 7.05702 24.6886 6.97007 24.6551 6.8731C24.4946 6.42 24.63 6.19595 25.0948 6.16251C25.3624 6.14245 25.6332 6.15248 25.9007 6.14412C26.093 6.13744 26.1933 6.03044 26.195 5.83984C26.1983 5.41014 26.2034 4.97878 26.195 4.54909C26.1866 4.17959 26.1264 4.11772 25.7787 4.10267C25.3757 4.08595 24.9711 4.09764 24.5698 4.06922C24.3107 4.05083 24.1519 3.8502 24.1268 3.57935C24.1034 3.32019 24.2572 3.10117 24.5214 3.0577C24.7053 3.0276 24.8959 3.03429 25.0831 3.03429C25.3523 3.03429 25.6215 3.04765 25.889 3.04598C26.0813 3.04598 26.1866 2.93564 26.19 2.74504C26.1967 2.2886 26.195 1.83047 26.1967 1.37402C26.1967 1.10484 26.1833 0.835661 26.2017 0.568148C26.2284 0.185269 26.4341 -0.0187119 26.7417 0.00135161C27.0243 0.0197432 27.1965 0.203654 27.2266 0.539717C27.2416 0.700225 27.2366 0.862408 27.2383 1.02292C27.2416 1.50778 27.2416 1.99099 27.2483 2.47586C27.255 3.00085 27.2818 3.04097 27.7817 3.04765C28.6427 3.05936 29.5021 3.05101 30.3632 3.05602C30.6591 3.05602 30.9551 3.06773 31.2493 3.07609C31.47 3.08277 31.5837 3.21988 31.6456 3.41382C31.7124 3.61947 31.6489 3.80338 31.48 3.90872C31.3112 4.01405 31.1089 4.06588 30.9233 4.13945C30.9701 4.33507 31.1289 4.40697 31.251 4.50394C32.1338 5.20784 33.0216 5.90503 33.9094 6.60224C34.0365 6.70088 34.1752 6.7845 34.3006 6.88648C34.3575 6.93163 34.4461 6.99682 34.3776 7.08209C34.3341 7.13392 34.2471 7.17573 34.1786 7.1774C33.8308 7.18744 33.4831 7.18242 33.1353 7.18242C33.137 7.19747 33.1403 7.21083 33.142 7.22588L33.1436 7.2309ZM5.028 19.1954C5.64328 18.8644 6.25689 18.5283 6.85712 18.1705C7.16978 17.9849 7.48912 17.898 7.85027 17.8997C8.87183 17.9064 9.89507 17.8846 10.9166 17.9063C11.3865 17.9164 11.8128 17.8177 12.2458 17.6455C13.2942 17.2275 14.3559 16.8447 15.4058 16.435C15.7887 16.2862 16.1733 16.2143 16.5846 16.2143C19.5155 16.2177 22.4481 16.206 25.3791 16.2043C31.6991 16.201 38.0207 16.1876 44.3408 16.201C47.6211 16.2076 50.9032 16.2628 54.1836 16.2979C54.2371 16.2979 54.2922 16.2979 54.3441 16.3046C54.5782 16.3314 54.6918 16.201 54.737 15.9953C54.7654 15.8666 54.7738 15.7345 54.7922 15.584C54.202 15.3884 53.6034 15.4335 53.0216 15.3884C51.8161 15.2948 50.6056 15.2563 49.3984 15.1794C48.835 15.1443 48.2749 15.0741 47.7131 15.0172C46.3187 14.8801 44.9209 14.8751 43.5215 14.8768C33.0049 14.8768 22.4883 14.8868 11.9716 14.8751C11.0638 14.8751 10.2428 15.0139 9.43863 15.4753C8.4622 16.0354 7.42559 16.4919 6.40569 16.9751C6.20004 17.0721 6.04957 17.1941 5.92751 17.3814C5.4694 18.0786 4.95276 18.7323 4.41105 19.366L4.41941 19.3961L4.43111 19.3492C4.66853 19.4479 4.84576 19.2891 5.028 19.1921V19.1954ZM52.6521 19.5783C52.0067 19.5683 51.3613 19.5817 50.7159 19.5733C50.1642 19.5649 49.9184 19.4011 49.9485 19.0884C49.9786 18.7825 50.1792 18.6487 50.6842 18.642C51.49 18.6337 52.2976 18.627 53.1052 18.6487C53.9194 18.6721 53.8709 18.6387 54.1401 17.9381C54.2053 17.7693 54.3006 17.5903 54.2003 17.3864C53.9244 17.2593 53.6251 17.3212 53.3359 17.3212C49.0874 17.3178 44.8373 17.3212 40.5889 17.3228C33.677 17.3245 26.7668 17.3279 19.8549 17.3279C18.8601 17.3279 17.8653 17.3295 16.8705 17.3044C16.3221 17.2911 15.8071 17.3847 15.2988 17.587C14.4746 17.9147 13.6386 18.209 12.8126 18.5333C12.1288 18.8025 11.4333 18.9463 10.6926 18.9279C9.75296 18.9045 8.80997 18.9463 7.86866 18.9463C7.55934 18.9463 7.30354 19.0416 7.03937 19.1954C6.01947 19.7923 4.98453 20.3658 3.95795 20.9493C3.77069 21.0546 3.5851 21.1633 3.4062 21.282C2.82269 21.6682 2.2375 22.0545 1.57373 22.2885C1.26275 22.3989 1.16745 22.623 1.1524 22.9039C1.14404 23.061 1.17581 23.2248 1.21259 23.3803C1.34468 23.9488 1.45001 24.0358 2.04021 24.0374C3.1972 24.0408 4.35253 24.0308 5.50952 24.0308C13.5232 24.0324 21.5369 24.0391 29.5523 24.0391C35.5763 24.0391 41.6004 24.0341 47.6245 24.0241C48.1344 24.0241 48.6444 23.9772 49.151 23.9221C49.8131 23.8502 50.3748 23.5593 50.8714 23.1128C51.6606 22.4023 52.2725 21.5563 52.8059 20.6484C52.9915 20.3341 53.2305 20.0381 53.3141 19.6736C53.0801 19.5148 52.861 19.58 52.6571 19.5766L52.6521 19.5783ZM14.9695 11.6783C14.4395 11.6783 13.978 11.777 13.5433 12.1063C12.923 12.5762 12.2325 12.944 11.5369 13.2968C11.4166 13.357 11.2962 13.4155 11.1825 13.4857C11.1457 13.5091 11.1189 13.5676 11.1089 13.6128C11.0955 13.678 11.139 13.7148 11.2042 13.7164C11.8212 13.7315 12.4381 13.7465 13.0567 13.7616C13.2005 13.7649 13.3159 13.7114 13.4045 13.5977C14.0917 12.73 15.1166 12.6781 16.0847 12.5026C16.3187 12.4608 16.5679 12.4892 16.8086 12.4892C24.8975 12.4942 32.9865 12.4992 41.0754 12.4976C41.2944 12.4976 41.6255 12.6347 41.7057 12.3605C41.7626 12.1649 41.4198 12.0946 41.2694 11.9542C41.0353 11.7352 40.7511 11.7067 40.4468 11.7067C38.7531 11.7067 37.061 11.6984 35.3674 11.6967C32.7608 11.695 30.1542 11.6967 27.5476 11.6967V11.685C23.356 11.685 19.1644 11.69 14.9711 11.68L14.9695 11.6783ZM48.9921 24.8266C48.5909 24.8667 48.1863 24.8868 47.7917 24.9603C47.3653 25.0389 46.9373 25.0556 46.5076 25.0556C39.4085 25.0506 32.311 25.0439 25.2119 25.0423C20.9099 25.0423 16.608 25.0423 12.306 25.0473C11.5804 25.0473 10.8548 25.0707 10.1291 25.0891C9.97365 25.0924 9.81816 25.1192 9.64762 25.1376C9.86163 25.5154 10.0171 25.6458 10.3615 25.6826C10.6274 25.7111 10.8982 25.7044 11.1674 25.7061C17.0561 25.7094 22.9447 25.7094 28.8333 25.7127C34.7487 25.7144 40.6641 25.7094 46.5795 25.7261C47.4974 25.7294 48.3401 25.5706 49.0774 25.0005C49.1125 24.9737 49.1175 24.9085 49.1376 24.8617C49.0891 24.85 49.0406 24.8249 48.9938 24.8283L48.9921 24.8266ZM20.6357 10.7738C22.4348 10.7939 24.2338 10.8122 26.0328 10.8156C28.4505 10.8223 30.8664 10.8156 33.2841 10.8139C33.4981 10.8139 33.7138 10.8156 33.9278 10.8055C34.3658 10.7838 34.4177 10.7253 34.4311 10.2689C34.4511 9.56997 34.426 9.53319 33.7372 9.53151C29.8967 9.52817 26.0562 9.52984 22.2157 9.52984C22.0017 9.52984 21.786 9.52984 21.5704 9.52984C20.7628 9.52148 20.2094 9.90101 19.8499 10.6149C20.0974 10.8423 20.3766 10.7704 20.6341 10.7738H20.6357ZM37.6496 8.71392C37.3871 8.48654 37.0978 8.4297 36.7618 8.4297C32.2709 8.43973 27.78 8.4414 23.2891 8.44474C22.1054 8.44474 20.9216 8.45478 19.7396 8.42803C19.3333 8.41967 19.0089 8.53001 18.7146 8.79752C18.3769 9.10516 18.0074 9.38105 17.6897 9.70708C17.367 10.0398 16.8738 10.1969 16.6983 10.6768C17.1631 10.8641 17.653 10.7286 18.1278 10.7939C18.2331 10.8089 18.3435 10.7938 18.4505 10.8022C18.6595 10.8206 18.8116 10.7387 18.9153 10.5564C19.1142 10.2053 19.345 9.87093 19.462 9.47969C19.6259 8.93129 19.9853 8.74403 20.5538 8.74737C24.9912 8.78081 29.4286 8.78917 33.8659 8.80924C34.1334 8.80924 34.4043 8.82093 34.6701 8.86106C35.0564 8.91958 35.2319 9.1035 35.272 9.50143C35.3038 9.82077 35.2955 10.1451 35.3055 10.4678C35.3122 10.6684 35.4342 10.747 35.6148 10.7637C35.6416 10.7671 35.6683 10.7721 35.6951 10.7688C35.986 10.7337 36.2869 10.7771 36.5661 10.6501C36.6196 10.2939 36.2769 10.1752 36.1314 9.93614C35.9927 9.70875 35.7954 9.51814 35.6399 9.29911C35.573 9.20381 35.4292 9.08342 35.5563 8.9597C35.6616 8.85771 35.8104 8.92962 35.9358 8.97643C36.215 9.08344 36.4725 9.22889 36.6815 9.44457C36.8872 9.65691 37.1463 9.84752 37.2717 10.1017C37.5927 10.7487 38.1211 10.8407 38.7497 10.7721C39.0925 10.7353 39.4369 10.7203 39.7813 10.6952C39.7863 10.6417 39.7914 10.5865 39.7947 10.533C39.0791 9.92777 38.3602 9.32753 37.6512 8.71225L37.6496 8.71392ZM43.4463 13.8753C43.3576 13.576 43.1687 13.6445 43.0283 13.6429C41.2276 13.6245 39.4269 13.6027 37.6262 13.6027C30.5571 13.6044 23.4881 13.6144 16.4191 13.6211C16.205 13.6211 15.9894 13.6211 15.7753 13.6345C15.665 13.6412 15.5781 13.7081 15.4761 13.8719C24.844 13.8836 34.1318 13.8753 43.4479 13.8736L43.4463 13.8753ZM29.345 4.28156C29.1978 4.16118 29.0256 4.09765 28.8267 4.10267C28.4003 4.11437 27.9723 4.11103 27.5443 4.12106C27.3587 4.12607 27.24 4.22974 27.24 4.41867C27.24 4.92528 27.2517 5.43188 27.2667 5.94015C27.2701 6.05719 27.3553 6.12908 27.469 6.15082C27.5476 6.16587 27.6279 6.1759 27.7064 6.1759C28.8551 6.1759 30.0037 6.17757 31.1523 6.1759C31.2276 6.1759 31.3028 6.14413 31.5469 6.09063C30.7394 5.42686 30.0438 4.8517 29.3433 4.28323L29.345 4.28156ZM31.9917 7.22255V7.20414H25.67V7.22255H31.9917Z" fill="white"/>
<path d="M23.8743 21.9311C22.9146 21.9628 21.9399 21.0667 21.9583 20.122C21.9783 19.0837 22.7892 18.3965 23.7172 18.3932C24.7973 18.3899 25.5847 19.1038 25.6015 20.1538C25.6165 21.0867 24.8273 21.8993 23.8743 21.9311ZM22.9514 20.1304C22.938 20.5484 23.3293 20.9312 23.7891 20.9463C24.2104 20.9613 24.6033 20.5667 24.6117 20.1187C24.62 19.6706 24.2505 19.3028 23.7907 19.2994C23.3794 19.2961 22.9665 19.7057 22.9531 20.1304H22.9514Z" fill="white"/>
<path d="M32.7168 20.2003C32.7352 21.0814 31.8407 21.9341 30.8526 21.9308C29.928 21.9274 29.0135 21.0212 29.0285 20.1267C29.0419 19.3543 29.7341 18.3277 30.8727 18.403C32.018 18.3227 32.6985 19.3275 32.7152 20.2003H32.7168ZM30.764 20.9577C31.2054 20.9978 31.6552 20.5966 31.6903 20.1318C31.7237 19.7054 31.3291 19.3041 30.8794 19.3091C30.4564 19.3125 30.0451 19.7104 30.0317 20.1318C30.0183 20.533 30.3627 20.9226 30.764 20.9577Z" fill="white"/>
<path d="M38.0251 21.9332C37.0437 21.9399 36.2362 21.129 36.2462 20.1392C36.2545 19.2848 36.8598 18.4237 37.9633 18.3886C39.1019 18.3518 39.8459 19.1945 39.8275 20.1475C39.8844 21.1775 38.8645 21.9248 38.0251 21.9315V21.9332ZM37.9516 20.9451C38.4097 20.9685 38.821 20.5488 38.8126 20.0689C38.806 19.6493 38.4515 19.3082 38.0268 19.3132C37.5821 19.3182 37.2193 19.6894 37.2143 20.1442C37.2109 20.5906 37.5169 20.9217 37.9516 20.9434V20.9451Z" fill="white"/>
<path d="M17.2358 21.904C16.2795 21.904 15.4117 21.0446 15.4034 20.1183C15.3967 19.3392 16.1942 18.3561 17.281 18.4146C18.3059 18.4698 19.0031 19.1586 18.9864 20.1618C18.9696 21.1182 18.1788 21.9057 17.2358 21.904ZM17.1756 20.9092C17.6187 20.9192 17.9832 20.5564 17.9916 20.0949C17.9982 19.6836 17.6555 19.3308 17.2291 19.3158C16.8028 19.3007 16.4249 19.6836 16.4149 20.1401C16.4065 20.5614 16.7376 20.8974 17.174 20.9075L17.1756 20.9092Z" fill="white"/>
</svg>
