<svg width="34" height="36" viewBox="0 0 34 36" fill="none" xmlns="http://www.w3.org/2000/svg">
<path fill-rule="evenodd" clip-rule="evenodd" d="M5.91602 4.30953C5.91602 1.97547 7.80815 0.0833435 10.1422 0.0833435H10.7374C13.4276 0.0833435 15.7947 1.46679 17.166 3.56104C18.5373 1.46679 20.9044 0.0833435 23.5946 0.0833435H24.1898C26.5239 0.0833435 28.416 1.97547 28.416 4.30953C28.416 5.86178 27.8807 7.289 26.9847 8.41668H32.166C32.8564 8.41668 33.416 8.97632 33.416 9.66668V15.9167H0.916016V9.66668C0.916016 8.97632 1.47566 8.41668 2.16602 8.41668H7.34734C6.45129 7.289 5.91602 5.86178 5.91602 4.30953ZM15.916 8.41668V7.76191C15.916 4.90187 13.5975 2.58334 10.7374 2.58334H10.1422C9.18886 2.58334 8.41602 3.35619 8.41602 4.30953C8.41602 6.57785 10.2548 8.41668 12.5232 8.41668H15.916ZM21.8089 8.41668C24.0772 8.41668 25.916 6.57785 25.916 4.30953C25.916 3.35619 25.1432 2.58334 24.1898 2.58334H23.5946C20.7345 2.58334 18.416 4.90187 18.416 7.76191V8.41668H21.8089Z" fill="black"/>
<path d="M15.9154 18.4167H2.58203V34.6667C2.58203 35.357 3.14168 35.9167 3.83203 35.9167H15.9154L15.9154 18.4167Z" fill="black"/>
<path d="M18.4154 35.9167H30.4987C31.1891 35.9167 31.7487 35.357 31.7487 34.6667V18.4167H18.4154L18.4154 35.9167Z" fill="black"/>
</svg>
