<svg width="50" height="27" viewBox="0 0 50 27" fill="none" xmlns="http://www.w3.org/2000/svg">
<path d="M10.6563 12.3013C10.9339 12.42 11.1663 12.3815 11.392 12.3815C12.6376 12.3782 13.8849 12.3063 15.1272 12.3732C16.9713 12.4718 18.8155 12.4284 20.658 12.4401C23.2412 12.4568 25.8227 12.4467 28.4059 12.4451C30.5042 12.4451 32.6024 12.4384 34.7008 12.4334C34.7927 12.4334 34.8863 12.4417 34.9766 12.4334C35.8527 12.3498 36.4296 12.7477 36.779 13.5302C36.9278 13.8646 37.0549 14.2274 37.4795 14.3227C37.5063 14.7674 37.8524 14.6404 38.0932 14.6437C39.3605 14.6587 40.6295 14.6587 41.8985 14.6587C43.9049 14.6587 45.9112 14.6521 47.9176 14.6487C48.0798 14.6487 48.242 14.642 48.4008 14.6571C48.6984 14.6855 48.8121 14.7975 48.8238 15.0935C48.8372 15.4161 48.8321 15.7388 48.8321 16.0615C48.8321 16.2538 48.8522 16.4243 49.0746 16.5063C49.1498 16.5347 49.2083 16.6266 49.2602 16.7002C49.3856 16.8841 49.3755 17.0028 49.2234 17.1934C48.7235 17.8254 48.2135 18.4507 47.7203 19.0894C46.7355 20.3685 45.7624 21.6542 44.7827 22.9349C44.5586 23.2275 44.2928 23.4917 44.0972 23.801C43.8731 24.1571 43.5872 24.2524 43.1826 24.2508C40.4155 24.2407 37.6484 24.2558 34.8813 24.2558C25.9347 24.2575 16.9864 24.2558 8.03972 24.2558C6.9563 24.2558 5.87287 24.2558 4.78777 24.2558C3.82974 24.2558 3.17934 23.6438 3.12584 22.6942C3.07902 21.8666 3.28134 21.0874 3.6174 20.3467C4.14073 19.1931 4.70584 18.0578 5.24422 16.9092C5.35791 16.6684 5.52009 16.4912 5.75082 16.3658C5.913 16.2772 6.06849 16.1786 6.22398 16.0799C6.56339 15.8626 6.92955 15.7756 7.33751 15.7773C10.2885 15.7923 13.2412 15.7957 16.1922 15.7973C20.3888 15.799 24.5854 15.7957 28.782 15.7973C31.5959 15.7973 34.4082 15.8057 37.2221 15.8074C37.4428 15.8074 37.6718 15.8442 37.8992 15.7622C37.7889 15.3978 37.5832 15.259 37.2238 15.3142C36.9161 15.361 36.6252 15.3008 36.4112 15.0383C36.3008 14.9012 36.147 14.8644 35.9781 14.8644C34.4332 14.8694 32.8884 14.8744 31.3435 14.8744C31.1479 14.8744 30.9823 14.9263 30.8436 15.0667C30.5459 15.366 30.1748 15.4429 29.7668 15.4396C28.3373 15.4278 26.9078 15.4212 25.4783 15.4228C22.6192 15.4262 19.7601 15.4362 16.8994 15.4429C13.8096 15.4512 10.7216 15.4579 7.63178 15.4646C7.53982 15.4646 7.44618 15.4713 7.3559 15.4613C7.177 15.4412 7.05326 15.3292 7.04824 15.1486C7.03654 14.734 7.02651 14.3177 7.04824 13.9047C7.06831 13.5519 7.40271 13.2142 7.75215 13.1506C7.86417 13.1306 7.9812 13.1272 8.09656 13.1256C9.64145 13.1055 11.1864 13.0838 12.7296 13.0754C13.0974 13.0737 13.4686 13.0988 13.8314 13.1523C14.6373 13.2744 15.3228 13.6171 15.7909 14.316C15.8427 14.3929 15.8963 14.4665 15.9481 14.5434C16.0334 14.6671 16.1504 14.7239 16.3009 14.7206C16.4162 14.7189 16.5316 14.7189 16.647 14.7189C19.6448 14.7173 22.6426 14.7139 25.6388 14.7139C26.9295 14.7139 28.2219 14.7189 29.5127 14.7189C29.6732 14.7189 29.8387 14.7189 29.9925 14.6788C30.2433 14.6153 30.3202 14.3277 30.138 14.1521C29.8722 13.8963 29.5929 13.6556 29.3221 13.4064C29.1415 13.2409 28.9325 13.1774 28.6884 13.1824C28.2269 13.1924 27.7655 13.1924 27.3057 13.1924C23.9384 13.1908 20.5727 13.1824 17.2054 13.1891C16.4413 13.1891 15.6839 13.1239 14.9349 12.9968C14.4768 12.9182 14.0203 12.8915 13.5589 12.8898C12.1293 12.8898 10.6998 12.8965 9.27028 12.8965C9.06296 12.8965 8.85397 12.8915 8.64999 12.8647C8.44936 12.838 8.37243 12.5905 8.51121 12.4384C8.69847 12.2311 8.9242 12.0689 9.17666 11.9535C10.1631 11.5071 11.1412 11.0406 12.1678 10.6945C12.8215 10.4755 13.4953 10.3133 14.1608 10.1261C14.2494 10.101 14.3397 10.0843 14.4299 10.0609C15.0135 9.90202 15.0235 9.89868 14.873 9.31182C14.5821 8.17155 14.7794 8.39057 13.6709 8.37719C13.3716 8.37385 13.0723 8.36884 12.7747 8.34209C12.5991 8.32704 12.4771 8.17823 12.4637 8.02274C12.4487 7.84384 12.5908 7.65825 12.7898 7.64655C13.1108 7.62648 13.4351 7.63652 13.7578 7.63151C13.9166 7.62816 14.0838 7.64822 14.2159 7.52282C14.7443 7.02458 15.4197 6.76041 16.0267 6.38589C16.142 6.31567 16.2591 6.24879 16.3728 6.18358C16.3075 5.94951 16.0986 5.92276 15.9548 5.8191C15.7441 5.66695 15.5719 5.48805 15.4933 5.23391C15.3896 4.89952 15.5284 4.69554 15.8829 4.68217C16.2741 4.66879 16.667 4.67214 17.0583 4.66545C17.1954 4.66378 17.3375 4.66545 17.4712 4.6387C17.5582 4.62198 17.6334 4.5551 17.615 4.43806C17.6 4.33774 17.5481 4.24412 17.4562 4.23743C17.2271 4.22071 16.9964 4.23576 16.7657 4.23241C16.03 4.22405 15.9297 4.12373 15.9381 3.3864C15.9397 3.17908 15.9447 2.97008 15.9782 2.7661C16.0233 2.4919 16.1638 2.36818 16.4463 2.34477C16.652 2.32638 16.861 2.33641 17.0683 2.33307C17.4384 2.3275 17.6217 2.12853 17.6184 1.73618C17.615 1.36668 17.6083 0.998847 17.605 0.629344C17.605 0.513979 17.6033 0.398614 17.6201 0.284921C17.6451 0.122741 17.7906 0.0123929 17.9661 0.0040331C18.135 -0.00432669 18.3089 0.0943209 18.3407 0.246469C18.3741 0.401961 18.3825 0.565811 18.3841 0.724647C18.3875 1.13929 18.3724 1.55561 18.3825 1.97026C18.3891 2.26452 18.451 2.313 18.7637 2.32805C18.9476 2.33641 19.1332 2.32136 19.3171 2.33975C19.6799 2.37319 19.8671 2.55544 19.8839 2.91157C19.8956 3.16404 19.8872 3.41984 19.8588 3.67064C19.8153 4.0602 19.6699 4.19062 19.2786 4.21737C19.0262 4.23409 18.772 4.22907 18.5196 4.24746C18.4192 4.25415 18.359 4.33941 18.359 4.43806C18.359 4.54172 18.4243 4.61194 18.5279 4.61696C18.9877 4.64037 19.4492 4.65542 19.909 4.67548C20.0929 4.68384 20.2785 4.6922 20.4607 4.71226C20.6062 4.72898 20.7249 4.7992 20.7616 4.95302C20.7951 5.09681 20.7616 5.23392 20.6546 5.33424C20.556 5.42954 20.4373 5.50477 20.3286 5.58837C20.2049 5.682 20.0812 5.77229 19.8839 5.9211C20.2667 5.99801 20.561 5.98295 20.8469 5.96456C21.2231 5.93948 21.519 6.06989 21.7815 6.32236C22.146 6.67347 22.5256 7.01288 22.8783 7.37736C23.0873 7.59472 23.3197 7.68668 23.614 7.67999C24.4667 7.66494 25.3194 7.66829 26.1688 7.77529C26.6486 7.83548 27.1335 7.8706 27.61 7.94583C28.2771 8.05117 28.8991 8.30029 29.4759 8.64471C30.3854 9.1881 31.2883 9.74485 32.1895 10.2999C32.5239 10.5056 32.8516 10.7196 33.1776 10.9353C33.3699 11.0624 33.5655 11.1878 33.7394 11.3382C33.9551 11.5255 34.2426 11.6676 34.246 12.017C34.0203 12.1776 33.7595 12.114 33.517 12.1124C32.2714 12.109 31.0275 12.0839 29.7819 12.0823C28.1216 12.0789 26.4614 12.0856 24.8011 12.094C22.4721 12.1057 20.143 12.1241 17.8157 12.1341C15.6254 12.1441 13.4351 12.1441 11.2449 12.1508C11.0626 12.1508 10.8754 12.1324 10.6547 12.3013H10.6563ZM11.6562 18.3939C11.5241 18.4039 11.397 18.2902 11.2532 18.3872H11.6712C11.6879 18.5578 11.8401 18.5945 11.9521 18.6597C12.1762 18.7901 12.4002 18.9423 12.5089 19.1647C12.6259 19.4038 12.7981 19.4305 13.0088 19.4372C13.1476 19.4422 13.2846 19.4422 13.4234 19.4422C15.7056 19.4272 17.9896 19.4104 20.2718 19.3954C20.4105 19.3954 20.551 19.387 20.6864 19.4071C21.3937 19.5091 21.7966 20.0007 21.7698 20.6945C21.7464 21.3332 21.2632 21.793 20.5811 21.7763C20.5343 21.7763 20.4891 21.7779 20.4423 21.7779C19.404 21.7729 18.3674 21.7612 17.3291 21.7679C17.0299 21.7696 16.7874 21.676 16.5801 21.4753C16.2825 21.1861 15.9631 20.9135 15.7006 20.5959C15.4398 20.2799 15.1439 20.1829 14.7426 20.1846C11.606 20.1946 8.46943 20.1846 5.33283 20.1812C5.12551 20.1812 4.91817 20.1912 4.71085 20.1963C4.56372 20.1996 4.44836 20.2498 4.37981 20.3952C4.07217 21.0506 3.87655 21.7311 3.8615 22.4584C3.85649 22.7193 3.92003 22.9583 4.05546 23.1824C4.1842 23.3947 4.35807 23.5285 4.61221 23.5352C4.88808 23.5435 5.16562 23.5519 5.44149 23.5519C10.1698 23.5519 14.8964 23.5469 19.6247 23.5469C27.3508 23.5469 35.077 23.5419 42.8014 23.5536C43.1926 23.5536 43.4484 23.4365 43.6758 23.1356C44.8278 21.6091 45.9932 20.0909 47.1502 18.5678C47.202 18.4992 47.2271 18.4089 47.2605 18.3387C47.1184 18.1832 46.9495 18.1966 46.7907 18.1949C45.5919 18.1899 44.3914 18.1481 43.1943 18.1999C40.7984 18.3036 38.4025 18.4123 36.0049 18.4173C32.1076 18.4257 28.2102 18.4173 24.3129 18.4123C21.1529 18.4073 17.9946 18.3956 14.8346 18.3872C13.7745 18.3855 12.7128 18.3889 11.6495 18.3922L11.6562 18.3939ZM5.87787 17.787C6.20223 17.7602 6.47645 17.7168 6.74898 17.7168C8.56974 17.7134 10.3922 17.7218 12.2129 17.7234C20.8603 17.7268 29.5077 17.7301 38.155 17.7318C38.4092 17.7318 38.6616 17.7268 38.9158 17.7151C41.3117 17.6081 43.7076 17.5328 46.1069 17.5512C46.7054 17.5563 47.3006 17.4476 47.9009 17.5161C48.0296 17.5312 48.2169 17.3188 48.2001 17.1867C48.1801 17.0329 48.0396 17.048 47.931 17.0446C47.5849 17.0313 47.2388 17.0179 46.8944 17.0179C45.6956 17.0179 44.4968 17.0312 43.298 17.0296C38.4326 17.0246 33.5672 17.0162 28.7018 17.0095C24.4366 17.0045 20.1698 17.0062 15.9046 16.9978C12.8382 16.9928 9.77188 16.9794 6.7055 16.9694C6.11698 16.9677 6.0735 16.9995 5.88122 17.583C5.86784 17.6231 5.87955 17.6716 5.87955 17.7836L5.87787 17.787ZM32.2948 11.2797C32.0072 11.1025 31.7665 10.9687 31.5424 10.8116C31.188 10.5625 30.7968 10.4688 30.3687 10.4755C29.7936 10.4839 29.2167 10.4839 28.6399 10.4755C24.3079 10.4103 19.9758 10.4805 15.6438 10.4839C15.4097 10.4839 15.1823 10.5123 14.9633 10.5825C14.2845 10.7999 13.6073 11.0256 12.9285 11.248C12.8433 11.2764 12.7496 11.2881 12.7162 11.3917C12.7446 11.482 12.8215 11.4486 12.88 11.4503C13.8949 11.4921 14.9065 11.4051 15.9197 11.4034C21.1964 11.3934 26.4747 11.3984 31.7514 11.3951C31.9052 11.3951 32.0708 11.4386 32.2948 11.2797ZM18.145 8.69822C18.7202 9.30179 19.3622 9.74987 20.2701 9.72981C21.4672 9.70306 22.6643 9.72646 23.8615 9.71643C24.1089 9.71476 24.363 9.77997 24.6038 9.66795C24.5737 9.35529 24.2661 9.27003 24.1056 9.06437C23.818 8.69153 23.4351 8.57281 22.9586 8.5795C21.4405 8.60124 19.9207 8.5795 18.4008 8.57783C18.3156 8.57783 18.2169 8.55276 18.1434 8.69822H18.145ZM15.5786 7.53453C15.6588 7.65491 15.7558 7.63151 15.8394 7.63151C17.7739 7.64321 19.7066 7.65156 21.6411 7.65825C21.7264 7.65825 21.83 7.65993 21.8585 7.50778C21.7397 7.39409 21.5993 7.27705 21.4823 7.13995C21.1562 6.76041 20.7616 6.63669 20.2567 6.67013C19.6414 6.71026 19.0211 6.71694 18.4025 6.57483C18.0531 6.49457 17.6518 6.44943 17.3107 6.59154C16.7038 6.84401 16.1136 7.14329 15.5769 7.53453H15.5786ZM29.6531 9.65792C28.2821 8.68317 25.9832 8.19663 24.7643 8.61294C25.0251 8.8838 25.3044 9.12623 25.5234 9.41548C25.7106 9.66293 25.9079 9.75656 26.2172 9.74987C27.1368 9.72981 28.0564 9.74486 28.976 9.73984C29.1783 9.73984 29.3873 9.77495 29.6515 9.65624L29.6531 9.65792ZM30.3955 13.1807C30.5777 13.5486 30.8737 13.6455 31.0174 13.8629C31.2064 14.1471 31.4588 14.1505 31.7364 14.1505C32.7914 14.1505 33.8447 14.1505 34.8997 14.1471C35.0067 14.1471 35.1254 14.1772 35.2492 14.0468C34.9633 13.7258 34.6138 13.48 34.256 13.2476C34.1674 13.1908 34.037 13.1824 33.9266 13.1824C32.7813 13.1774 31.6377 13.1791 30.3955 13.1791V13.1807ZM18.0548 20.2431C18.0849 20.4772 18.2805 20.5909 18.3825 20.7664C18.4945 20.9587 18.6617 21.0406 18.8874 21.0724C19.4157 21.1476 19.9441 21.1342 20.4724 21.1326C20.5844 21.1326 20.7015 21.0991 20.8051 21.059C21.0375 20.967 21.1261 20.733 21.0375 20.4905C20.9472 20.2448 20.7717 20.1194 20.5125 20.1227C19.7535 20.1311 18.9927 20.1428 18.2336 20.1612C18.1735 20.1612 18.1133 20.2163 18.0548 20.2464V20.2431ZM15.388 8.50426C15.51 8.88212 15.6187 9.20649 15.7174 9.53252C15.7725 9.71309 15.8829 9.79167 16.0701 9.78833C16.6219 9.77829 17.1753 9.77997 17.727 9.76826C17.7805 9.76826 17.8341 9.70807 17.926 9.6529C17.5716 9.29175 17.2388 8.94566 16.8961 8.6096C16.8359 8.54941 16.7406 8.49424 16.6587 8.48922C16.2507 8.46247 15.8427 8.45578 15.388 8.50594V8.50426ZM11.1245 14.7641C11.1245 14.749 11.1245 14.734 11.1245 14.7189C11.4221 14.7189 11.7197 14.7273 12.0173 14.7156C12.2263 14.7072 12.2882 14.6303 12.2948 14.4079C12.2982 14.2943 12.2932 14.1789 12.2815 14.0669C12.2714 13.9682 12.2096 13.8963 12.1093 13.8863C11.9504 13.8712 11.7899 13.8646 11.6294 13.8646C11.1947 13.8629 10.76 13.8646 10.3253 13.8679C10.2333 13.8679 10.133 13.893 10.1046 13.9916C10.0427 14.2157 10.0076 14.4581 10.128 14.6587C10.2149 14.8059 10.4173 14.7591 10.5761 14.7624C10.7583 14.7657 10.9422 14.7624 11.1245 14.7624V14.7641ZM8.24872 18.4491C6.75399 18.3471 5.72407 18.6531 5.13888 19.377C5.6388 19.4339 6.11029 19.4573 6.58513 19.4188C6.79412 19.4021 6.96632 19.3653 7.09172 19.1429C7.21544 18.9239 7.4746 18.8269 7.70701 18.7249C7.86919 18.653 8.0531 18.6313 8.24872 18.4491ZM15.1355 14.6688C14.6289 14.0368 13.9785 13.8412 13.2362 13.8562C13.1057 13.8595 13.0272 13.9381 13.0188 14.0719C13.0121 14.1638 13.0088 14.2558 13.0105 14.3478C13.0155 14.7106 13.0556 14.7641 13.395 14.7691C13.9016 14.7775 14.4082 14.7691 14.9148 14.7607C14.975 14.7607 15.0335 14.7123 15.1355 14.6671V14.6688ZM8.52292 13.8562C8.52292 13.8562 8.52292 13.8412 8.52292 13.8328C8.36241 13.8328 8.20023 13.8261 8.0414 13.8345C7.84912 13.8462 7.76218 13.9415 7.75048 14.1438C7.74379 14.2575 7.75048 14.3728 7.75383 14.4882C7.75884 14.6521 7.85247 14.7474 8.00797 14.7557C8.28384 14.7691 8.5597 14.7758 8.83558 14.7674C9.2218 14.7557 9.27196 14.6989 9.2753 14.3227C9.27865 13.908 9.24856 13.8779 8.7988 13.8562C8.70684 13.8512 8.61488 13.8562 8.52292 13.8562ZM44.562 15.3827C44.562 15.3827 44.562 15.3961 44.562 15.4011C44.2409 15.4011 43.9199 15.3894 43.5989 15.4061C43.4518 15.4145 43.4484 15.5532 43.4635 15.6703C43.4819 15.804 43.5755 15.8692 43.7009 15.8709C44.251 15.8776 44.8027 15.8809 45.3528 15.8759C45.5234 15.8759 45.6086 15.7689 45.5986 15.6134C45.5869 15.4379 45.4698 15.3844 45.3194 15.3827C45.0669 15.3794 44.8144 15.3827 44.562 15.3827ZM11.5391 19.3586C11.2934 19.1179 11.0576 19.1045 10.8403 19.0827C10.0628 19.0058 9.28533 18.9874 8.51455 19.153C8.38916 19.1797 8.23702 19.1831 8.18853 19.3486C8.92754 19.4706 10.7717 19.484 11.5391 19.3586ZM41.7581 15.3927C41.5056 15.3927 41.2548 15.3877 41.0024 15.3944C40.8669 15.3977 40.8084 15.4864 40.8118 15.6201C40.8151 15.7539 40.8787 15.8525 41.0074 15.8559C41.5107 15.8692 42.0139 15.8743 42.5172 15.8692C42.6492 15.8692 42.7078 15.7639 42.7027 15.6318C42.6977 15.5048 42.6493 15.4011 42.5122 15.3961C42.2614 15.386 42.0089 15.3927 41.7581 15.3927ZM39.4107 15.366C39.2217 15.3777 39.0177 15.381 38.8171 15.4061C38.7469 15.4145 38.7252 15.4964 38.7653 15.5649C38.8472 15.7054 38.9475 15.8375 39.1181 15.8542C39.3655 15.8776 39.6146 15.8809 39.8621 15.8759C39.9908 15.8743 40.0644 15.7856 40.0627 15.6536C40.0627 15.5348 40.0293 15.4195 39.8955 15.3978C39.74 15.3743 39.5812 15.3743 39.4107 15.3643V15.366ZM16.3226 20.1729C16.5032 20.5106 16.7306 20.753 16.9797 20.9788C17.0516 21.044 17.1469 21.0389 17.2355 21.0005C17.3358 20.957 17.4512 20.9386 17.5281 20.8149C17.4194 20.6811 17.289 20.5524 17.1954 20.4002C16.9864 20.0659 16.7005 20.0776 16.3226 20.1745V20.1729ZM46.8592 15.3743C46.7155 15.3743 46.6486 15.3743 46.58 15.3743C46.4362 15.3743 46.3075 15.4011 46.2924 15.5817C46.2774 15.7639 46.3693 15.8709 46.5683 15.8793C46.7472 15.8876 46.9278 15.8826 47.1067 15.8692C47.2405 15.8592 47.2923 15.7606 47.2906 15.6352C47.2906 15.5148 47.2555 15.4095 47.1167 15.3911C47.0064 15.376 46.8927 15.376 46.8559 15.3727L46.8592 15.3743ZM17.1034 3.61045V3.61379C17.172 3.61379 17.2405 3.61713 17.309 3.61379C17.5197 3.60041 17.5916 3.52016 17.5883 3.31618C17.5849 3.15567 17.5147 3.05702 17.3492 3.05034C17.1904 3.04365 17.0298 3.03863 16.871 3.04866C16.7255 3.05702 16.657 3.16236 16.662 3.34293C16.667 3.52016 16.7322 3.59707 16.8978 3.61045C16.9663 3.61546 17.0348 3.61045 17.1017 3.61045H17.1034ZM18.7269 3.61881C18.7854 3.61379 18.8523 3.60877 18.9208 3.60375C19.0011 3.59874 19.0462 3.54356 19.0596 3.47836C19.088 3.3446 19.1198 3.18243 18.9961 3.09883C18.8406 2.9935 18.6466 3.0169 18.4711 3.07375C18.3423 3.11722 18.334 3.23927 18.334 3.35631C18.334 3.48003 18.3741 3.57868 18.5129 3.60042C18.5797 3.61045 18.6483 3.61212 18.7269 3.61881ZM18.4159 16.416C18.4159 16.416 18.4259 16.4227 18.4309 16.426H19.5645C19.5645 16.426 19.5645 16.4193 19.5645 16.416H18.4159ZM16.8794 5.36767C17.0215 5.54991 17.197 5.64689 17.3926 5.70373C17.5013 5.7355 17.5632 5.66862 17.5632 5.55827C17.5632 5.46632 17.5599 5.35931 17.4478 5.33757C17.274 5.30246 17.0934 5.27404 16.8794 5.36767ZM19.088 5.29076C18.8138 5.34594 18.6282 5.28407 18.4594 5.38272C18.3992 5.41783 18.3674 5.48304 18.3908 5.55827C18.4109 5.62515 18.446 5.69538 18.5279 5.6703C18.6985 5.6168 18.8707 5.55661 19.088 5.29076ZM48.0463 15.6385C48.0681 15.6318 48.0915 15.6285 48.0915 15.6251C48.0915 15.5666 48.0865 15.5081 48.0848 15.4496C48.0714 15.4529 48.048 15.4563 48.048 15.4596C48.0463 15.5181 48.048 15.5767 48.048 15.6368L48.0463 15.6385Z" fill="white"/>
<path d="M24.3363 24.6208C30.3286 24.6208 36.3226 24.6258 42.3149 24.6174C43.9283 24.6157 45.5418 24.5756 47.1535 24.5539C47.3609 24.5505 47.5682 24.5539 47.7755 24.5723C47.8608 24.5806 47.9527 24.6224 48.0246 24.6743C48.125 24.7462 48.1534 24.8615 48.1383 24.9819C48.1216 25.1073 48.0514 25.2043 47.926 25.2193C47.6986 25.2444 47.4679 25.2578 47.2388 25.2578C42.3533 25.2578 37.4662 25.2511 32.5808 25.2544C30.7834 25.2544 28.9861 25.2946 27.1887 25.2929C23.4318 25.2895 19.6749 25.236 15.918 25.2678C12.7597 25.2946 9.60305 25.2177 6.44639 25.2511C4.80954 25.2678 3.17437 25.2678 1.53753 25.2728C1.35361 25.2728 1.16803 25.2728 0.985791 25.2511C0.760077 25.2243 0.646367 25.0872 0.654727 24.8849C0.661414 24.7211 0.773435 24.5974 0.967382 24.579C1.17303 24.5589 1.38204 24.5589 1.58769 24.5606C4.26115 24.5773 6.93461 24.6091 9.60807 24.6141C14.5169 24.6224 19.4275 24.6174 24.3363 24.6174V24.6208Z" fill="white"/>
<path d="M20.1257 25.9998C21.2091 25.9998 22.2925 25.9982 23.3759 26.0015C23.5816 26.0015 23.7906 26.0149 23.9946 26.0433C24.1484 26.0651 24.2286 26.1771 24.2353 26.3342C24.2437 26.5215 24.1534 26.672 23.9962 26.7054C23.8625 26.7338 23.7237 26.7472 23.5866 26.7472C21.3512 26.7506 19.1141 26.7506 16.8787 26.7506C16.7868 26.7506 16.6931 26.7522 16.6028 26.7439C16.3353 26.7188 16.1966 26.59 16.1915 26.3727C16.1865 26.152 16.327 26.0216 16.6012 26.0132C16.8536 26.0049 17.1078 26.0132 17.3619 26.0132C18.2832 26.0132 19.2061 26.0132 20.1273 26.0132V25.9982L20.1257 25.9998Z" fill="white"/>
<path d="M32.8732 26.7433C32.2278 26.7433 31.5824 26.745 30.937 26.7416C30.7765 26.7416 30.6143 26.7299 30.4572 26.7015C30.305 26.6731 30.2081 26.5059 30.2131 26.3303C30.2181 26.1548 30.3268 26.0378 30.5174 26.0227C30.6779 26.0093 30.8401 26.011 31.0006 26.011C32.2445 26.0077 33.4901 26.006 34.7341 26.006C34.8946 26.006 35.0567 26.0093 35.2156 26.0311C35.3861 26.0528 35.5115 26.2133 35.5015 26.3655C35.4914 26.5226 35.366 26.6965 35.2206 26.7182C35.0617 26.7433 34.8996 26.7517 34.7391 26.7517C34.1171 26.755 33.4951 26.7517 32.8715 26.7517V26.7416L32.8732 26.7433Z" fill="white"/>
<path d="M19.093 14.5155C18.6098 14.5155 18.1283 14.5206 17.6451 14.5122C17.4863 14.5088 17.3241 14.4888 17.1736 14.442C17.0298 14.3968 16.968 14.2648 16.9763 14.1143C16.983 13.9939 17.0399 13.8986 17.1502 13.8367C17.2974 13.7548 17.4562 13.7448 17.6184 13.7448C18.6065 13.7414 19.5946 13.7364 20.5828 13.7397C20.7165 13.7397 20.857 13.7665 20.984 13.8083C21.1395 13.8585 21.2465 14.0457 21.2198 14.1895C21.1913 14.3383 21.0944 14.442 20.9506 14.4721C20.7951 14.5055 20.6329 14.5172 20.4724 14.5189C20.0126 14.5256 19.5528 14.5206 19.093 14.5206V14.5139V14.5155Z" fill="white"/>
<path d="M6.72122 26.73C6.44869 26.73 6.17449 26.735 5.90196 26.7283C5.75148 26.7249 5.64949 26.6313 5.58595 26.5009C5.48564 26.2986 5.59766 26.0378 5.81334 26.0294C6.3818 26.0077 6.95196 26.0043 7.52042 26.011C7.62241 26.011 7.73944 26.0779 7.82136 26.1481C7.9083 26.2234 7.92001 26.3488 7.88992 26.4658C7.85146 26.6112 7.75617 26.7183 7.60904 26.7249C7.3131 26.74 7.01716 26.73 6.72122 26.73Z" fill="white"/>
<path d="M9.97862 26.7384C9.96023 26.7384 9.89002 26.735 9.82314 26.7267C9.62251 26.6999 9.52218 26.5963 9.52051 26.4191C9.52051 26.2017 9.62585 26.0445 9.81979 26.0178C9.95355 25.9994 10.0957 26.0027 10.2294 26.0261C10.4401 26.0629 10.5437 26.2067 10.5371 26.4191C10.532 26.6197 10.4117 26.725 10.1692 26.7401C10.1241 26.7434 10.0773 26.7401 9.9803 26.7401L9.97862 26.7384Z" fill="white"/>
<path d="M34.3388 19.4789C35.2383 19.5725 36.2967 19.4572 37.3433 19.3685C39.475 19.188 41.6135 19.1177 43.7436 18.9255C44.0178 18.9004 44.2953 18.9037 44.5712 18.9071C44.6581 18.9071 44.7467 18.9489 44.8303 18.9857C44.9189 19.0258 44.9524 19.2114 44.8939 19.29C44.7768 19.4471 44.6146 19.5224 44.4224 19.5424C44.1013 19.5759 43.782 19.621 43.461 19.6444C42.4963 19.713 41.5316 19.7715 40.5685 19.835C39.8345 19.8835 39.1005 19.937 38.3665 19.9805C38.0221 20.0005 37.7663 20.1243 37.579 20.4403C37.3935 20.7546 37.1493 21.0355 36.9169 21.3214C36.7514 21.5254 36.5341 21.6391 36.2615 21.6575C35.138 21.736 34.0161 21.8631 32.8859 21.8497C32.1803 21.8414 31.6988 21.3849 31.6603 20.7128C31.6269 20.1142 31.993 19.6243 32.5933 19.5407C33.0012 19.4839 33.4192 19.4956 33.8322 19.4789C33.9476 19.4739 34.0629 19.4789 34.3354 19.4789H34.3388ZM34.0562 20.1544C33.568 20.1544 33.1534 20.1326 32.7454 20.2079C32.5381 20.2463 32.411 20.3801 32.3809 20.5673C32.3475 20.778 32.4562 20.9786 32.6652 21.0622C32.7705 21.104 32.8859 21.1391 32.9979 21.1425C33.4109 21.1542 33.8238 21.1525 34.2368 21.1542C34.3789 21.1542 34.506 21.1074 34.613 21.0087C34.8019 20.8365 34.9541 20.6359 35.0561 20.4018C35.1012 20.2981 35.0477 20.2145 34.944 20.2062C34.6247 20.1794 34.302 20.1677 34.0562 20.1544ZM36.9403 20.1677C36.3663 20.1087 35.965 20.3199 35.7365 20.8014C35.7198 20.8365 35.7382 20.8883 35.7416 20.9318C36.3017 21.1057 36.3033 21.109 36.626 20.6794C36.733 20.5356 36.8835 20.4185 36.942 20.1661L36.9403 20.1677Z" fill="white"/>
<path d="M25.025 19.9937C25.0116 19.5071 25.2323 19.1644 25.6319 18.9019C26.3709 18.4153 27.1551 18.5023 27.7469 19.1594C28.1532 19.6108 28.195 20.089 27.8723 20.6123C27.4226 21.3446 26.5247 21.6021 25.764 21.2175C25.2624 20.9634 25.0216 20.5504 25.0267 19.9937H25.025ZM26.5481 20.6474C26.712 20.6474 26.8642 20.6056 27.0063 20.5203C27.2922 20.3498 27.3841 20.0455 27.2337 19.7512C27.0497 19.3934 26.6853 19.243 26.3091 19.37C25.9262 19.4988 25.6754 19.8332 25.7439 20.1258C25.8125 20.42 26.1753 20.6558 26.5481 20.6457V20.6474Z" fill="white"/>
</svg>
