<svg width="24" height="25" viewBox="0 0 24 25" fill="none" xmlns="http://www.w3.org/2000/svg">
<g clip-path="url(#clip0_4006_4211)">
<path d="M23.7663 12.4213C23.7663 11.6055 23.7001 10.7854 23.559 9.98291H12.2402V14.6039H18.722C18.453 16.0942 17.5888 17.4126 16.3233 18.2504V21.2488H20.1903C22.4611 19.1587 23.7663 16.0722 23.7663 12.4213Z" fill="#4285F4"/>
<path d="M12.2401 24.1456C15.4766 24.1456 18.2059 23.083 20.1945 21.2487L16.3276 18.2503C15.2517 18.9823 13.8627 19.3967 12.2445 19.3967C9.11388 19.3967 6.45946 17.2847 5.50705 14.4451H1.5166V17.536C3.55371 21.5882 7.7029 24.1456 12.2401 24.1456Z" fill="#34A853"/>
<path d="M5.50277 14.445C5.00011 12.9546 5.00011 11.3408 5.50277 9.85046V6.75952H1.51674C-0.185266 10.1503 -0.185266 14.1452 1.51674 17.5359L5.50277 14.445Z" fill="#FBBC04"/>
<path d="M12.2401 4.89444C13.9509 4.86798 15.6044 5.51174 16.8434 6.69344L20.2695 3.26739C18.1001 1.23028 15.2208 0.110309 12.2401 0.145584C7.7029 0.145584 3.55371 2.703 1.5166 6.75958L5.50264 9.85053C6.45064 7.00651 9.10947 4.89444 12.2401 4.89444Z" fill="#EA4335"/>
</g>
<defs>
<clipPath id="clip0_4006_4211">
<rect width="24" height="24" fill="white" transform="translate(0 0.144775)"/>
</clipPath>
</defs>
</svg>
