<svg width="41" height="40" viewBox="0 0 41 40" fill="none" xmlns="http://www.w3.org/2000/svg">
<path d="M33.0276 19.6832C34.3868 20.8633 35.4625 21.7972 36.2574 22.6039C37.0632 23.4215 37.6801 24.2044 38.0263 25.1103C38.2922 25.806 38.4249 26.5289 38.417 27.2583C38.4249 27.9876 38.2922 28.7105 38.0263 29.4062C37.6801 30.3121 37.0632 31.095 36.2574 31.9127C35.4625 32.7193 34.3869 33.6532 33.0277 34.8333L33.0276 34.8334L32.3558 35.4167L27.584 33.0308V21.4857L32.3558 19.0998L33.0276 19.6832Z" fill="black"/>
<path d="M7.97359 34.8332C6.61443 33.6531 5.53879 32.7192 4.7439 31.9126C3.93815 31.0949 3.32123 30.312 2.97502 29.4061C2.70915 28.7104 2.57639 27.9875 2.58432 27.2582C2.57639 26.5288 2.70915 25.8059 2.97502 25.1102C3.32123 24.2043 3.93815 23.4214 4.7439 22.6038C5.5388 21.7971 6.61445 20.8632 7.97364 19.6831L8.64551 19.0997L13.4173 21.4856V33.0307L8.64551 35.4166L7.97366 34.8333L7.97359 34.8332Z" fill="black"/>
<path fill-rule="evenodd" clip-rule="evenodd" d="M20.5013 7.91646C14.9785 7.91646 10.5013 12.3936 10.5013 17.9165V22.9165H7.16797V17.9165C7.16797 10.5527 13.1375 4.58313 20.5013 4.58313C27.8651 4.58313 33.8346 10.5527 33.8346 17.9165V22.9165H30.5013V17.9165C30.5013 12.3936 26.0241 7.91646 20.5013 7.91646Z" fill="black"/>
</svg>
