<svg width="51" height="27" viewBox="0 0 51 27" fill="none" xmlns="http://www.w3.org/2000/svg">
<path d="M44.3111 22.7086C45.433 22.7086 46.5566 22.7119 47.6785 22.7153C47.8775 22.7153 48.0781 22.7153 48.2771 22.7337C48.5329 22.7587 48.7051 22.941 48.7084 23.1633C48.7118 23.379 48.5446 23.5897 48.3021 23.6265C48.0564 23.6633 47.8056 23.6783 47.5581 23.6783C45.0636 23.685 42.569 23.6867 40.0761 23.6867C35.7859 23.6867 31.4956 23.685 27.2054 23.6833C22.8148 23.6833 18.4259 23.6817 14.0354 23.6833C11.0175 23.6833 7.99957 23.6934 4.98169 23.695C3.73441 23.695 2.48715 23.69 1.23986 23.6817C1.04257 23.6817 0.84026 23.6616 0.647985 23.6198C0.449022 23.578 0.296862 23.3222 0.301878 23.0981C0.306894 22.9192 0.472446 22.7487 0.70652 22.7253C0.95397 22.7002 1.20476 22.7019 1.45388 22.7002C2.1026 22.6985 2.7513 22.7019 3.40002 22.7002C3.49198 22.7002 3.60735 22.7236 3.66086 22.6116C3.71101 22.5029 3.63745 22.4243 3.57391 22.3491C3.20942 21.906 2.83657 21.4713 2.48379 21.0199C1.70633 20.0284 1.14624 18.9216 0.78175 17.7161C0.395528 16.4421 0.537636 15.265 1.35857 14.1782C1.85347 13.5228 2.29485 12.8256 2.76467 12.1502C3.63409 10.9029 4.50855 9.65895 5.38298 8.41501C5.43983 8.33309 5.50835 8.25951 5.56352 8.17591C5.76082 7.88499 6.02501 7.73284 6.38616 7.75792C6.58512 7.7713 6.78573 7.76127 6.98469 7.76127C9.05457 7.76127 11.1245 7.76462 13.196 7.76462C13.4201 7.76462 13.6441 7.75124 13.8665 7.73619C13.9501 7.73117 13.9969 7.65927 13.9936 7.58403C13.9902 7.48706 13.9718 7.38674 13.9417 7.29311C13.6458 6.3936 13.3465 5.49576 13.0489 4.59792C13.0021 4.4558 12.9452 4.31704 12.9051 4.17326C12.8433 3.95256 12.9185 3.84722 13.1576 3.83719C13.4318 3.82381 13.706 3.82715 13.9802 3.82715C15.2525 3.82715 16.5249 3.83217 17.7956 3.82882C18.7085 3.82715 18.7219 3.72181 19.0563 4.72332C19.0797 4.79354 19.0897 4.86878 19.1131 4.94068C19.3706 5.72148 19.6264 6.50396 19.8889 7.28309C19.9357 7.42187 20.0076 7.55562 20.0862 7.67935C20.1464 7.77298 20.4055 7.77798 20.5025 7.70776C20.6112 7.6275 20.561 7.52552 20.5326 7.43857C20.2283 6.46382 19.9173 5.49075 19.6096 4.51599C19.4625 4.05286 19.5896 3.85891 20.0661 3.82548C20.2149 3.81544 20.3654 3.82213 20.5142 3.82213C21.7113 3.82547 22.9084 3.8305 24.1056 3.83552C24.3045 3.83552 24.5051 3.84722 24.7041 3.83886C24.9632 3.82883 25.1238 3.93416 25.2057 4.18495C25.3528 4.63471 25.5117 5.08112 25.6705 5.52754C25.9046 6.18462 26.142 6.84168 26.3761 7.49876C26.4312 7.65425 26.5232 7.75458 26.6988 7.75625C27.2973 7.75625 27.8959 7.76461 28.4944 7.75625C28.7269 7.75291 28.7937 7.67266 28.8071 7.43023C28.8171 7.23126 28.8138 7.03062 28.8138 6.83165C28.8138 6.20801 28.8104 5.58438 28.8171 4.96074C28.8205 4.64307 28.8907 4.56616 29.2167 4.56281C30.2383 4.55111 31.2615 4.54945 32.2831 4.54945C32.5573 4.54945 32.8315 4.56449 33.1057 4.58622C33.3264 4.60294 33.415 4.69322 33.4351 4.91392C33.4535 5.11288 33.4585 5.31186 33.4602 5.5125C33.4652 6.03582 33.4618 6.5608 33.4669 7.08412C33.4735 7.75458 33.4752 7.7596 34.1172 7.76462C35.0652 7.76963 36.0132 7.76797 36.9612 7.76964C37.7136 7.76964 37.6919 7.77798 37.6835 7.02058C37.6785 6.59758 37.6702 6.17123 37.6952 5.7499C37.712 5.47068 37.9326 5.3152 38.2135 5.32189C38.4961 5.33025 38.67 5.49074 38.6951 5.78668C38.7101 5.96056 38.7001 6.13612 38.7018 6.31C38.7018 6.68452 38.6967 7.05905 38.7067 7.4319C38.7134 7.67935 38.782 7.74957 39.0127 7.7596C39.2618 7.76963 39.5126 7.783 39.7601 7.7596C40.0627 7.7295 40.2901 7.84319 40.4958 8.0455C40.7098 8.25449 40.9288 8.46016 41.1445 8.66748C41.8283 9.32456 42.5238 9.96825 43.1893 10.6421C43.5655 11.0233 43.9768 11.1804 44.5201 11.1704C46.1904 11.1386 47.8624 11.157 49.5327 11.1587C49.7818 11.1587 50.0326 11.1553 50.2801 11.1787C50.5643 11.2055 50.7114 11.4078 50.6981 11.6954C50.6864 11.9562 50.5509 12.1686 50.4339 12.3876C49.7099 13.7235 48.991 15.0644 48.257 16.3953C47.5698 17.6392 46.8609 18.8698 46.1721 20.112C45.6621 21.0333 44.9147 21.7121 44.042 22.2705C43.8781 22.3759 43.6708 22.421 43.4835 22.7186C43.8213 22.7186 44.0687 22.7186 44.3145 22.7186L44.3111 22.7086ZM5.03855 12.7404C7.50636 12.7521 9.97585 12.7621 12.4437 12.7654C16.2841 12.7704 20.1229 12.7704 23.9634 12.7688C27.8039 12.7688 31.6428 12.7537 35.4832 12.7604C38.1517 12.7638 40.8184 12.7888 43.4869 12.8072C43.7109 12.8072 43.9366 12.8139 44.1573 12.8424C44.3998 12.8741 44.5385 13.0179 44.5603 13.2169C44.592 13.4894 44.46 13.7469 44.2142 13.8088C44.0002 13.8606 43.7711 13.8723 43.5488 13.8739C42.3516 13.8806 41.1545 13.8773 39.9591 13.8773C39.511 13.8773 39.0596 13.9024 38.6131 13.8723C38.1032 13.8372 37.7454 13.9458 37.4495 14.4391C37.0582 15.0928 36.3326 15.3319 35.627 15.5125C35.2207 15.6161 34.796 15.6512 34.368 15.6512C28.7837 15.6412 23.1977 15.6395 17.6133 15.6362C14.2978 15.6345 10.9807 15.6328 7.66519 15.6328C5.74578 15.6328 3.82471 15.6328 1.9053 15.6362C1.601 15.6362 1.51404 15.7131 1.5107 16.0324C1.50401 16.6628 1.61604 17.273 1.85011 17.8582C2.22463 18.7878 2.67106 19.6773 3.32814 20.4431C3.8966 21.1052 4.4818 21.7522 5.05361 22.411C5.22917 22.6133 5.4348 22.7186 5.70398 22.7103C5.92803 22.7036 6.15207 22.7136 6.37779 22.7119C16.4012 22.7119 26.4246 22.7103 36.448 22.7086C36.672 22.7086 36.8977 22.7019 37.1217 22.7119C38.5763 22.7755 40.0025 22.533 41.422 22.2722C42.5489 22.0649 43.522 21.5115 44.4115 20.8042C44.7893 20.5033 45.0468 20.1037 45.2842 19.6924C45.7307 18.9149 46.1721 18.1341 46.6051 17.3483C47.4444 15.8201 48.2787 14.2886 49.1097 12.7554C49.2017 12.5849 49.3421 12.4294 49.3454 12.2137C49.2735 12.0632 49.1331 12.1151 49.0211 12.1151C43.8347 12.1117 38.6482 12.1117 33.4635 12.11C23.9133 12.1084 14.363 12.1067 4.81449 12.1033C4.66569 12.1033 4.51522 12.11 4.36642 12.1033C3.97351 12.0833 3.79629 12.314 3.6642 12.7103C4.15409 12.722 4.59883 12.742 5.04524 12.7437L5.03855 12.7404ZM41.0676 10.4314C34.139 10.4448 27.2087 10.4381 20.2801 10.4381C15.495 10.4381 10.7082 10.4364 5.92302 10.4347C5.79762 10.4347 5.67223 10.4448 5.55018 10.4314C5.15058 10.3879 4.98338 10.6805 4.79947 10.9447C4.78609 10.9647 4.82285 11.055 4.85127 11.0634C4.9449 11.0901 5.04358 11.1069 5.14056 11.1069C10.0762 11.1135 15.0101 11.1236 19.9457 11.1236C24.3329 11.1236 28.7185 11.1085 33.1057 11.1085C36.0717 11.1085 39.0378 11.1236 42.0039 11.1319C42.0774 11.1319 42.151 11.1186 42.3366 11.1018C41.9637 10.6237 41.6009 10.4331 41.0709 10.4347L41.0676 10.4314ZM6.61352 9.40982C9.78021 9.41651 12.9486 9.42152 16.1153 9.42319C22.6744 9.4282 29.2334 9.43323 35.7925 9.43658C37.09 9.43658 38.3857 9.43658 39.6832 9.43658C39.8821 9.43658 40.0811 9.42319 40.2784 9.40647C40.3135 9.40313 40.3637 9.35631 40.372 9.31953C40.3821 9.2794 40.367 9.21922 40.3386 9.18746C40.1062 8.90991 39.837 8.74103 39.4424 8.7544C38.6951 8.77948 37.946 8.75943 37.1987 8.75943C34.4801 8.75608 31.7615 8.75106 29.0445 8.75273C25.6287 8.75273 22.2112 8.76277 18.7954 8.76277C14.9048 8.76277 11.0141 8.75607 7.12347 8.75273C6.99808 8.75273 6.87435 8.75609 6.74896 8.7494C6.33264 8.73101 6.11697 8.9517 6.01331 9.32622C6.21896 9.46667 6.42124 9.40982 6.61352 9.40982ZM15.0887 7.5205C15.1372 7.67599 15.2776 7.74456 15.4398 7.7479C15.7625 7.75459 16.0868 7.7596 16.4095 7.76127C17.0817 7.76294 17.7521 7.76629 18.4243 7.76127C18.8807 7.75793 18.9225 7.70443 18.7787 7.30316C18.5797 6.74138 18.3707 6.18294 18.1634 5.62283C18.0949 5.43724 18.0129 5.25501 17.9511 5.06608C17.8909 4.88216 17.7906 4.77348 17.5816 4.77516C16.5366 4.78017 15.4916 4.77851 14.4483 4.78018C14.3397 4.78018 14.246 4.82198 14.2611 4.94737C14.2744 5.06943 14.3012 5.21153 14.4416 5.24664C14.5587 5.27673 14.6857 5.26503 14.8095 5.26336C15.6304 5.25667 16.4513 5.24496 17.2722 5.24162C17.5364 5.24162 17.6485 5.31184 17.6786 5.47235C17.7304 5.74655 17.62 6.02578 17.396 6.09601C17.2087 6.15453 17.0064 6.18461 16.8108 6.18795C16.2891 6.19798 15.7658 6.18795 15.2442 6.18795C15.0736 6.18795 14.8981 6.15619 14.6908 6.25986C14.756 6.7046 14.9583 7.10586 15.092 7.52385L15.0887 7.5205ZM21.6544 7.53723C21.6996 7.6643 21.8066 7.72784 21.9387 7.74456C21.9872 7.75124 22.0373 7.75625 22.0875 7.75625C23.1091 7.75458 24.1306 7.75292 25.1522 7.74623C25.199 7.74623 25.2458 7.7178 25.2943 7.70276C25.3027 7.65427 25.3294 7.5991 25.3161 7.55897C25.0352 6.7347 24.7509 5.91041 24.3831 5.11957C24.2761 4.89051 24.1423 4.76679 23.8765 4.76846C22.9552 4.77682 22.0323 4.77014 21.1111 4.77516C21.0208 4.77516 20.9105 4.77515 20.8904 4.9156C20.8703 5.06273 20.9773 5.23494 21.1244 5.23494C21.723 5.23996 22.3199 5.23494 22.9185 5.2316C23.1425 5.2316 23.3665 5.21487 23.5906 5.22323C23.8731 5.23326 24.032 5.46233 23.9584 5.73486C23.8949 5.97395 23.7427 6.13612 23.4986 6.16789C23.2528 6.19966 23.0021 6.19632 22.7529 6.19967C22.3048 6.20468 21.8568 6.203 21.407 6.20802C21.3619 6.20802 21.3167 6.24313 21.2348 6.27824C21.3351 6.70627 21.5056 7.1159 21.6528 7.53389L21.6544 7.53723ZM2.9904 14.6598C5.87285 14.6598 8.75698 14.6547 11.6411 14.6514C11.7648 14.6514 11.8902 14.6414 12.014 14.6464C12.4353 14.6598 12.4537 14.3872 12.3534 14.0261C12.3383 13.9709 12.2547 13.9091 12.1945 13.8957C12.0742 13.8706 11.9488 13.8739 11.825 13.8739C9.16495 13.8723 6.50651 13.8706 3.84642 13.8706C3.64746 13.8706 3.44852 13.8706 3.24956 13.8773C2.65936 13.8957 2.6393 13.9157 2.41526 14.5895C2.59583 14.6999 2.7998 14.6614 2.99207 14.6614L2.9904 14.6598ZM32.3717 7.65426C32.5038 7.26804 32.4085 6.87011 32.4252 6.47887C32.4353 6.2565 32.4252 6.03246 32.4135 5.81009C32.4035 5.63453 32.2948 5.54258 32.1209 5.54258C31.4755 5.54258 30.8318 5.54092 30.1865 5.55429C29.9122 5.55931 29.8153 5.64792 29.8103 5.90708C29.8002 6.42705 29.8103 6.9487 29.8203 7.46868C29.8236 7.63755 29.9189 7.74789 30.0962 7.75123C30.4423 7.75625 30.79 7.75123 31.2849 7.75123C31.5474 7.71277 31.9755 7.86493 32.37 7.65594L32.3717 7.65426ZM26.7188 13.8806C26.4998 13.8873 26.4296 13.9826 26.4245 14.215C26.4179 14.5344 26.4864 14.633 26.7907 14.638C27.4829 14.6497 28.1768 14.6464 28.869 14.638C29.093 14.6347 29.1565 14.5411 29.1549 14.2986C29.1549 13.9977 29.083 13.8773 28.8723 13.8706C28.5011 13.8606 28.1299 13.8673 27.7588 13.8673V13.8773C27.4127 13.8773 27.0649 13.8689 26.7188 13.8806ZM33.7461 13.8957C33.5605 13.9007 33.5087 14.0412 33.5087 14.2067C33.5087 14.4608 33.5722 14.6046 33.731 14.6196C34.6606 14.7166 35.5651 14.6648 36.3677 14.1047C36.4011 14.0813 36.4279 14.0261 36.4296 13.9826C36.4362 13.8723 36.3393 13.8773 36.2741 13.8756C35.8527 13.8706 35.4314 13.8739 35.0101 13.8739C35.0101 13.879 35.0101 13.8857 35.0101 13.8907C34.5887 13.8907 34.1674 13.8823 33.7461 13.894V13.8957ZM25.1472 14.638C25.3746 14.6297 25.4314 14.5477 25.4264 14.3003C25.4264 14.2501 25.4214 14.2016 25.4163 14.1515C25.398 13.986 25.3278 13.8739 25.1405 13.8756C24.5219 13.879 23.9016 13.879 23.2829 13.8857C23.1592 13.8857 23.0321 13.9141 22.9903 14.0595C22.9402 14.2284 22.9201 14.404 23.0238 14.5561C23.0589 14.6063 23.1509 14.6397 23.2177 14.6414C23.5388 14.6497 23.8615 14.6447 24.1841 14.6447V14.638C24.5068 14.638 24.8278 14.6464 25.1505 14.6347L25.1472 14.638ZM32.2764 14.6347C32.4553 14.6297 32.5272 14.5143 32.5322 14.3404C32.5406 14.0361 32.477 13.8907 32.2764 13.8873C31.6578 13.8773 31.0392 13.8823 30.4205 13.894C30.2784 13.8957 30.2149 14.006 30.2015 14.1448C30.1664 14.526 30.255 14.6347 30.6429 14.6497C30.8903 14.6598 31.1378 14.6514 31.3853 14.6514V14.638C31.6829 14.638 31.9805 14.6447 32.2764 14.6364V14.6347ZM17.0449 13.8739C16.769 13.884 16.7021 13.9626 16.6988 14.2351C16.6954 14.5461 16.769 14.643 17.0766 14.6481C17.5949 14.6564 18.1149 14.6531 18.6332 14.638C18.8857 14.6313 18.9409 14.5578 18.9409 14.3237C18.9409 13.9575 18.874 13.8823 18.5262 13.8723C18.4025 13.8689 18.2788 13.8739 18.155 13.8739C18.0313 13.8739 17.9076 13.8739 17.7839 13.8739V13.8706C17.5364 13.8706 17.289 13.8639 17.0432 13.8723L17.0449 13.8739ZM13.808 13.8823C13.4752 13.8957 13.3148 14.1849 13.4585 14.5043C13.502 14.6012 13.5973 14.6514 13.6959 14.6514C14.2644 14.6497 14.8329 14.6414 15.3997 14.6313C15.5769 14.628 15.6588 14.5277 15.6689 14.3521C15.6923 13.9693 15.6104 13.8773 15.2141 13.8689C14.9917 13.8639 14.7693 13.8689 14.547 13.8689V13.8823C14.2995 13.8823 14.0521 13.8739 13.8063 13.884L13.808 13.8823ZM20.4055 13.8756C20.036 13.889 19.9674 13.9626 19.9825 14.317C19.9925 14.5494 20.0678 14.6364 20.2818 14.6598C20.3319 14.6648 20.3804 14.6681 20.4306 14.6681C20.8536 14.6631 21.2766 14.6664 21.6996 14.6464C21.9253 14.6363 21.9922 14.5126 21.9788 14.215C21.9688 13.9876 21.8885 13.889 21.6745 13.8806C21.4254 13.8706 21.1763 13.879 20.9272 13.879V13.8756C20.7533 13.8756 20.5777 13.8706 20.4038 13.8756H20.4055Z" fill="white"/>
<path d="M19.4768 25.697C18.5823 25.697 17.6895 25.697 16.795 25.697C16.6462 25.697 16.4957 25.6886 16.3485 25.7003C16.1228 25.7187 15.9757 25.8441 15.9172 26.0464C15.8537 26.2688 15.9473 26.4945 16.1429 26.6249C16.3435 26.7587 16.5659 26.7503 16.79 26.7503C18.0072 26.7503 19.2227 26.747 20.4399 26.7436C20.9866 26.742 21.5316 26.7319 22.0783 26.7302C22.3057 26.7302 22.5248 26.7018 22.7237 26.5865C22.9361 26.4627 23.0414 26.2788 23.0147 26.0297C22.9963 25.8692 22.9277 25.7371 22.7522 25.7187C22.5799 25.7003 22.4061 25.7003 22.2322 25.7003C21.3143 25.7003 20.3947 25.7003 19.4768 25.7003V25.697Z" fill="white"/>
<path d="M40.3221 25.6966C39.4995 25.6966 38.6786 25.6966 37.856 25.6966C37.7322 25.6966 37.6069 25.6899 37.4831 25.6983C37.1621 25.72 36.9314 25.9273 36.9297 26.1882C36.928 26.4105 37.132 26.6597 37.3828 26.7182C37.5015 26.7466 37.6302 26.7466 37.754 26.7466C39.4727 26.7483 41.1915 26.7483 42.9086 26.7466C43.0825 26.7466 43.2547 26.7416 43.4186 26.658C43.6493 26.5393 43.7914 26.3336 43.7613 26.133C43.7246 25.8856 43.5339 25.72 43.2346 25.7083C42.912 25.6966 42.5876 25.7033 42.2632 25.7033C41.6162 25.7033 40.9675 25.7033 40.3204 25.7033V25.6966H40.3221Z" fill="white"/>
<path d="M7.61913 25.7057C7.02057 25.7057 6.42201 25.699 5.82345 25.7073C5.41717 25.7123 5.19982 25.8929 5.20316 26.1905C5.20651 26.4881 5.42054 26.6854 5.80676 26.7339C5.93048 26.749 6.05588 26.7473 6.1796 26.7473C7.17776 26.7473 8.17423 26.7473 9.17239 26.744C9.39643 26.744 9.62047 26.744 9.83448 26.657C10.0869 26.5533 10.2341 26.3728 10.2224 26.1638C10.209 25.9213 10.01 25.7341 9.71243 25.7157C9.41482 25.699 9.11389 25.7073 8.81461 25.7073C8.41501 25.7073 8.01706 25.7073 7.61746 25.7073L7.61913 25.7057Z" fill="white"/>
<path d="M34.6333 3.06695C34.6333 2.91815 34.65 2.76766 34.6299 2.62053C34.5747 2.21759 34.3524 1.93669 33.9645 1.79959C33.8474 1.75779 33.7187 1.75445 33.6033 1.71097C33.3509 1.61567 33.1954 1.43511 33.1753 1.15757C33.1653 1.00876 33.1669 0.859951 33.1619 0.711147C33.1536 0.498808 33.0533 0.329953 32.8911 0.201212C32.6988 0.0490638 32.4831 0.0239706 32.2608 0.124288C32.0635 0.212902 31.9648 0.380106 31.9414 0.592444C31.9213 0.769672 31.9548 0.935185 32.0133 1.10405C32.0936 1.33813 32.1922 1.57222 32.2273 1.81298C32.2858 2.20756 32.5232 2.42825 32.8576 2.57706C32.9696 2.62722 33.09 2.66733 33.2104 2.69241C33.4127 2.73421 33.493 2.85962 33.5147 3.05691C33.5331 3.22912 33.5699 3.39967 33.62 3.56519C33.6719 3.73573 33.7822 3.86782 33.9544 3.94305C34.2537 4.07514 34.5898 3.90794 34.6299 3.58693C34.6516 3.41639 34.6333 3.24083 34.6333 3.06695Z" fill="white"/>
<path d="M31.8695 3.13354C31.8544 2.97805 31.8511 2.82758 31.826 2.68212C31.7575 2.26078 31.5568 1.908 31.1272 1.80267C30.6757 1.69232 30.537 1.39806 30.5018 0.996791C30.4918 0.873066 30.4985 0.747654 30.4818 0.625601C30.4299 0.239378 30.1173 -0.0297969 29.7762 0.0086581C29.4284 0.0471131 29.1442 0.388193 29.2261 0.761039C29.3331 1.24424 29.4803 1.72074 29.6592 2.1822C29.7729 2.4748 30.0755 2.6119 30.3664 2.68546C30.6841 2.76572 30.8212 2.93625 30.8279 3.25893C30.8312 3.40272 30.883 3.55154 30.9382 3.68864C31.0084 3.86419 31.2375 3.97621 31.4298 3.95447C31.6288 3.93107 31.7959 3.77891 31.8294 3.57326C31.8528 3.42613 31.8578 3.27733 31.8712 3.13521L31.8695 3.13354Z" fill="white"/>
<path d="M29.1395 3.08199C29.1128 2.93486 29.0861 2.71249 29.0326 2.49681C28.9439 2.13901 28.7651 1.84307 28.3755 1.7578C28.0127 1.67921 27.909 1.42507 27.8739 1.10573C27.8522 0.908438 27.8438 0.707816 27.8037 0.513869C27.7368 0.192853 27.4392 -0.024515 27.16 0.0189559C26.8925 0.0607548 26.6768 0.294846 26.6768 0.600814C26.6768 1.12915 26.7871 1.64077 26.9928 2.12731C27.1299 2.45167 27.4141 2.61218 27.7301 2.71082C27.9742 2.78606 28.1046 2.92149 28.1046 3.189C28.1046 3.33613 28.1364 3.48828 28.1832 3.62705C28.2584 3.85444 28.4875 4.00157 28.6965 3.98318C28.9155 3.96479 29.0827 3.78922 29.1162 3.53174C29.1312 3.40802 29.1295 3.28263 29.1379 3.08199H29.1395Z" fill="white"/>
<path d="M33.5947 26.7283C33.8923 26.7283 34.1932 26.7451 34.4892 26.7217C34.6932 26.7066 34.8687 26.5996 34.9473 26.3906C35.0593 26.0913 34.8754 25.7636 34.5594 25.7135C34.4374 25.6934 34.312 25.7001 34.1883 25.7001C33.69 25.7001 33.1917 25.6934 32.6952 25.7084C32.4093 25.7168 32.222 25.9141 32.207 26.1733C32.1919 26.4207 32.3641 26.6815 32.6266 26.7099C32.946 26.7451 33.272 26.7183 33.5947 26.7183C33.5947 26.7217 33.5947 26.725 33.5947 26.7283Z" fill="white"/>
<path d="M27.9341 25.7129C27.7869 25.7129 27.6381 25.7012 27.491 25.7162C27.267 25.7379 27.0797 25.9285 27.0479 26.1442C27.0178 26.3465 27.1616 26.5756 27.389 26.6559C27.7485 26.7829 28.1146 26.7829 28.4741 26.6559C28.6797 26.584 28.8018 26.3833 28.7734 26.1994C28.7366 25.9603 28.5711 25.7513 28.3755 25.7229C28.23 25.7028 28.0812 25.7062 27.9341 25.7012C27.9341 25.7045 27.9341 25.7095 27.9341 25.7129Z" fill="white"/>
<path d="M11.9576 25.7065C11.8589 25.7065 11.7603 25.7082 11.6617 25.7065C11.3708 25.6981 11.2503 25.9222 11.2085 26.1914C11.1751 26.4138 11.334 26.6278 11.5597 26.6813C11.8523 26.7498 12.1465 26.7465 12.4358 26.6645C12.6916 26.5926 12.827 26.3603 12.7852 26.0927C12.7485 25.862 12.5896 25.7249 12.3254 25.7082C12.2034 25.6998 12.0796 25.7082 11.9559 25.7082L11.9576 25.7065Z" fill="white"/>
<path d="M19.6841 16.9554C20.2993 16.9939 20.7407 17.4119 20.7424 17.992C20.7424 18.594 20.2191 19.1541 19.6807 19.129C19.0654 19.0989 18.5605 18.5956 18.5755 18.0288C18.614 17.4537 19.0487 16.917 19.6857 16.9554H19.6841ZM19.975 17.8917C19.9465 17.7095 19.7743 17.5941 19.5938 17.6426C19.4617 17.6777 19.3798 17.7647 19.3864 17.9068C19.3948 18.0907 19.562 18.2311 19.7359 18.2094C19.8863 18.191 20.0001 18.0405 19.9766 17.8917H19.975Z" fill="white"/>
<path d="M13.4427 19.136C12.891 19.136 12.366 18.6043 12.3509 18.0258C12.3359 17.4574 12.794 16.9742 13.3658 16.9574C13.9978 16.9374 14.4342 17.3754 14.4359 18.0275C14.4359 18.5876 13.946 19.136 13.4427 19.1377V19.136ZM13.6986 17.9188C13.7203 17.7516 13.6049 17.6296 13.4394 17.6413C13.2956 17.6513 13.2103 17.7316 13.1953 17.8687C13.1802 18.0091 13.3324 18.1629 13.4711 18.1646C13.6166 18.1462 13.6818 18.0509 13.6986 17.9172V17.9188Z" fill="white"/>
<path d="M16.3816 16.9588C16.9567 16.8802 17.4098 17.1795 17.5586 17.7346C17.6505 18.0757 17.5252 18.3666 17.3429 18.6391C17.0687 19.0487 16.6089 19.221 16.1893 19.0805C15.7596 18.9351 15.4753 18.5304 15.4737 18.0589C15.4703 17.5239 15.8816 17.0274 16.3832 16.9588H16.3816ZM16.8397 17.9386C16.8714 17.7981 16.7661 17.6543 16.6123 17.6326C16.4501 17.6092 16.2996 17.6895 16.2662 17.8182C16.2244 17.9754 16.3548 18.1559 16.5287 18.1777C16.6624 18.1961 16.8062 18.0857 16.8397 17.9386Z" fill="white"/>
<path d="M23.8006 18.0185C23.8089 18.6154 23.3659 19.127 22.8375 19.1337C22.2423 19.1404 21.7692 18.6656 21.7524 18.0436C21.7357 17.4367 22.1537 16.9635 22.7255 16.9451C23.3375 16.925 23.7922 17.3781 23.8023 18.0185H23.8006ZM22.8058 18.179C22.9345 18.2024 23.0783 18.057 23.0783 17.9031C23.0783 17.7543 22.9496 17.6306 22.7957 17.6406C22.657 17.649 22.5784 17.7293 22.5583 17.8714C22.555 18.0168 22.6637 18.1539 22.8075 18.179H22.8058Z" fill="white"/>
<path d="M25.764 16.9585C26.3692 16.9501 26.8307 17.3614 26.8507 17.9482C26.8708 18.5552 26.3191 19.142 25.7439 19.1236C25.1688 19.1052 24.7641 18.6538 24.7591 18.0268C24.7156 17.557 25.1119 16.9668 25.764 16.9568V16.9585ZM25.8058 18.1857C25.9429 18.2007 26.0917 18.072 26.1067 17.9249C26.1218 17.7777 26.0014 17.649 25.8392 17.6373C25.677 17.6256 25.5316 17.7443 25.5349 17.8847C25.5383 18.0302 25.6636 18.1706 25.8058 18.1873V18.1857Z" fill="white"/>
<path d="M27.7409 18.0238C27.7393 17.4403 28.1974 16.9588 28.7558 16.9555C29.3861 16.9521 29.8125 17.3868 29.8225 18.0456C29.8325 18.6057 29.3493 19.1223 28.811 19.1307C28.2258 19.139 27.7426 18.6408 27.7393 18.0238H27.7409ZM28.5351 17.8918C28.5385 18.0439 28.6755 18.1777 28.8143 18.1693C28.9514 18.1609 29.0919 18.0038 29.0785 17.87C29.0651 17.7379 28.908 17.6276 28.7525 17.6426C28.6204 17.6727 28.5318 17.7446 28.5368 17.8918H28.5351Z" fill="white"/>
<path d="M30.9074 18.0387C30.8957 17.4352 31.389 16.9453 31.9959 16.957C32.5911 16.9704 33.0074 17.3649 33.0158 17.9284C33.0258 18.5621 32.5058 19.1339 31.9257 19.1272C31.3823 19.1205 30.9208 18.6273 30.9091 18.0387H30.9074ZM32.0093 18.1859C32.1597 18.1926 32.23 18.0906 32.2584 17.9635C32.2918 17.8097 32.1848 17.6626 32.036 17.6341C31.8839 17.604 31.7083 17.7127 31.6949 17.8431C31.6782 18.0053 31.832 18.1792 32.0109 18.1876L32.0093 18.1859Z" fill="white"/>
<path d="M7.35126 16.9654C7.99496 16.9771 8.37615 17.3884 8.37615 18.0705C8.37615 18.6457 7.96819 19.1138 7.45322 19.1272C6.86135 19.1439 6.30294 18.5938 6.30963 17.9986C6.31632 17.4235 6.78781 16.9553 7.35126 16.9654ZM7.42983 18.1876C7.55857 18.1876 7.68731 18.0204 7.67393 17.8699C7.66056 17.7244 7.50174 17.6007 7.3546 17.6375C7.22753 17.6692 7.13558 17.7462 7.14394 17.8966C7.16065 18.0471 7.29942 18.1876 7.42983 18.1859V18.1876Z" fill="white"/>
<path d="M11.3788 18.037C11.362 18.6205 10.8889 19.1438 10.3789 19.1405C9.76198 19.1371 9.30556 18.6255 9.31559 17.9501C9.32395 17.3799 9.74694 16.9586 10.3037 16.9653C10.9457 16.972 11.3955 17.4217 11.3788 18.037ZM10.3304 18.1958C10.4909 18.2109 10.6649 18.0353 10.6498 17.8732C10.6364 17.7411 10.4809 17.6157 10.3388 17.6224C10.185 17.6307 10.0496 17.7611 10.0563 17.8966C10.0629 18.037 10.195 18.1808 10.3304 18.1942V18.1958Z" fill="white"/>
</svg>
