<svg width="189" height="48" viewBox="0 0 189 48" fill="none" xmlns="http://www.w3.org/2000/svg">
<path d="M0.20854 15.9259L3.93454 17.5594V44.8811L1.14994 45.699V47.23H24.6594V45.5965L21.1408 44.8811C21.6721 41.5536 22.8372 31.4405 19.2627 22.1569C18.1838 19.37 16.7926 16.8953 15.3106 14.7329C15.3456 14.0292 15.4761 13.2089 15.8792 13.0318C16.6039 12.6986 17.6385 12.6986 17.6385 12.4213C17.6385 12.144 17.4824 11.5335 15.7767 11.4426C14.558 11.375 13.5793 11.6617 13.1109 11.8388C10.1003 8.20363 7.14091 5.85944 5.91056 4.96231L5.38626 4.66171H5.24412V0.770264H4.46583V4.66171H3.93454V14.8657L2.96285 14.3391C2.96285 14.3391 2.02377 14.2365 1.25014 14.381C0.471854 14.5185 -0.0477833 14.8937 0.0034813 15.362C0.0547459 15.8304 0.20854 15.9259 0.20854 15.9259ZM16.9954 26.8663C18.4424 36.7883 16.9954 43.7113 16.9954 43.7113H12.9058C13.069 42.728 14.6255 36.3432 13.3532 25.862C11.9808 14.5977 7.52773 7.89371 7.52773 7.89371C7.52773 7.89371 15.3176 15.3481 16.9954 26.8663ZM6.71914 10.2682C7.26441 11.4985 7.97046 13.2532 8.6905 15.5205H6.71914V10.2682ZM6.71914 17.2542H9.21713C9.29636 17.5221 9.37791 17.8041 9.45481 18.086H6.71914V17.2542ZM6.71914 18.643H9.59695C9.71812 19.0974 9.84162 19.5704 9.95813 20.0574C9.96046 20.0784 9.96279 20.1017 9.97211 20.1203H6.71914V18.643ZM6.71914 20.6772H10.0956C10.2098 21.1689 10.3053 21.6606 10.4055 22.1569H6.71914V20.6772ZM6.71914 22.7115H10.5104C10.6036 23.2078 10.6852 23.6949 10.7621 24.1959H6.71914V22.7115ZM6.71914 24.7458H10.8436C10.8646 24.8972 10.8925 25.0604 10.9089 25.2142H6.71914V24.7458ZM6.71914 26.9525H11.1302C11.1629 27.2065 11.1908 27.4605 11.2118 27.7075H6.71914V26.9525ZM6.71914 28.2644H11.2654C11.3097 28.7607 11.3493 29.2571 11.3866 29.7441H6.71914V28.2644ZM6.71914 30.2987H11.4308C11.4588 30.7997 11.4891 31.296 11.5124 31.783H6.71914V30.2987ZM6.71914 32.3329H11.538C11.5613 32.8386 11.5753 33.3349 11.5916 33.8173H6.71914V32.3329ZM6.71914 34.3719H11.6056C11.6079 34.563 11.6079 34.754 11.6126 34.9404H6.71914V34.3719ZM6.71914 36.6788H11.6219C11.6219 36.8978 11.6196 37.1122 11.6196 37.3219H6.71914V36.6788ZM6.71914 37.8812H11.6103C11.6079 38.4008 11.5916 38.8971 11.5776 39.3609H6.71914V37.8812ZM6.71914 39.9154H11.5613C11.538 40.456 11.517 40.957 11.4961 41.3998H6.71914V39.9154ZM6.71914 41.9544H11.4634C11.4238 42.6138 11.3866 43.1148 11.3586 43.4341H6.71914V41.9544Z" fill="#BEA355"/>
<path d="M48.1776 8.41608V10.4102H44.6063V21.106H42.5215V10.4102H38.9321V8.41608H48.1776ZM57.0829 21.106L56.1946 18.5499H50.7923L49.904 21.106H47.638L52.2426 8.41608H54.7443L59.3308 21.106H57.0829ZM51.4812 16.592H55.5057L53.4934 10.8634L51.4812 16.592ZM70.2671 21.106H67.7836L62.7801 15.0692V21.106H60.6954V8.41608H62.7801V14.1084L67.6023 8.41608H70.0859L64.9555 14.5979L70.2671 21.106ZM73.7032 19.1118H79.323V21.106H71.6184V8.41608H79.2323V10.4102H73.7032V13.7096H78.7791V15.6856H73.7032V19.1118ZM96.3686 19.4381C95.0996 20.7071 93.5466 21.3416 91.7096 21.3416C89.8726 21.3416 88.3136 20.7071 87.0325 19.4381C85.7635 18.1571 85.129 16.598 85.129 14.761C85.129 12.924 85.7635 11.371 87.0325 10.102C88.3136 8.82095 89.8726 8.18041 91.7096 8.18041C93.5466 8.18041 95.0996 8.82095 96.3686 10.102C97.6497 11.371 98.2902 12.924 98.2902 14.761C98.2902 16.598 97.6497 18.1571 96.3686 19.4381ZM88.5009 18.0241C89.3711 18.8822 90.4407 19.3112 91.7096 19.3112C92.9786 19.3112 94.0422 18.8822 94.9002 18.0241C95.7704 17.154 96.2055 16.0663 96.2055 14.761C96.2055 13.4558 95.7704 12.3741 94.9002 11.516C94.0422 10.6459 92.9786 10.2108 91.7096 10.2108C90.4407 10.2108 89.3711 10.6459 88.5009 11.516C87.6428 12.3741 87.2138 13.4558 87.2138 14.761C87.2138 16.0663 87.6428 17.154 88.5009 18.0241ZM107.625 10.4102H102.277V13.9634H107.443V15.9575H102.277V21.106H100.192V8.41608H107.625V10.4102ZM117.007 10.4102H111.66V13.9634H116.826V15.9575H111.66V21.106H109.575V8.41608H117.007V10.4102ZM133.243 8.41608L128.819 16.0663V21.106H126.735V16.0663L122.311 8.41608H124.686L127.786 14.0359L130.868 8.41608H133.243ZM141.245 21.106L140.357 18.5499H134.955L134.066 21.106H131.8L136.405 8.41608H138.907L143.493 21.106H141.245ZM135.644 16.592H139.668L137.656 10.8634L135.644 16.592ZM150.38 21.3416C148.471 21.3416 146.888 20.7132 145.631 19.4563C144.374 18.1873 143.745 16.6222 143.745 14.761C143.745 12.8998 144.374 11.3408 145.631 10.0839C146.888 8.81491 148.471 8.18041 150.38 8.18041C151.528 8.18041 152.586 8.45234 153.553 8.99619C154.532 9.54004 155.293 10.2773 155.837 11.2079L154.024 12.2593C153.686 11.6309 153.19 11.1353 152.538 10.7728C151.897 10.3981 151.178 10.2108 150.38 10.2108C149.027 10.2108 147.927 10.6398 147.081 11.4979C146.247 12.356 145.83 13.4437 145.83 14.761C145.83 16.0783 146.247 17.1661 147.081 18.0241C147.927 18.8822 149.027 19.3112 150.38 19.3112C151.178 19.3112 151.903 19.13 152.556 18.7674C153.208 18.3927 153.698 17.8912 154.024 17.2627L155.837 18.2961C155.305 19.2266 154.55 19.9699 153.571 20.5258C152.604 21.0697 151.541 21.3416 150.38 21.3416ZM165.092 8.41608H167.177V21.106H165.092V15.6131H159.654V21.106H157.569V8.41608H159.654V13.6189H165.092V8.41608ZM177.962 8.41608V10.4102H174.391V21.106H172.306V10.4102H168.716V8.41608H177.962ZM183.373 21.3416C182.153 21.3416 181.113 21.0637 180.255 20.5077C179.409 19.9518 178.817 19.1904 178.479 18.2235L180.273 17.1721C180.781 18.5982 181.833 19.3112 183.428 19.3112C184.213 19.3112 184.8 19.1602 185.186 18.858C185.585 18.5438 185.785 18.1389 185.785 17.6434C185.785 17.1238 185.573 16.731 185.15 16.4651C184.727 16.1871 183.978 15.885 182.902 15.5587C182.298 15.3774 181.808 15.2082 181.434 15.0511C181.059 14.894 180.66 14.6764 180.237 14.3985C179.826 14.1084 179.518 13.7519 179.313 13.3289C179.107 12.9059 179.004 12.4104 179.004 11.8423C179.004 10.7184 179.403 9.8301 180.201 9.17747C180.999 8.51277 181.959 8.18041 183.083 8.18041C184.099 8.18041 184.987 8.42817 185.748 8.92368C186.51 9.41919 187.096 10.102 187.507 10.9722L185.748 11.9874C185.216 10.803 184.328 10.2108 183.083 10.2108C182.479 10.2108 181.996 10.3558 181.633 10.6459C181.271 10.9238 181.089 11.3045 181.089 11.788C181.089 12.2593 181.271 12.634 181.633 12.9119C182.008 13.1778 182.679 13.4618 183.645 13.764C184.129 13.9211 184.479 14.0419 184.697 14.1265C184.926 14.199 185.241 14.3199 185.639 14.4891C186.05 14.6583 186.359 14.8275 186.564 14.9967C186.769 15.1659 186.987 15.3774 187.217 15.6312C187.458 15.885 187.628 16.175 187.724 16.5013C187.821 16.8277 187.869 17.1963 187.869 17.6072C187.869 18.7553 187.452 19.6678 186.618 20.3446C185.797 21.0093 184.715 21.3416 183.373 21.3416Z" fill="white"/>
<path d="M44.1773 33.4145L41.8816 37.2746V39.8943H41.0207V37.2653L38.7342 33.4145H39.6969L41.4557 36.4507L43.2146 33.4145H44.1773ZM56.1436 39.8943L55.616 38.441H52.7001L52.1724 39.8943H51.256L53.672 33.4145H54.644L57.0601 39.8943H56.1436ZM52.9963 37.6356H55.3198L54.1534 34.442L52.9963 37.6356ZM68.4108 40.0146C67.4295 40.0146 66.618 39.6906 65.9762 39.0427C65.3406 38.3947 65.0227 37.5986 65.0227 36.6544C65.0227 35.7102 65.3406 34.9141 65.9762 34.2661C66.618 33.6181 67.4295 33.2941 68.4108 33.2941C69.0032 33.2941 69.5463 33.436 70.04 33.7199C70.5399 34.0038 70.9287 34.3864 71.2064 34.8678L70.4566 35.3029C70.2714 34.9449 69.9937 34.661 69.6234 34.4512C69.2593 34.2352 68.8551 34.1272 68.4108 34.1272C67.6641 34.1272 67.0531 34.3679 66.5779 34.8493C66.1089 35.3306 65.8744 35.9323 65.8744 36.6544C65.8744 37.3702 66.1089 37.9688 66.5779 38.4502C67.0531 38.9316 67.6641 39.1722 68.4108 39.1722C68.8551 39.1722 69.2593 39.0673 69.6234 38.8575C69.9937 38.6415 70.2714 38.3576 70.4566 38.0059L71.2064 38.4317C70.9348 38.9131 70.5491 39.2988 70.0493 39.5888C69.5494 39.8727 69.0032 40.0146 68.4108 40.0146ZM83.9654 33.4145H84.8171V39.8943H83.9654V36.9784H80.8181V39.8943H79.9572V33.4145H80.8181V36.1638H83.9654V33.4145ZM98.1267 33.4145V34.2291H96.2105V39.8943H95.3589V34.2291H93.4519V33.4145H98.1267ZM120.686 39.8943L119.233 37.4134H117.705V39.8943H116.845V33.4145H119.436C119.992 33.4145 120.467 33.6119 120.862 34.0069C121.257 34.3957 121.454 34.8678 121.454 35.4232C121.454 35.8428 121.328 36.2255 121.075 36.5711C120.828 36.9166 120.507 37.1604 120.112 37.3024L121.64 39.8943H120.686ZM117.705 34.2198V36.6359H119.436C119.757 36.6359 120.029 36.5186 120.251 36.2841C120.479 36.0434 120.594 35.7564 120.594 35.4232C120.594 35.09 120.479 34.8061 120.251 34.5716C120.029 34.3371 119.757 34.2198 119.436 34.2198H117.705ZM131.14 39.0797H134.149V39.8943H130.279V33.4145H134.102V34.2291H131.14V36.2193H133.871V37.0246H131.14V39.0797ZM146.991 33.4145H147.851V39.8943H147.157L143.825 35.0529V39.8943H142.964V33.4145H143.658L146.991 38.2466V33.4145ZM161.16 33.4145V34.2291H159.244V39.8943H158.393V34.2291H156.486V33.4145H161.16ZM173.586 39.8943L173.058 38.441H170.142L169.614 39.8943H168.698L171.114 33.4145H172.086L174.502 39.8943H173.586ZM170.438 37.6356H172.762L171.595 34.442L170.438 37.6356ZM183.903 39.0797H186.699V39.8943H183.042V33.4145H183.903V39.0797Z" fill="white"/>
</svg>
