<svg width="194" height="54" viewBox="0 0 194 54" fill="none" xmlns="http://www.w3.org/2000/svg">
<path d="M48.6034 17.8378C48.6034 19.0552 49.1773 19.2987 50.0469 19.8552H43.8731C44.7079 19.3334 45.3165 19.0726 45.3165 17.8378V9.8728C45.3165 9.52499 45.3339 8.72501 45.0557 8.46414C44.9339 8.34241 44.7253 8.32502 44.5513 8.32502C42.0644 8.30763 41.8384 10.8119 41.1949 10.8119L41.5949 7.68155H48.6034V17.8378ZM52.3251 7.68155L52.7251 10.8119C52.0816 10.8119 51.8555 8.30763 49.3686 8.32502C49.2121 8.32502 48.986 8.34241 48.8643 8.46414C48.6382 8.67283 48.6034 9.24673 48.6034 9.62933V7.68155H52.3251ZM61.2301 18.3074C61.6823 19.3508 62.3953 19.8552 62.8649 19.8552H60.0823C58.6911 19.8552 58.0476 19.316 57.5607 18.1161L56.4129 15.4205H53.6651L53.2999 16.3596C53.0043 17.4726 53.2999 18.7248 54.3781 19.3334L55.2825 19.8552H51.213L55.9607 7.68155H56.6216L61.2301 18.3074ZM53.8912 14.7944H56.1346L54.952 12.0293L53.8912 14.7944ZM69.0539 19.8552C69.8538 19.6117 70.3582 19.1943 69.993 18.4813C69.593 17.7161 69.2625 17.2291 68.793 16.4987C68.4452 15.9248 68.08 15.3683 67.7148 14.7944V18.2378C67.7148 18.3074 67.7321 18.3769 67.7321 18.4465V19.8552H66.2018C66.1496 19.8552 66.0974 19.8378 66.0626 19.8378C66.0105 19.8378 65.9757 19.8552 65.9409 19.8552H62.9323C63.8192 19.4552 64.4105 19.3334 64.4105 18.2378V9.35108C64.3409 8.3598 63.9583 7.90764 63.2627 7.68155H67.7148V13.5597L70.8799 10.0989C71.0364 9.92498 71.1408 9.6989 71.1929 9.49021C71.2973 9.05543 71.2451 8.44675 70.7929 8.20328L69.7669 7.68155H73.9581L69.5234 12.5684L74.0798 19.8552H69.0539ZM83.743 16.8465H84.0561L83.5517 19.8552H77.2736C76.0737 19.7856 75.4998 18.6726 75.4998 17.6639V9.6989C75.4998 9.19456 75.2911 8.48153 74.8563 8.18589L74.0563 7.68155H83.03L83.1517 10.7597C82.8909 9.83802 82.2648 8.23806 79.5866 8.32502C78.6997 8.34241 78.7866 9.10761 78.7866 9.76846V13.4727C79.8301 13.4553 80.8909 12.6727 80.8909 11.6119V11.3336H81.3953V16.2379H80.8909V15.9596C80.8909 14.8988 79.8301 14.1162 78.7866 14.0988V17.7683C78.7866 19.4204 79.0301 19.2117 80.5605 19.2117C82.1605 19.2117 83.1691 18.0639 83.743 16.8465ZM101.239 9.14239C102.647 10.2902 103.326 11.9075 103.308 13.6814C103.274 15.3683 102.717 17.0031 101.447 18.2204C100.404 19.2465 98.978 19.8552 97.465 19.8552C93.952 19.8552 91.1173 17.4726 91.0825 13.8553C91.0477 10.3076 93.3781 7.82068 96.8563 7.68155C98.4389 7.61199 100.039 8.15111 101.239 9.14239ZM99.1171 17.2465C99.4475 16.0987 99.5171 14.777 99.4997 13.5945C99.4823 12.1684 99.0128 8.77718 97.2563 8.37719C97.1345 8.34241 97.0128 8.32502 96.8911 8.34241C95.952 8.34241 95.465 9.52499 95.2389 10.2728C94.9085 11.4206 94.8216 12.7597 94.8563 13.9597C94.9259 15.4379 95.3954 19.2117 97.465 19.2117C97.5867 19.1943 97.7084 19.1769 97.8302 19.1421C98.5606 18.8813 98.9258 17.9074 99.1171 17.2465ZM108.662 8.32502C107.88 8.34241 107.88 8.96848 107.88 9.57716V13.4727C108.888 13.4379 109.984 12.7075 109.984 11.6119V11.3336H110.488V16.2379H109.984V15.9596C109.984 14.8988 108.923 14.1162 107.88 14.0988V17.6465C107.88 18.6726 107.288 19.7856 106.106 19.8552H104.576V9.6989C104.576 9.29891 104.489 8.88152 104.262 8.53371C104.176 8.42936 104.054 8.27284 103.932 8.18589L103.132 7.68155H107.88H112.123L112.245 10.7597C111.984 9.83802 111.358 8.23806 108.662 8.32502ZM117.816 8.32502C117.034 8.34241 117.034 8.96848 117.034 9.57716V13.4727C118.042 13.4379 119.138 12.7075 119.138 11.6119V11.3336H119.642V16.2379H119.138V15.9596C119.138 14.8988 118.077 14.1162 117.034 14.0988V17.6465C117.034 18.6726 116.442 19.7856 115.26 19.8552H113.73V9.6989C113.73 9.29891 113.643 8.88152 113.416 8.53371C113.33 8.42936 113.208 8.27284 113.086 8.18589L112.286 7.68155H117.034H121.277L121.399 10.7597C121.138 9.83802 120.512 8.23806 117.816 8.32502ZM135.856 17.8378C135.856 18.3422 136.048 19.0552 136.482 19.3334L137.3 19.8552H131.126C131.926 19.3334 132.569 19.09 132.569 17.8378V14.8466L129.213 8.96848C128.709 8.08154 128.361 7.89025 127.578 7.68155H130.361C131.613 7.68155 132.291 7.9772 132.865 9.02065L135.456 13.6118C135.891 12.7771 136.291 11.9597 136.726 11.1249C137.352 9.82063 137.421 8.09894 136.03 7.68155H139.282L135.856 14.3423V17.8378ZM148.286 18.3074C148.739 19.3508 149.452 19.8552 149.921 19.8552H147.139C145.747 19.8552 145.104 19.316 144.617 18.1161L143.469 15.4205H140.721L140.356 16.3596C140.061 17.4726 140.356 18.7248 141.434 19.3334L142.339 19.8552H138.269L143.017 7.68155H143.678L148.286 18.3074ZM140.947 14.7944H143.191L142.008 12.0293L140.947 14.7944ZM156.015 19.1769C156.989 19.1943 157.876 18.4813 158.207 17.6291L158.763 16.1509V19.2291C157.685 19.6986 156.659 19.8552 155.476 19.8552C151.424 19.8552 148.503 17.5422 148.503 13.664C148.503 10.0293 151.076 7.68155 155.024 7.68155C156.798 7.68155 158.92 8.37719 159.389 10.2032L159.424 10.3597L157.25 12.4467C157.337 12.1162 158.781 8.34241 155.268 8.34241C150.937 8.34241 150.016 19.003 156.015 19.1769ZM171.361 17.8378C171.361 18.29 171.57 19.09 172.004 19.3334L172.804 19.8552H166.648L167.448 19.3334C167.796 19.1247 168.039 18.4813 168.074 18.1161V14.0988H164.248V17.8378C164.248 18.3422 164.422 19.0378 164.874 19.3334L165.692 19.8552H159.5L160.3 19.3334C160.422 19.2639 160.544 19.1074 160.631 19.003C160.857 18.6552 160.944 18.2378 160.944 17.8378V9.6989C160.944 9.29891 160.857 8.88152 160.631 8.53371C160.544 8.42936 160.422 8.27284 160.3 8.18589L159.5 7.68155H165.692L164.874 8.18589C164.422 8.56849 164.248 9.125 164.248 9.6989V13.4727H168.074V9.42064C168.022 9.00326 167.796 8.44675 167.448 8.18589L166.648 7.68155H172.804L172.004 8.18589C171.57 8.49893 171.361 9.19456 171.361 9.6989V17.8378ZM180.19 17.8378C180.19 19.0552 180.764 19.2987 181.633 19.8552H175.459C176.294 19.3334 176.903 19.0726 176.903 17.8378V9.8728C176.903 9.52499 176.92 8.72501 176.642 8.46414C176.52 8.34241 176.312 8.32502 176.138 8.32502C173.651 8.30763 173.425 10.8119 172.781 10.8119L173.181 7.68155H180.19V17.8378ZM183.911 7.68155L184.311 10.8119C183.668 10.8119 183.442 8.30763 180.955 8.32502C180.798 8.32502 180.572 8.34241 180.451 8.46414C180.225 8.67283 180.19 9.24673 180.19 9.62933V7.68155H183.911ZM187.913 9.78585C187.913 12.0119 193.461 11.751 193.478 16.4639C193.339 18.8639 191.531 19.8552 189.2 19.8552C187.461 19.8552 186.452 19.2117 185.948 19.2117C185.67 19.2117 185.235 19.4378 185.235 19.8552H184.992V15.4901H185.2C185.339 17.49 187.635 19.1943 189.235 19.1943C190.087 19.1943 190.731 18.7248 190.783 17.5944C190.904 14.864 184.852 15.4901 185.079 10.9163C185.183 8.67283 187.113 7.68155 189.061 7.68155C190.904 7.68155 192.765 8.56849 193.165 10.1511L193.2 10.3076L191.183 12.151L191.026 12.0293C191.478 11.5075 191.513 10.6554 191.252 9.8902C190.974 9.05543 189.931 8.3598 189.078 8.3598C188.435 8.3598 187.913 8.75979 187.913 9.78585Z" fill="black"/>
<path d="M46.4636 33.2264L44.0959 37.2076V39.9095H43.208V37.1981L40.8498 33.2264H41.8427L43.6567 36.3579L45.4707 33.2264H46.4636ZM58.8053 39.9095L58.2611 38.4106H55.2537L54.7095 39.9095H53.7644L56.2562 33.2264H57.2587L59.7505 39.9095H58.8053ZM55.5593 37.58H57.9556L56.7527 34.2861L55.5593 37.58ZM71.4573 40.0336C70.4452 40.0336 69.6083 39.6994 68.9463 39.0311C68.2907 38.3628 67.963 37.5418 67.963 36.5679C67.963 35.5941 68.2907 34.7731 68.9463 34.1047C69.6083 33.4364 70.4452 33.1023 71.4573 33.1023C72.0683 33.1023 72.6284 33.2487 73.1376 33.5415C73.6531 33.8342 74.0541 34.2289 74.3405 34.7253L73.5672 35.174C73.3763 34.8049 73.0898 34.5121 72.7079 34.2957C72.3324 34.0729 71.9155 33.9615 71.4573 33.9615C70.6871 33.9615 70.057 34.2098 69.5669 34.7062C69.0832 35.2027 68.8413 35.8233 68.8413 36.5679C68.8413 37.3063 69.0832 37.9237 69.5669 38.4201C70.057 38.9166 70.6871 39.1648 71.4573 39.1648C71.9155 39.1648 72.3324 39.0566 72.7079 38.8402C73.0898 38.6174 73.3763 38.3246 73.5672 37.9618L74.3405 38.401C74.0605 38.8975 73.6627 39.2953 73.1471 39.5944C72.6316 39.8872 72.0683 40.0336 71.4573 40.0336ZM87.4998 33.2264H88.3782V39.9095H87.4998V36.9021H84.2537V39.9095H83.3658V33.2264H84.2537V36.0619H87.4998V33.2264ZM102.105 33.2264V34.0666H100.129V39.9095H99.2506V34.0666H97.2839V33.2264H102.105ZM125.372 39.9095L123.873 37.3508H122.298V39.9095H121.41V33.2264H124.083C124.656 33.2264 125.146 33.4301 125.554 33.8374C125.961 34.2384 126.165 34.7253 126.165 35.2982C126.165 35.731 126.034 36.1256 125.773 36.482C125.519 36.8384 125.188 37.0899 124.78 37.2362L126.356 39.9095H125.372ZM122.298 34.057V36.5488H124.083C124.414 36.5488 124.694 36.4279 124.924 36.186C125.159 35.9378 125.277 35.6419 125.277 35.2982C125.277 34.9545 125.159 34.6617 124.924 34.4198C124.694 34.1779 124.414 34.057 124.083 34.057H122.298ZM136.154 39.0693H139.257V39.9095H135.266V33.2264H139.209V34.0666H136.154V36.1192H138.971V36.9498H136.154V39.0693ZM152.502 33.2264H153.39V39.9095H152.674L149.237 34.9163V39.9095H148.349V33.2264H149.065L152.502 38.2101V33.2264ZM167.116 33.2264V34.0666H165.14V39.9095H164.262V34.0666H162.295V33.2264H167.116ZM179.931 39.9095L179.387 38.4106H176.38L175.835 39.9095H174.89L177.382 33.2264H178.384L180.876 39.9095H179.931ZM176.685 37.58H179.081L177.878 34.2861L176.685 37.58ZM190.572 39.0693H193.456V39.9095H189.684V33.2264H190.572V39.0693Z" fill="black"/>
<path d="M0.265863 18.672L4.10874 20.4708V50.5582L1.2368 51.4589V53.1448H25.4837V51.346L21.8547 50.5582C22.4027 46.8938 23.6043 35.757 19.9177 25.5337C18.8049 22.4647 17.3702 19.7395 15.8417 17.3582C15.8777 16.5832 16.0123 15.6799 16.4281 15.4849C17.1755 15.118 18.2426 15.118 18.2426 14.8126C18.2426 14.5072 18.0815 13.8349 16.3223 13.7349C15.0654 13.6604 14.056 13.9761 13.5729 14.1711C10.4679 10.168 7.41568 7.58651 6.14674 6.59857L5.606 6.26754H5.4594V1.98218H4.65669V6.26754H4.10874V17.5044L3.10656 16.9245C3.10656 16.9245 2.13803 16.8116 1.34014 16.9707C0.537436 17.1221 0.00149914 17.5352 0.0543718 18.051C0.107244 18.5668 0.265863 18.672 0.265863 18.672ZM17.5792 30.7198C19.0717 41.6462 17.5792 49.27 17.5792 49.27H13.3614C13.5297 48.1871 15.1351 41.156 13.8229 29.6138C12.4073 17.2093 7.81463 9.8267 7.81463 9.8267C7.81463 9.8267 15.8489 18.0356 17.5792 30.7198ZM6.98068 12.4415C7.54306 13.7964 8.27126 15.7287 9.01388 18.2255H6.98068V12.4415ZM6.98068 20.1347H9.55702C9.63874 20.4298 9.72285 20.7403 9.80216 21.0508H6.98068V20.1347ZM6.98068 21.6641H9.94876C10.0737 22.1644 10.2011 22.6854 10.3213 23.2217C10.3237 23.2448 10.3261 23.2704 10.3357 23.291H6.98068V21.6641ZM6.98068 23.9042H10.4631C10.5808 24.4457 10.6794 24.9871 10.7827 25.5337H6.98068V23.9042ZM6.98068 26.1444H10.8909C10.987 26.691 11.0711 27.2273 11.1504 27.779H6.98068V26.1444ZM6.98068 28.3846H11.2345C11.2562 28.5514 11.285 28.7311 11.3018 28.9004H6.98068V28.3846ZM6.98068 30.8147H11.5301C11.5638 31.0944 11.5926 31.3741 11.6142 31.6461H6.98068V30.8147ZM6.98068 32.2594H11.6695C11.7152 32.806 11.756 33.3526 11.7945 33.8889H6.98068V32.2594ZM6.98068 34.4996H11.8402C11.869 35.0513 11.9002 35.5979 11.9243 36.1342H6.98068V34.4996ZM6.98068 36.7398H11.9507C11.9747 37.2966 11.9892 37.8432 12.006 38.3744H6.98068V36.7398ZM6.98068 38.9851H12.0204C12.0228 39.1956 12.0228 39.406 12.0276 39.6113H6.98068V38.9851ZM6.98068 41.5256H12.0372C12.0372 41.7668 12.0348 42.0029 12.0348 42.2338H6.98068V41.5256ZM6.98068 42.8497H12.0252C12.0228 43.4219 12.006 43.9685 11.9916 44.4791H6.98068V42.8497ZM6.98068 45.0899H11.9747C11.9507 45.6852 11.9291 46.2369 11.9075 46.7245H6.98068V45.0899ZM6.98068 47.3352H11.8738C11.8329 48.0614 11.7945 48.6131 11.7657 48.9646H6.98068V47.3352Z" fill="#BEA355"/>
</svg>
