<svg width="71" height="27" viewBox="0 0 71 27" fill="none" xmlns="http://www.w3.org/2000/svg">
<path d="M24.2982 3.02806C24.33 3.04144 24.3601 3.06319 24.3918 3.06486C25.8381 3.18692 25.6374 3.12505 25.6542 1.97809C25.6592 1.60692 25.6592 1.23406 25.6759 0.862887C25.6843 0.697363 25.711 0.52683 25.7612 0.367994C25.8364 0.13392 26.0956 -0.0265935 26.3096 0.0068457C26.5303 0.0402849 26.6824 0.177384 26.746 0.381363C26.7944 0.538527 26.8045 0.712407 26.8078 0.879603C26.8128 1.21734 26.7961 1.55509 26.7961 1.89449C26.7961 2.23223 26.7192 2.60507 26.8379 2.89767C26.9784 3.24042 27.4398 3.09496 27.7424 3.23373C28.2674 3.47449 28.7774 3.73197 29.2221 4.10314C30.0765 4.82041 30.9376 5.52932 31.7719 6.26999C32.0711 6.53583 32.3671 6.6579 32.7683 6.65455C34.121 6.64285 35.4736 6.67962 36.8262 6.66625C37.9581 6.65621 39.0365 6.83846 40.0882 7.27819C41.0245 7.66776 41.9942 7.97875 42.8118 8.60406C43.0542 8.78965 43.3151 8.76623 43.5809 8.77793C45.2696 8.8515 46.9549 8.97356 48.6352 9.16416C50.976 9.43 53.0843 10.2442 54.9435 11.6922C55.2211 11.9095 55.5036 12.0332 55.8664 12.0332C58.6402 12.0232 61.4123 12.0266 64.1861 12.0249C64.2864 12.0249 64.3884 12.0182 64.4887 12.0065C64.6843 11.9864 64.7947 11.8711 64.8014 11.6804C64.8164 11.2407 64.8181 10.801 64.8281 10.3629C64.8315 10.1957 64.8131 10.0118 64.9402 9.88309C64.9987 9.82457 65.1107 9.80118 65.201 9.79617C65.2511 9.79282 65.3247 9.84967 65.3531 9.89983C65.4969 10.1473 65.4434 10.4265 65.4484 10.6923C65.4752 12.2222 65.2779 12.0148 66.8144 12.0249C67.321 12.0282 67.8293 12.0165 68.3359 12.0282C68.5349 12.0332 68.7472 12.0449 68.9295 12.1135C69.4377 12.3074 69.5966 12.8241 69.2906 13.2671C69.1769 13.4327 69.0281 13.5748 68.881 13.7136C66.0253 16.4121 63.4505 19.3614 61.0763 22.488C60.7101 22.9712 60.2971 23.4193 59.9059 23.8824C59.5999 24.2436 59.207 24.3957 58.7372 24.3807C58.5015 24.3723 58.264 24.3807 58.0266 24.3807C52.1413 24.3773 46.256 24.3706 40.3724 24.3723C28.6704 24.3723 16.9683 24.3773 5.26798 24.3823C4.59084 24.3823 3.91704 24.374 3.24993 24.2235C1.99094 23.9376 0.961016 22.8006 0.88745 21.5099C0.837291 20.6338 0.880763 19.7527 0.880763 18.8732C0.880763 18.4703 1.08641 18.1526 1.36563 17.9035C1.64986 17.651 1.72343 17.3601 1.70504 17.004C1.68497 16.5994 1.69333 16.1931 1.69501 15.7868C1.69501 15.5845 1.68999 15.3788 1.71841 15.1799C1.78195 14.7485 2.04946 14.5128 2.48752 14.5579C3.46728 14.6582 4.44872 14.5763 5.42682 14.6214C5.81806 14.6398 6.13071 14.5362 6.44671 14.2854C7.95649 13.0899 9.48633 11.9162 10.7888 10.485C11.0295 10.2208 11.3238 10.0904 11.6498 9.98343C13.3904 9.41496 15.1576 8.97355 16.9934 8.86655C17.1623 8.85652 17.3295 8.82307 17.4984 8.81806C17.8327 8.80635 18.0718 8.65254 18.2357 8.36496C18.4698 7.95533 18.7189 7.5524 18.9463 7.13942C19.1268 6.81005 19.3827 6.65956 19.7655 6.66792C20.543 6.68464 21.3204 6.67294 22.0996 6.67127C22.235 6.67127 22.3704 6.67128 22.5059 6.66125C22.862 6.63115 22.9422 6.53919 22.9506 6.13458C22.9573 5.79684 22.9506 5.45742 22.9473 5.11969C22.9372 4.30879 22.9205 3.49623 22.9172 2.68533C22.9155 2.26901 23.0643 2.01821 23.3251 1.94966C23.5743 1.88278 23.8936 2.04998 24.0574 2.37267C24.1628 2.57832 24.2146 2.81071 24.2898 3.02974L24.2982 3.02806ZM6.21598 15.8537C6.44002 15.9891 6.60722 15.9122 6.76773 15.8938C7.40474 15.8236 8.03842 15.6881 8.67543 15.6714C9.99294 15.6363 11.3138 15.658 12.6313 15.6597C12.867 15.6597 13.1044 15.6647 13.3402 15.6931C13.5993 15.7232 13.688 16.0091 13.5291 16.2349C13.2917 16.5743 12.954 16.6846 12.5627 16.683C11.8187 16.6796 11.0747 16.6913 10.3307 16.6679C9.08005 16.6311 7.86119 16.7013 6.63063 17.0508C5.19609 17.4571 3.8 17.9436 2.41729 18.492C2.12136 18.609 1.98593 18.7963 1.98258 19.0973C1.9759 19.7059 1.96252 20.3144 1.97088 20.923C1.9759 21.3644 2.0712 21.4464 2.51594 21.443C3.53082 21.433 4.54402 21.4079 5.5589 21.4062C12.4925 21.3995 19.4261 21.3895 26.3597 21.3945C35.6943 21.3996 45.0288 21.4163 54.365 21.428C54.5005 21.428 54.6359 21.4196 54.7696 21.4313C54.9853 21.4514 55.1642 21.5467 55.2194 21.7707C55.2796 22.0098 55.1124 22.1553 54.9419 22.2606C54.8048 22.3442 54.6342 22.3977 54.472 22.4161C54.238 22.4429 53.9989 22.4295 53.7631 22.4295C37.0887 22.4261 20.4142 22.4211 3.73981 22.4178C3.43552 22.4178 3.13122 22.4245 2.82692 22.4378C2.72995 22.4429 2.6196 22.4663 2.59285 22.5866C2.56944 22.6937 2.62462 22.7772 2.71323 22.8324C3.0309 23.0364 3.37198 23.1651 3.7582 23.1635C4.33336 23.1635 4.90851 23.1768 5.48366 23.1768C23.0041 23.1768 40.5229 23.1818 58.0433 23.1768C59.4444 23.1768 59.0465 23.3992 59.9209 22.2071C61.7016 19.7761 63.5976 17.4454 65.6892 15.2735C66.2928 14.6465 66.9967 14.1148 67.4782 13.3741C67.4899 13.3574 67.4598 13.2855 67.4464 13.2839C66.572 13.2504 65.6976 13.1969 64.8231 13.1969C60.1567 13.1969 55.4886 13.2153 50.8221 13.2153C39.7956 13.2136 28.7707 13.2036 17.7441 13.1986C15.2746 13.1986 12.8068 13.2003 10.3374 13.212C10.0648 13.212 9.76722 13.1484 9.3693 13.4143C9.92271 13.4276 10.3223 13.4444 10.7236 13.4444C26.5186 13.4444 42.3136 13.4444 58.1085 13.4444C58.4463 13.4444 58.7857 13.4444 59.1234 13.4511C59.3291 13.4561 59.5631 13.4711 59.6233 13.7035C59.6768 13.9125 59.528 14.0847 59.3843 14.2335C59.2639 14.3589 59.1234 14.4492 58.9445 14.4559C58.7088 14.4643 58.4714 14.471 58.2356 14.471C45.925 14.4726 33.6127 14.4743 21.3021 14.476C17.2091 14.476 13.1178 14.4726 9.02487 14.476C8.72392 14.476 8.40458 14.3974 8.12703 14.5562C7.46326 14.9324 6.81956 15.3437 6.21765 15.857L6.21598 15.8537ZM16.0906 10.0553C16.0906 10.0871 16.0906 10.1205 16.0906 10.1523C16.547 10.1657 17.0051 10.1824 17.4616 10.1891C19.794 10.2225 22.1263 10.2509 24.4587 10.2877C24.6911 10.2911 24.9302 10.3161 25.1543 10.3763C25.3265 10.4215 25.4117 10.582 25.4067 10.7709C25.4034 10.9247 25.2997 11.0133 25.1843 11.0852C24.9085 11.2608 24.5975 11.2073 24.2949 11.2056C20.3056 11.2006 16.3146 11.1939 12.3253 11.1872C12.1899 11.1872 12.0528 11.1755 11.9207 11.1889C11.6264 11.2207 10.9627 11.744 11.0429 11.9229C11.1951 12.2656 11.5713 12.1035 11.8522 12.1285C12.2217 12.1637 12.5945 12.152 12.9673 12.1536C18.5801 12.1586 24.1929 12.162 29.8056 12.1636C35.9935 12.167 42.1815 12.1703 48.3694 12.167C49.2823 12.167 50.1952 12.1369 51.1064 12.1085C51.2518 12.1035 51.4491 12.1402 51.496 11.9162C50.7436 11.234 50.7452 11.2257 49.9076 11.2157C48.3861 11.1973 46.8646 11.1855 45.3431 11.1805C44.126 11.1755 42.9088 11.1889 41.6916 11.1872C41.4241 11.1872 41.1482 11.2123 40.8957 11.0836C40.7352 11.0016 40.6199 10.8729 40.6299 10.689C40.6383 10.5101 40.7402 10.363 40.9191 10.3161C41.0796 10.2743 41.2519 10.2576 41.4191 10.2526C42.0611 10.2359 42.7031 10.2292 43.3452 10.2142C44.0524 10.1991 44.7596 10.1774 45.4669 10.159C43.7849 9.96335 42.1012 9.80453 40.4176 9.79617C34.1293 9.7644 27.8394 9.7644 21.5512 9.79617C19.7304 9.80453 17.9097 9.96168 16.0906 10.052V10.0553ZM40.3273 8.73613C39.7922 8.31814 39.1887 8.27468 38.6854 8.01218C38.2507 7.78647 37.7959 7.73631 37.3144 7.73798C32.9205 7.74968 28.5249 7.74968 24.131 7.75302C22.8804 7.75302 21.6298 7.75638 20.3791 7.74467C20.0297 7.74133 19.8023 7.85168 19.707 8.20781C19.6652 8.36497 19.5214 8.49369 19.5967 8.75285C26.1541 8.86821 32.7366 8.65923 39.3141 8.87492C39.61 8.88495 39.9176 8.95015 40.3289 8.73948L40.3273 8.73613ZM30.2153 6.58767C30.2454 6.52414 30.2755 6.4606 30.3056 6.39706C29.4428 5.71156 28.5801 5.02439 27.6555 4.41915C27.4916 4.31214 27.281 4.26867 27.087 4.2135C26.9366 4.1717 26.8095 4.24859 26.7694 4.38737C26.5169 5.2501 26.7242 5.57279 27.6003 5.6915C27.7006 5.70488 27.8026 5.7032 27.9046 5.7032C28.132 5.7032 28.3092 5.78012 28.326 6.03426C28.3544 6.47566 28.6286 6.59269 29.0131 6.58934C29.4144 6.586 29.8173 6.58934 30.2186 6.58934L30.2153 6.58767ZM24.0357 5.36046C24.0357 5.36046 24.0474 5.36046 24.0524 5.36046C24.0524 5.66308 24.0424 5.96737 24.0591 6.26999C24.0641 6.35359 24.136 6.46729 24.2096 6.50407C24.3952 6.5977 24.6025 6.58934 24.8031 6.5442C25.0088 6.49905 25.0289 6.32518 25.0472 6.15631C25.0707 5.94732 25.1258 5.76006 25.3566 5.67981C25.4167 5.65974 25.497 5.62296 25.5171 5.57447C25.6893 5.15481 25.7093 4.69837 25.5472 4.2971C25.4351 4.01955 25.0656 4.13659 24.8048 4.13325C24.0758 4.12656 24.0558 4.15163 24.0357 4.85218C24.0307 5.02104 24.0357 5.18992 24.0357 5.35878V5.36046ZM4.78144 15.7818C4.62595 15.7383 4.56409 15.7065 4.50222 15.7065C4.1996 15.7015 3.89865 15.6998 3.59602 15.7065C2.93058 15.7182 2.90885 15.7333 2.91052 16.3803C2.91052 16.596 2.83194 16.8435 3.08273 17.0591C3.73312 16.81 4.34004 16.5007 4.78144 15.7851V15.7818Z" fill="white"/>
<path d="M35.5087 26.6767C29.3559 26.6767 23.2048 26.685 17.052 26.6733C11.8472 26.6633 6.6407 26.6315 1.4359 26.6081C1.20015 26.6081 0.961063 26.6014 0.730333 26.5646C0.594904 26.5429 0.512976 26.4208 0.506288 26.2687C0.4996 26.1182 0.571494 26.0095 0.696891 25.9393C0.947685 25.8005 1.22523 25.8557 1.49107 25.854C3.68802 25.8407 5.88498 25.829 8.0836 25.8273C21.9441 25.8139 35.8047 25.7972 49.6652 25.7955C55.074 25.7955 60.4828 25.8223 65.8916 25.8474C67.1756 25.8541 68.4597 25.8942 69.7437 25.9276C69.9444 25.9326 70.1467 25.9611 70.3406 26.0112C70.4242 26.033 70.5212 26.1232 70.4878 26.2436C70.4627 26.3339 70.4292 26.4409 70.3624 26.4994C70.1985 26.6432 69.9828 26.6215 69.7822 26.6231C69.0047 26.6315 68.2273 26.6365 67.4498 26.6365C61.9742 26.6432 56.4985 26.6365 51.0212 26.6566C45.8515 26.675 40.6801 26.7201 35.5104 26.7536C35.5104 26.7285 35.5104 26.7034 35.5104 26.6783L35.5087 26.6767Z" fill="white"/>
<path d="M54.4643 16.1983C55.2969 16.1832 55.9423 16.8186 55.9389 17.6512C55.9356 18.4236 55.2217 19.1209 54.4308 19.1125C53.6935 19.1041 52.9896 18.2983 53.0164 17.5509C53.0431 16.7751 53.6183 16.2133 54.4659 16.1983H54.4643ZM54.8522 17.6595C54.8605 17.4706 54.685 17.2583 54.5094 17.2432C54.2854 17.2248 54.0664 17.4556 54.0881 17.688C54.1048 17.8786 54.3038 18.0625 54.4843 18.0558C54.6666 18.0491 54.8438 17.8585 54.8522 17.6595Z" fill="white"/>
<path d="M41.505 17.609C41.4966 16.8048 42.0551 16.2581 42.9128 16.2313C43.7671 16.2046 44.3774 16.7998 44.3774 17.6659C44.3774 18.4015 43.7237 19.072 42.9679 19.1071C42.2406 19.1405 41.5133 18.3948 41.505 17.609ZM43.3408 17.6391C43.3525 17.4401 43.1753 17.2479 42.9796 17.2496C42.8074 17.2496 42.5884 17.4602 42.5851 17.6274C42.58 17.7913 42.7974 18.017 42.9629 18.0237C43.1335 18.0304 43.3308 17.8297 43.3408 17.6391Z" fill="white"/>
<path d="M37.1685 16.2003C38.0965 16.2203 38.598 16.8206 38.6365 17.6516C38.6733 18.4307 37.9644 19.1262 37.1685 19.1296C36.4797 19.1329 35.7825 18.419 35.7624 17.6917C35.739 16.8289 36.3192 16.2137 37.1685 16.1986V16.2003ZM37.6116 17.6164C37.6049 17.4175 37.4059 17.2453 37.2036 17.262C36.9913 17.2787 36.8191 17.4743 36.8458 17.6683C36.8726 17.8605 37.0866 18.0528 37.2588 18.0394C37.4444 18.0261 37.6183 17.8171 37.6116 17.6181V17.6164Z" fill="white"/>
<path d="M49.7933 17.5907C49.7933 18.425 49.0476 19.1523 48.2367 19.1088C47.5913 19.0737 46.971 18.3681 46.9509 17.6442C46.9258 16.7898 47.5461 16.1645 48.3922 16.1896C49.2248 16.2147 49.7933 16.7831 49.7933 17.5907ZM48.3754 17.2513C48.1865 17.2345 47.9775 17.4034 47.9625 17.5823C47.9441 17.7963 48.1715 18.0387 48.3805 18.0321C48.5594 18.0254 48.7316 17.8348 48.7366 17.6358C48.7399 17.4435 48.5761 17.268 48.3754 17.2513Z" fill="white"/>
<path d="M30.2978 17.5891C30.2694 16.8351 30.898 16.2231 31.7156 16.2081C32.5583 16.193 33.1435 16.7197 33.2003 17.5139C33.2605 18.3465 32.6971 18.9869 31.739 19.1056C31.0485 19.1908 30.3279 18.4017 30.2978 17.5891ZM32.1403 17.5891C32.1186 17.3918 31.9313 17.2096 31.7507 17.2146C31.5233 17.2196 31.3144 17.4637 31.3628 17.6878C31.4063 17.8951 31.5284 18.0456 31.7557 18.0623C31.9731 18.0773 32.1671 17.8316 32.1403 17.5891Z" fill="white"/>
<path d="M26.2561 16.2383C27.1389 16.235 27.7408 16.8486 27.6923 17.7013C27.6455 18.5255 26.8078 19.2027 26.0019 19.0706C25.3081 18.9552 24.763 18.161 24.85 17.3886C24.9336 16.6446 25.4268 16.2416 26.2561 16.2383ZM26.6707 17.6277C26.6891 17.4438 26.4968 17.2131 26.3213 17.2264C26.1039 17.2415 25.9468 17.3552 25.8916 17.5725C25.8398 17.7715 26.0872 18.044 26.2995 18.034C26.4651 18.0273 26.6523 17.8233 26.6724 17.6277H26.6707Z" fill="white"/>
<path d="M23.8726 17.0962C23.5649 17.1196 23.2489 16.8805 23.2289 16.6113C23.2088 16.3522 23.4211 16.1181 23.707 16.083C24.0565 16.0395 24.4243 16.3087 24.4159 16.6013C24.4093 16.8187 24.125 17.0778 23.8726 17.0962Z" fill="white"/>
<path d="M57.2083 17.1258C56.9374 17.1141 56.6866 16.8566 56.7083 16.6125C56.7351 16.3215 57.0294 16.0691 57.3236 16.0841C57.5928 16.0992 57.8653 16.3266 57.8854 16.5539C57.9122 16.8465 57.5627 17.1408 57.2083 17.1258Z" fill="white"/>
<path d="M29.297 10.2946C30.0059 10.2946 30.7165 10.2946 31.4254 10.2946C31.6277 10.2946 31.8317 10.2912 32.0323 10.3063C32.35 10.3297 32.5339 10.4902 32.5139 10.7075C32.4921 10.9349 32.3099 11.1322 32.0591 11.184C31.9604 11.2041 31.8585 11.2158 31.7581 11.2158C30.1029 11.2125 28.4477 11.2075 26.7924 11.1974C26.6603 11.1974 26.5232 11.1707 26.3945 11.1339C26.2106 11.0821 26.0835 10.8446 26.1236 10.6474C26.1604 10.4634 26.2724 10.3414 26.4597 10.323C26.6938 10.3013 26.9312 10.2962 27.1669 10.2946C27.8759 10.2912 28.5864 10.2946 29.2953 10.2946H29.297Z" fill="white"/>
<path d="M36.4875 10.2918C37.2299 10.2918 37.9706 10.2884 38.7129 10.2935C38.947 10.2935 39.1844 10.3018 39.4168 10.3353C39.5957 10.362 39.7161 10.4874 39.7378 10.6763C39.7595 10.8686 39.6408 10.984 39.492 11.0793C39.3131 11.193 39.1108 11.2097 38.9085 11.2097C37.2232 11.2063 35.5379 11.1997 33.8525 11.188C33.7204 11.188 33.585 11.1528 33.4596 11.1094C33.2874 11.0492 33.1553 10.7833 33.1988 10.6095C33.2439 10.4255 33.376 10.3252 33.5566 10.3102C33.7907 10.2918 34.0281 10.2868 34.2638 10.2868C35.0062 10.2834 35.7468 10.2868 36.4892 10.2868V10.2918H36.4875Z" fill="white"/>
</svg>
