<svg width="16" height="16" viewBox="0 0 16 16" fill="none" xmlns="http://www.w3.org/2000/svg">
<path d="M8.66732 1.36617C8.44805 1.3444 8.22565 1.33325 8.00065 1.33325C4.31875 1.33325 1.33398 4.31802 1.33398 7.99992C1.33398 11.6818 4.31875 14.6666 8.00065 14.6666C11.6825 14.6666 14.6673 11.6818 14.6673 7.99992C14.6673 7.5433 14.6214 7.0974 14.534 6.66658" stroke="black" stroke-width="1.5" stroke-linejoin="round"/>
<path d="M6.66667 7.33333H5.80474C5.5029 7.33333 5.21343 7.21343 5 7M9.33333 7.33333H10.1953C10.4971 7.33333 10.7866 7.21343 11 7" stroke="black" stroke-width="1.5" stroke-linejoin="round"/>
<circle cx="8.0013" cy="10.6666" r="1.33333" stroke="black" stroke-width="1.5" stroke-linejoin="round"/>
<path d="M11.334 1.33325H13.2989C13.7123 1.33325 13.919 1.33325 13.974 1.46665C14.0291 1.60004 13.8885 1.76007 13.6072 2.08012L11.9904 3.91972C11.7091 4.23977 11.5685 4.39979 11.6235 4.53319C11.6786 4.66659 11.8853 4.66659 12.2986 4.66659H14.0007" stroke="black" stroke-width="1.5" stroke-linejoin="round"/>
</svg>
