<svg width="60" height="27" viewBox="0 0 60 27" fill="none" xmlns="http://www.w3.org/2000/svg">
<path d="M22.7591 0.456842C22.7775 0.167593 22.9965 0.00541838 23.3159 0.00207447C23.6452 -0.00294141 23.8392 0.14753 23.8609 0.456842C23.881 0.747763 23.8659 1.04035 23.8776 1.33295C23.8943 1.69075 23.9027 1.69409 24.2739 1.80945C24.5849 1.90642 24.7253 2.0937 24.6986 2.38964C24.6752 2.64377 24.508 2.80761 24.2823 2.83436C23.9194 2.87616 23.8542 3.0952 23.8559 3.39114C23.8559 3.48811 23.8492 3.58676 23.8542 3.68373C23.8626 3.87433 23.8007 4.09335 23.9462 4.24383C24.0716 4.37257 24.2705 4.30737 24.4377 4.33078C24.4611 4.33412 24.4862 4.33411 24.5096 4.3408C24.6835 4.3826 24.7955 4.52473 24.8039 4.71031C24.8173 5.02631 24.6735 5.22024 24.3157 5.34062C24.1819 5.38577 24.0164 5.36069 23.9295 5.50782C23.8509 5.63823 23.8526 5.78704 23.8592 5.9325C23.8676 6.11475 23.9462 6.21173 24.1217 6.2134C24.7303 6.21842 25.3389 6.2134 25.9475 6.20671C26.1231 6.20504 26.2066 6.08801 26.2133 5.92248C26.2234 5.65497 26.2217 5.38745 26.2317 5.11994C26.2384 4.95107 26.2435 4.77718 26.2802 4.61333C26.3254 4.40099 26.5478 4.27393 26.7902 4.29232C26.9958 4.30737 27.1446 4.43945 27.1764 4.66182C27.1998 4.82902 27.2048 5.00124 27.2082 5.17178C27.2266 6.04788 27.2667 6.92398 27.2483 7.80009C27.2383 8.25821 27.3921 8.57253 27.7365 8.86345C28.2197 9.27141 28.6745 9.71281 29.1142 10.1676C29.4068 10.4702 29.7228 10.5923 30.1458 10.5806C31.6606 10.5438 33.1486 10.7946 34.64 11.037C36.3956 11.3229 38.0007 11.97 39.5322 12.8578C41.4683 13.9813 43.381 15.14 45.2586 16.3572C45.6465 16.608 46.0227 16.7233 46.4775 16.7217C49.4469 16.7116 52.4163 16.7216 55.3857 16.7166C56.4825 16.715 57.5726 16.8353 58.6644 16.9022C58.7848 16.9089 58.9051 16.9323 59.0238 16.9591C59.1292 16.9825 59.1961 17.0644 59.2044 17.1631C59.2446 17.6981 59.2646 18.1963 58.845 18.6594C57.4372 20.211 55.9926 21.7208 54.3842 23.0701C53.7321 23.6168 53.0683 24.1518 52.438 24.7236C52.1588 24.9778 51.8629 25.1667 51.5051 25.2637C50.848 25.4409 50.1926 25.6282 49.5305 25.7853C48.1562 26.1114 46.765 26.3404 45.3573 26.4642C44.1952 26.5661 43.0416 26.7551 41.8662 26.7434C40.1625 26.7266 38.4588 26.7517 36.755 26.7534C31.1072 26.7551 25.461 26.7534 19.8131 26.7534C13.7038 26.7534 7.59443 26.7534 1.48509 26.7517C1.33963 26.7517 1.19248 26.7517 1.04702 26.74C0.913263 26.7283 0.822983 26.6514 0.801247 26.5143C0.786199 26.419 0.777858 26.3204 0.777858 26.2234C0.777858 25.1032 0.772845 23.9846 0.781205 22.8644C0.781205 22.6722 0.806294 22.4698 0.874844 22.2926C1.10223 21.7024 1.34965 21.1206 1.59877 20.5404C1.70745 20.2879 1.86127 20.0689 2.17727 20.0505C2.30601 20.0438 2.39296 19.9703 2.48659 19.8833C3.38109 19.054 4.43275 18.626 5.65997 18.6377C7.11959 18.6511 8.58087 18.6444 10.0405 18.6728C10.4284 18.6795 10.6608 18.5775 10.8464 18.2147C11.1089 17.7048 11.5653 17.3771 12.0853 17.1263C12.6287 16.8654 13.1938 16.6732 13.8342 16.5127C13.5901 16.3555 13.3961 16.4107 13.2139 16.4107C11.6807 16.4123 10.1475 16.4224 8.6143 16.4274C8.42036 16.4274 8.22307 16.4324 8.03079 16.414C7.67467 16.3806 7.51919 16.1866 7.54594 15.8238C7.57938 15.3791 7.79172 15.0363 8.1746 14.8139C8.38359 14.6919 8.61265 14.6033 8.83669 14.5113C9.71614 14.1502 10.6374 13.9195 11.5536 13.6787C12.6354 13.3945 13.7222 13.1269 14.839 13.0116C15.3958 12.9547 15.9492 12.8711 16.5077 12.821C16.817 12.7942 17.046 12.6855 17.25 12.4364C17.7115 11.8713 18.208 11.3346 18.6845 10.7812C19.5907 9.73119 20.4953 8.6812 21.3948 7.62453C21.4767 7.52755 21.6405 7.45065 21.5503 7.25838C21.4366 7.24834 21.3128 7.25335 21.1975 7.22492C20.945 7.16306 20.8196 7.00255 20.8096 6.76346C20.7979 6.45582 20.9651 6.24014 21.2744 6.22175C21.6874 6.19834 22.1003 6.21006 22.515 6.19669C22.6504 6.19167 22.7373 6.1064 22.744 5.96428C22.7708 5.42591 22.7624 5.33729 22.2274 5.34899C22.0335 5.35234 21.8379 5.35401 21.6439 5.35234C21.5218 5.35234 21.3998 5.349 21.2794 5.3306C20.9851 5.28546 20.8414 5.09653 20.8363 4.76213C20.833 4.48459 20.9751 4.33578 21.2978 4.31906C21.6138 4.30234 21.9298 4.31573 22.2475 4.30737C22.7206 4.29566 22.7457 4.27226 22.7557 3.81247C22.7608 3.57004 22.7474 3.32592 22.734 3.08348C22.7273 2.9748 22.6538 2.90794 22.5484 2.8929C22.3578 2.86447 22.1589 2.86446 21.9733 2.8143C21.7593 2.75578 21.6021 2.51335 21.6138 2.31606C21.6255 2.09536 21.7743 1.96662 21.9498 1.87299C22.0318 1.82951 22.1355 1.82283 22.2308 1.80945C22.3729 1.79106 22.5183 1.78271 22.7307 1.76265C22.7407 1.27946 22.7357 0.866472 22.7608 0.456842H22.7591ZM10.0622 19.6359C8.74809 19.6359 7.43391 19.6192 6.11976 19.6041C5.82884 19.6008 5.53959 19.5673 5.24867 19.5556C5.17511 19.5523 5.11155 19.6024 5.10152 19.6827C5.08814 19.7947 5.19016 19.7863 5.25035 19.788C5.66332 19.7964 6.07795 19.7964 6.49093 19.7997C6.70995 19.7997 6.92901 19.7914 7.14803 19.8047C7.51587 19.8281 7.66798 20.0472 7.56933 20.3966C7.52586 20.5504 7.42557 20.6524 7.26172 20.6641C7.06777 20.6758 6.87215 20.6758 6.6782 20.6758C5.50951 20.6775 4.34081 20.6909 3.17379 20.6742C2.80428 20.6691 2.58359 20.7878 2.4632 21.144C2.37125 21.4198 2.24416 21.6857 2.10873 21.9432C1.53023 23.0433 1.47673 24.2237 1.562 25.4259C1.58206 25.7101 1.63056 25.7619 1.91312 25.7753C2.08366 25.7837 2.25421 25.7787 2.42475 25.7787C15.5212 25.7787 28.6176 25.7786 41.7141 25.7837C42.617 25.7837 43.5097 25.7285 44.3992 25.5596C44.971 25.4509 45.5596 25.4443 46.1364 25.3573C47.6027 25.135 49.0506 24.8173 50.4969 24.4845C51.1272 24.3391 51.6806 24.085 52.1605 23.6335C52.6554 23.167 53.1921 22.7424 53.7271 22.321C54.6483 21.5954 55.4476 20.7427 56.2952 19.9402C56.3588 19.88 56.4607 19.8131 56.4005 19.6977C56.347 19.5941 56.2367 19.6175 56.1447 19.6108C56.0728 19.6058 55.9993 19.6108 55.9257 19.6108C50.9851 19.6175 46.0428 19.6258 41.1005 19.6292C37.6194 19.6325 34.1384 19.6292 30.6574 19.6292V19.6359C23.7924 19.6359 16.9273 19.6359 10.0639 19.6359H10.0622ZM43.4847 16.3438C42.9463 16.0127 42.3845 15.7168 41.8662 15.359C41.5669 15.1517 41.266 15.0731 40.9166 15.0731C39.3583 15.0681 37.8017 15.0497 36.2434 15.0463C32.1555 15.038 28.0659 15.0948 23.9779 15.0112C22.6571 14.9845 21.3546 15.1216 20.0655 15.3975C19.6626 15.4844 19.2613 15.5914 18.8701 15.7235C17.9271 16.0412 16.9708 16.3254 16.093 16.8153C15.3022 17.255 14.4712 17.5927 13.5667 17.7198C13.1503 17.7783 12.7775 17.9606 12.3963 18.1177C12.2441 18.1813 12.1154 18.305 11.9833 18.4103C11.9532 18.4337 11.9365 18.4973 11.9449 18.5357C11.9532 18.5708 12.0001 18.6193 12.0352 18.6243C12.1555 18.6394 12.2759 18.6444 12.398 18.6444C15.7569 18.6494 19.1142 18.6528 22.4732 18.6561C22.5952 18.6561 22.7156 18.6511 22.8377 18.6461C22.9781 18.6394 23.0517 18.5591 23.0818 18.4254C23.1135 18.2833 23.147 18.1395 23.1921 18.0024C23.4496 17.2149 24.0281 16.7685 24.8658 16.715C25.0848 16.7016 25.3038 16.7066 25.5228 16.7083C31.4366 16.715 37.3502 16.7217 43.264 16.7283C43.4328 16.7283 43.6017 16.7283 43.8174 16.7283C43.7605 16.4541 43.6017 16.4224 43.4847 16.3505V16.3438ZM25.8622 17.6396C25.5462 17.6396 25.2285 17.6362 24.9142 17.6663C24.5063 17.7064 24.2622 17.9589 24.1535 18.3485C24.1084 18.514 24.1852 18.6327 24.3708 18.636C25.2469 18.6461 26.1231 18.6544 26.9992 18.6561C31.4533 18.6611 35.9057 18.6661 40.3598 18.6645C45.3004 18.6645 50.2394 18.6578 55.18 18.6544C55.7635 18.6544 56.3487 18.636 56.9322 18.6695C57.3134 18.6929 57.5927 18.5708 57.8167 18.2782C57.9204 18.1428 58.0391 18.0208 58.1444 17.887C58.2129 17.8017 58.1645 17.6763 58.0592 17.6697C57.8167 17.6546 57.5743 17.6446 57.3318 17.6446C52.0518 17.6446 46.7701 17.6446 41.49 17.6446V17.6396C36.2819 17.6396 31.0737 17.6396 25.8673 17.6396H25.8622ZM35.6766 12.2375C34.6985 12.0485 33.7154 11.878 32.729 11.7476C31.037 11.5252 29.3332 11.4968 27.6278 11.5152C25.267 11.5403 22.9062 11.5486 20.5454 11.5653C20.3749 11.5653 20.2043 11.577 20.0338 11.5653C19.5673 11.5319 19.1677 11.6289 18.9153 12.0719C18.8032 12.2692 18.4271 12.3796 18.5591 12.6287C18.6712 12.8394 19.0055 12.7156 19.2396 12.7156C23.9863 12.719 28.733 12.7156 33.478 12.714C34.6216 12.714 35.7652 12.714 37.0376 12.714C36.5243 12.4448 36.0996 12.3227 35.6766 12.2408V12.2375ZM10.6307 15.4292C12.5518 15.4175 14.4745 15.3523 16.3939 15.4777C16.6548 15.4944 16.8671 15.4042 17.0878 15.3038C18.1127 14.844 19.1694 14.4946 20.2796 14.304C21.047 14.1719 21.8144 14.0749 22.5969 14.0766C27.7532 14.0883 32.9112 14.085 38.0675 14.0866C38.432 14.0866 38.7948 14.0866 39.1911 14.0866C38.8249 13.7288 38.7363 13.6804 38.3936 13.6988C36.0595 13.8258 33.7238 13.7088 31.3898 13.7255C29.4687 13.7389 27.5459 13.7523 25.6248 13.7506C24.0933 13.7506 22.5601 13.7422 21.0286 13.7021C19.8833 13.6737 18.743 13.7088 17.6011 13.779C17.2383 13.8007 16.8688 13.7656 16.5093 13.8108C15.0882 13.9863 13.6687 14.1803 12.2809 14.5498C11.4165 14.7805 10.5404 14.9745 9.6894 15.4276C10.0021 15.4276 10.3164 15.4292 10.629 15.4276L10.6307 15.4292ZM27.8569 10.502C27.7332 10.2696 27.5292 10.1358 27.362 9.97363C27.2232 9.83821 27.0861 9.69777 26.9323 9.58073C26.7668 9.45533 26.5595 9.48207 26.3672 9.48039C25.5396 9.47538 24.7136 9.47874 23.886 9.47539C23.2055 9.47205 22.5233 9.47205 21.8429 9.45366C21.3797 9.44028 20.9784 9.53056 20.7042 9.95022C20.5872 10.1275 20.3782 10.2378 20.2779 10.5187C21.0553 10.5956 27.2433 10.5822 27.8569 10.502ZM25.8606 7.51252C25.9525 7.51252 26.0478 7.48075 26.1348 7.44731C26.1615 7.43728 26.1715 7.37038 26.1816 7.32859C26.1849 7.31354 26.1649 7.28178 26.1498 7.27676C26.0595 7.24834 25.9676 7.20654 25.8773 7.20654C24.9577 7.20486 24.0364 7.20989 23.1169 7.2149C23.0684 7.2149 23.0182 7.21992 22.9748 7.23664C22.9096 7.26005 22.8494 7.28679 22.831 7.37373C22.8076 7.49244 22.9062 7.49746 22.958 7.5008C23.2473 7.51418 23.5382 7.51417 23.8291 7.51752C24.0465 7.51919 24.2655 7.51752 24.4829 7.51752C24.9427 7.51752 25.4025 7.52086 25.8622 7.51417L25.8606 7.51252Z" fill="white"/>
<path d="M12.9084 24.0029C10.2567 24.0029 7.60329 24.0029 4.95156 24.0029C4.65897 24.0029 4.36805 24.0029 4.07713 24.023C3.86814 24.0364 3.73269 24.2036 3.72768 24.4142C3.72266 24.675 3.85309 24.864 4.07881 24.8924C4.22259 24.9108 4.36974 24.9091 4.51521 24.9091C9.77017 24.9091 15.0268 24.9058 20.2817 24.9058C20.6462 24.9058 21.0124 24.9108 21.3769 24.9158C21.5859 24.9192 21.7564 24.8456 21.8852 24.6817C21.9938 24.543 22.0724 24.3908 22.0106 24.2102C21.9437 24.0113 21.7681 23.9912 21.5942 23.9912C20.5727 23.9962 19.5511 24.0079 18.5279 24.0113C16.6536 24.0146 14.781 24.0113 12.9068 24.0113V24.0046L12.9084 24.0029Z" fill="white"/>
<path d="M45.6825 24.63C45.1141 24.4561 44.977 24.1484 45.2461 23.6469C45.6725 22.851 46.2276 22.1387 46.7944 21.4415C47.1254 21.0336 47.5802 20.8112 48.1186 20.7544C49.0682 20.6524 49.9176 21.1506 50.1968 21.9983C50.5145 22.9664 50.1433 24.003 49.3107 24.4644C48.789 24.7537 48.2206 24.8624 47.5518 24.8891C46.98 24.8139 46.3179 24.8222 45.6842 24.6283L45.6825 24.63ZM47.8962 23.8726C48.1437 23.8726 48.3744 23.7957 48.5951 23.6937C48.9178 23.5449 49.1134 23.2907 49.2505 22.958C49.4762 22.4113 49.0448 21.6639 48.2506 21.7575C48.0316 21.7826 47.8377 21.8779 47.6604 22.0167C47.3896 22.2307 47.1906 22.5016 46.99 22.7741C46.9465 22.8326 46.9114 22.8962 46.8746 22.958C46.7191 23.2255 46.5637 23.493 46.3446 23.8709C46.9332 23.8709 47.4147 23.8726 47.8979 23.8709L47.8962 23.8726Z" fill="white"/>
<path d="M39.4192 22.2907C39.4343 21.3611 40.2084 20.6438 41.1246 20.6823C42.0108 20.719 42.7698 21.5283 42.728 22.4228C42.6795 23.4678 41.7449 23.9961 41.0394 24.0011C40.0295 23.9008 39.4042 23.2287 39.4192 22.2907ZM41.041 22.9729C41.4005 22.9779 41.7215 22.7037 41.7399 22.3776C41.7616 21.9998 41.4607 21.6821 41.0761 21.6771C40.7083 21.6721 40.4491 21.9279 40.4324 22.3091C40.4174 22.6736 40.6866 22.9678 41.041 22.9729Z" fill="white"/>
<path d="M29.1125 22.5378C29.2028 23.1798 28.8718 23.7265 28.2331 23.9539C27.245 24.305 26.2769 23.5292 26.3705 22.491C26.4341 21.8004 27.0978 21.3139 27.7482 21.3808C28.4287 21.3273 29.0189 21.8723 29.1109 22.5378H29.1125ZM27.7466 23.0226C27.9422 23.0159 28.1144 22.8454 28.1127 22.6598C28.111 22.4826 27.9087 22.302 27.7298 22.3137C27.5493 22.3271 27.367 22.5127 27.3637 22.6849C27.3603 22.8605 27.5526 23.0293 27.7482 23.021L27.7466 23.0226Z" fill="white"/>
<path d="M30.5451 22.8524C30.5016 22.1284 31.137 21.4429 31.8893 21.3994C32.61 21.3576 33.2553 21.9478 33.2921 22.6852C33.3289 23.3974 32.7286 24.001 31.9579 24.0294C31.1971 24.0562 30.5885 23.5479 30.5467 22.854L30.5451 22.8524ZM31.5516 22.6517C31.4881 22.8089 31.5666 22.9226 31.687 23.0162C31.8224 23.1216 31.9545 23.0848 32.0782 22.9978C32.2237 22.8942 32.309 22.7587 32.2588 22.5731C32.2237 22.4444 32.115 22.3942 31.9963 22.3658C31.8158 22.3491 31.6268 22.4661 31.5516 22.6534V22.6517Z" fill="white"/>
<path d="M35.1348 22.7346C35.1398 21.9889 35.7233 21.4087 36.4824 21.3937C37.2264 21.3803 37.8283 21.9638 37.8434 22.7112C37.8584 23.4334 37.2481 24.032 36.4941 24.0387C35.7149 24.0454 35.1298 23.4836 35.1348 22.7329V22.7346ZM36.4373 23.079C36.6563 23.0606 36.8352 22.8449 36.8135 22.6226C36.8001 22.4838 36.6529 22.355 36.5142 22.3601C36.3002 22.3667 36.0728 22.5824 36.0811 22.7697C36.0878 22.9085 36.2985 23.0907 36.4373 23.079Z" fill="white"/>
</svg>
