<svg width="23" height="19" viewBox="0 0 23 19" fill="none" xmlns="http://www.w3.org/2000/svg">
<path d="M7.375 5.03125C7.375 2.68404 9.27779 0.78125 11.625 0.78125C13.9722 0.78125 15.875 2.68404 15.875 5.03125C15.875 7.37846 13.9722 9.28125 11.625 9.28125C9.27779 9.28125 7.375 7.37846 7.375 5.03125Z" fill="black"/>
<path d="M3.875 17.5312C3.875 13.699 7.45742 10.7812 11.625 10.7812C15.7926 10.7812 19.375 13.699 19.375 17.5312V18.2812H3.875V17.5312Z" fill="black"/>
<path d="M6.85613 2.28934C6.39105 3.09649 6.125 4.0328 6.125 5.03125C6.125 6.42336 6.6422 7.69467 7.49494 8.66352C7.21806 8.74025 6.92633 8.78125 6.62502 8.78125C4.83011 8.78125 3.37498 7.32619 3.37498 5.53125C3.37498 3.73631 4.83011 2.28125 6.62502 2.28125C6.70272 2.28125 6.77979 2.28398 6.85613 2.28934Z" fill="black"/>
<path d="M8.411 10.064C5.53639 11.044 3.23872 13.3076 2.73017 16.2812H0.875V15.5312C0.875 12.3556 3.44936 9.78125 6.625 9.78125C7.24849 9.78125 7.8488 9.88048 8.411 10.064Z" fill="black"/>
<path d="M20.5197 16.2812H22.3749V15.5312C22.3749 12.3556 19.8005 9.78125 16.6249 9.78125C16.0014 9.78125 15.4011 9.88048 14.8389 10.064C17.7135 11.044 20.0111 13.3076 20.5197 16.2812Z" fill="black"/>
<path d="M15.7549 8.66351C16.0318 8.74024 16.3236 8.78125 16.6249 8.78125C18.4198 8.78125 19.8749 7.32618 19.8749 5.53125C19.8749 3.73632 18.4198 2.28125 16.6249 2.28125C16.5472 2.28125 16.4701 2.28398 16.3937 2.28934C16.8588 3.09649 17.1249 4.0328 17.1249 5.03125C17.1249 6.42336 16.6077 7.69467 15.7549 8.66351Z" fill="black"/>
</svg>
