<svg width="21" height="19" viewBox="0 0 21 19" fill="none" xmlns="http://www.w3.org/2000/svg">
<path d="M3.625 4.53125C3.625 2.18404 5.52779 0.28125 7.875 0.28125C10.2222 0.28125 12.125 2.18404 12.125 4.53125C12.125 6.87846 10.2222 8.78125 7.875 8.78125C5.52779 8.78125 3.625 6.87846 3.625 4.53125Z" fill="black"/>
<path d="M0.125 18.0312C0.125 13.751 3.59479 10.2812 7.875 10.2812C12.1552 10.2812 15.625 13.751 15.625 18.0312V18.7812H0.125V18.0312Z" fill="black"/>
<path d="M17.1217 17.7812H20.6251V17.0312C20.6251 13.3033 17.603 10.2812 13.8751 10.2812C13.5819 10.2812 13.2932 10.2999 13.0099 10.3362C15.4265 11.952 17.0393 14.6759 17.1217 17.7812Z" fill="black"/>
<path d="M12.1592 8.36654C12.6734 8.6316 13.2567 8.78125 13.8751 8.78125C15.9461 8.78125 17.6251 7.10232 17.6251 5.03125C17.6251 2.96018 15.9461 1.28125 13.8751 1.28125C13.4777 1.28125 13.0948 1.34305 12.7354 1.45755C13.2989 2.3466 13.6251 3.40083 13.6251 4.53125C13.6251 6.00487 13.0707 7.34902 12.1592 8.36654Z" fill="black"/>
</svg>
