<svg width="49" height="27" viewBox="0 0 49 27" fill="none" xmlns="http://www.w3.org/2000/svg">
<path d="M16.488 4.12335C16.2824 4.12335 16.0767 4.13506 15.8711 4.12001C15.6454 4.10329 15.52 3.94947 15.4999 3.69868C15.4799 3.44788 15.5768 3.28737 15.7942 3.2138C16.0366 3.13188 16.2874 3.16365 16.5349 3.15864C16.9016 3.15083 17.0866 2.96635 17.09 2.60521C17.0933 2.0451 17.0966 1.485 17.1016 0.926567C17.1016 0.781107 17.1016 0.635651 17.1184 0.491862C17.1518 0.204285 17.3073 0.0504574 17.5982 0.0136744C17.7002 0.000298703 17.8055 0.00531662 17.9092 0.00531662C18.884 0.00531662 19.8587 0.00531662 20.8335 0.00531662C20.917 0.00531662 21.0006 0.0019776 21.0826 0.0103374C21.3451 0.0421046 21.5223 0.19425 21.5256 0.446716C21.5357 1.13055 21.534 1.81438 21.5123 2.49821C21.5022 2.80585 21.3986 2.89614 21.0859 2.92456C20.7983 2.95131 20.5058 2.95131 20.2165 2.95465C19.74 2.95967 19.2635 2.95466 18.7853 2.958C18.6432 2.958 18.4944 2.92957 18.364 3.0349C18.4292 3.18538 18.5663 3.12686 18.6683 3.12853C19.7885 3.14525 20.907 3.15529 22.0272 3.16867C22.1927 3.17034 22.36 3.16867 22.5221 3.19876C22.7529 3.23889 22.8833 3.41445 22.8799 3.63849C22.8766 3.89597 22.7278 4.08991 22.4903 4.12335C22.3683 4.14174 22.2429 4.14007 22.1175 4.1384C21.7029 4.1384 21.2882 4.13004 20.8736 4.13338C20.7582 4.13338 20.596 4.07487 20.5442 4.21029C20.4807 4.37415 20.6044 4.52629 20.6696 4.67509C20.6863 4.71188 20.78 4.73027 20.8385 4.73195C21.1077 4.73863 21.3769 4.74532 21.646 4.73195C21.8868 4.72191 22.0774 4.80049 22.2763 4.93927C22.8866 5.36729 23.5203 5.76187 24.1305 6.18989C24.4683 6.42731 24.8211 6.53097 25.2341 6.52428C26.3325 6.50756 27.431 6.5109 28.5312 6.51425C29.5928 6.51759 30.6395 6.62627 31.656 6.95397C32.599 7.2566 33.4233 7.76154 34.174 8.39354C34.2827 8.48549 34.3713 8.6042 34.4582 8.71956C34.5652 8.86168 34.5753 9.02721 34.5418 9.1944C34.4867 9.4686 34.2342 9.60069 33.9751 9.50538C33.8145 9.44519 33.6975 9.32983 33.5738 9.21949C32.5371 8.29656 31.3334 7.75318 29.9523 7.58765C29.4357 7.52579 28.9207 7.50071 28.4024 7.50405C26.5984 7.51074 24.7943 7.50906 22.9903 7.5191C22.385 7.52244 21.7965 7.60771 21.2364 7.86352C20.7549 8.08255 20.3352 8.37013 20.0175 8.79815C19.9807 8.84831 19.9323 8.8901 19.8971 8.94026C19.5293 9.49201 19.016 9.68429 18.3589 9.6776C16.4111 9.66088 14.4616 9.68596 12.5121 9.69431C12.4285 9.69431 12.3466 9.69431 12.263 9.69264C12.0791 9.68595 11.947 9.75785 11.8651 9.92839C11.5207 10.6356 11.1695 11.3412 10.8268 12.0501C10.7582 12.1906 10.8268 12.2959 10.984 12.2992C11.3367 12.3059 11.6895 12.2992 12.0406 12.3026C12.2647 12.3042 12.4319 12.1906 12.5957 12.0585C12.9351 11.7859 13.2779 11.5184 13.6206 11.2492C14.256 10.7476 14.9599 10.43 15.7858 10.4283C16.0349 10.4283 16.2824 10.4082 16.5315 10.4082C17.7554 10.4032 18.9776 10.3898 20.2014 10.4049C20.6211 10.4099 20.9588 10.2929 21.2732 10.0137C21.6744 9.65587 22.1025 9.32648 22.5238 8.99042C22.9602 8.64265 23.4517 8.48048 24.0202 8.48382C25.7407 8.49887 27.4628 8.50054 29.1832 8.48382C29.7834 8.4788 30.3335 8.61925 30.8501 8.90014C31.3768 9.18771 31.9001 9.48532 32.4151 9.79296C33.0555 10.1758 33.6992 10.5504 34.3797 10.8613C35.0384 11.1623 35.6888 11.4883 36.3258 11.8327C36.9812 12.1872 37.6634 12.3243 38.4124 12.3193C41.335 12.2942 44.2592 12.3076 47.1835 12.3076C47.3707 12.3076 47.558 12.2976 47.7436 12.3143C48.1716 12.3511 48.3957 12.7055 48.2469 13.1118C48.1901 13.2673 48.1114 13.4144 48.0295 13.5582C46.9895 15.399 45.9496 17.2382 44.908 19.0757C44.51 19.7779 44.0787 20.4651 43.7092 21.1823C43.5119 21.5652 43.2795 21.7107 42.8397 21.704C41.0574 21.6756 39.2735 21.6906 37.4912 21.6906C26.6268 21.6906 15.7624 21.6906 4.89634 21.6906C4.2961 21.6906 3.69419 21.7241 3.09396 21.7424C2.34325 21.7642 1.65943 21.5752 1.05753 21.1155C0.82847 20.9416 0.70473 20.7359 0.708074 20.4316C0.72145 19.4368 0.713096 18.442 0.714768 17.4455C0.714768 17.3636 0.706423 17.275 0.729831 17.1981C1.01741 16.2584 1.38355 15.3656 2.13928 14.6851C2.58068 14.2872 3.11068 14.1451 3.6758 14.0949C3.92325 14.0732 4.17241 14.0849 4.42153 14.0849C4.81611 14.0849 5.20899 14.0932 5.60357 14.0849C5.89115 14.0799 5.9363 14.0347 5.94633 13.7672C5.95469 13.5398 5.94466 13.3108 5.95135 13.0834C5.96807 12.5132 6.13693 12.3377 6.69034 12.3143C6.89767 12.3059 7.10499 12.3042 7.31231 12.3076C7.4979 12.3109 7.62666 12.229 7.71695 12.0718C8.1316 11.3546 8.55125 10.639 8.96422 9.92003C9.02776 9.81135 8.97427 9.70602 8.85556 9.69599C8.69004 9.68261 8.52448 9.67425 8.35896 9.67425C7.84065 9.67425 7.32237 9.68094 6.80407 9.68261C6.68034 9.68261 6.55324 9.69097 6.43286 9.67091C6.11017 9.61406 5.97477 9.37664 6.08846 9.07904C6.13361 8.96367 6.19046 8.85165 6.25733 8.74632C6.57835 8.23804 6.91108 7.73645 7.2254 7.22483C7.46617 6.83192 7.79888 6.67643 8.26201 6.68312C9.56781 6.70151 10.8736 6.68981 12.1811 6.68814C12.8231 6.68814 13.4668 6.67308 14.1088 6.68144C14.3663 6.68479 14.5452 6.58949 14.6823 6.38384C14.7509 6.28018 14.8295 6.18321 14.8997 6.08122C15.3695 5.4024 15.8042 4.69516 16.4931 4.12502L16.488 4.12335ZM46.8675 13.3827C46.7839 13.3676 46.7237 13.3475 46.6652 13.3492C44.4264 13.3877 42.186 13.3526 39.9473 13.3492C34.1824 13.3375 28.4191 13.3442 22.6542 13.3425C17.7403 13.3425 12.8264 13.3425 7.91088 13.3425C7.74536 13.3425 7.57817 13.3392 7.41264 13.3459C7.06822 13.3593 7.00971 13.4194 7.00469 13.7421C6.99968 14.0815 7.05987 14.1534 7.38088 14.1735C7.52634 14.1818 7.67178 14.1802 7.81557 14.1802C11.0508 14.1752 14.2844 14.1701 17.5196 14.1668C17.6233 14.1668 17.727 14.1601 17.8306 14.1701C18.0848 14.1919 18.2336 14.3641 18.2352 14.6266C18.2352 14.8824 18.0881 15.0546 17.8289 15.0864C17.7052 15.1014 17.5798 15.0998 17.4561 15.0998C16.0466 15.1031 14.6355 15.1115 13.226 15.1081C10.1363 15.1031 7.0465 15.1014 3.95672 15.078C3.23945 15.073 2.72281 15.3472 2.36166 15.9558C1.97878 16.5995 1.66111 17.2733 1.39861 17.9722C1.27489 18.3016 1.19796 18.6476 1.20966 19.0054C1.24143 19.9518 1.93865 20.6707 2.85154 20.7008C3.06555 20.7075 3.26116 20.6724 3.4317 20.5286C3.66912 20.328 3.91825 20.1407 4.15567 19.9401C5.14881 19.1091 6.23391 18.4286 7.44942 17.9739C8.50275 17.5793 9.59956 17.3653 10.7131 17.2215C10.8151 17.2081 10.9204 17.2064 11.0224 17.2181C11.2147 17.2399 11.3568 17.4004 11.3735 17.596C11.3936 17.8585 11.2514 18.0942 10.994 18.1678C10.795 18.2263 10.5894 18.2631 10.3854 18.2882C8.81709 18.4838 7.37753 19.0422 6.0316 19.8515C5.68384 20.0605 5.33775 20.2778 4.95487 20.6139C5.29261 20.6289 5.53168 20.649 5.77244 20.649C8.82042 20.644 11.8684 20.6339 14.9164 20.6323C21.3652 20.6289 27.8139 20.6289 34.2626 20.6306C36.9578 20.6306 39.653 20.6323 42.3499 20.6456C42.6676 20.6456 42.8983 20.5888 43.0655 20.2828C43.5704 19.3549 44.1087 18.4453 44.6204 17.5208C45.2925 16.3069 45.9396 15.078 46.6602 13.8893C46.7438 13.7505 46.8525 13.6184 46.8675 13.3827ZM22.915 6.57946C22.5823 6.34037 22.3382 6.19156 22.1259 6.00263C21.8951 5.79698 21.6477 5.72007 21.3401 5.72174C19.8487 5.72676 18.359 5.7184 16.8676 5.69833C16.5633 5.69332 16.3593 5.80534 16.1887 6.03774C15.8945 6.43734 15.5818 6.82524 15.3009 7.2332C15.0903 7.53749 14.8261 7.63948 14.4599 7.63781C12.6375 7.62778 10.8151 7.6378 8.99431 7.64282C8.46485 7.64393 8.06192 7.87969 7.78549 8.35006C7.6651 8.55572 7.70691 8.63764 7.95938 8.6577C8.10316 8.6694 8.24864 8.6694 8.3941 8.6694C11.6043 8.6694 14.8127 8.65771 18.0229 8.67443C18.5863 8.67777 19.0394 8.56072 19.3554 8.07084C19.3889 8.01901 19.4424 7.98223 19.4858 7.93709C20.0877 7.30676 20.8033 6.89044 21.6611 6.69482C22.0306 6.61122 22.4001 6.62293 22.915 6.57778V6.57946ZM34.7007 12.3159C34.7107 12.2741 34.7224 12.234 34.7324 12.1922C34.5936 12.112 34.4565 12.0234 34.3144 11.9515C34.0185 11.8027 33.7176 11.6639 33.4216 11.5168C33.1959 11.4031 32.9618 11.3445 32.706 11.3512C32.1677 11.3663 31.6293 11.3679 31.0893 11.3679C26.1787 11.3797 21.2682 11.3897 16.3576 11.4031C16.0684 11.4031 15.7791 11.4315 15.4916 11.4616C14.9732 11.5168 14.572 11.816 14.1807 12.1237C14.159 12.1421 14.1507 12.2023 14.164 12.234C14.1757 12.2624 14.2208 12.2942 14.2526 12.2959C14.4599 12.3042 14.6673 12.3093 14.8729 12.3093C20.3018 12.3109 25.7306 12.3126 31.1595 12.3143C32.3399 12.3143 33.5203 12.3143 34.7007 12.3143V12.3159ZM22.4385 10.2962C22.5773 10.3363 22.6157 10.3564 22.6559 10.3581C23.9349 10.4099 25.214 10.3765 26.493 10.3614C26.5532 10.3614 26.6151 10.3497 26.6753 10.3364C26.7455 10.3213 26.7773 10.2578 26.7672 10.1993C26.7405 10.0571 26.702 9.91836 26.6569 9.78126C26.57 9.51208 26.5432 9.48532 26.269 9.48365C25.4648 9.47863 24.6589 9.48198 23.8547 9.48699C23.7326 9.48699 23.5989 9.49201 23.4935 9.54217C23.1257 9.72274 22.788 9.95012 22.4385 10.2962ZM11.2882 9.75283C11.1561 9.66422 11.0073 9.69264 10.8669 9.67091C10.5475 9.62242 10.3202 9.72775 10.1497 10.0187C9.7534 10.6925 9.33206 11.3529 8.9241 12.02C8.88397 12.0869 8.8355 12.1621 8.89569 12.2775C9.15819 12.3527 9.44241 12.2691 9.7233 12.2775C9.93564 12.2842 10.0593 12.1805 10.1546 11.9966C10.5258 11.2844 10.9087 10.5788 11.2832 9.86987C11.2999 9.8381 11.2849 9.79128 11.2849 9.75283H11.2882ZM27.6534 9.47194C27.6534 9.7963 27.7771 9.9936 27.8507 10.2059C27.8891 10.3163 27.9827 10.3614 28.0897 10.3748C28.1917 10.3882 28.2971 10.3915 28.4007 10.3915C29.3538 10.3832 30.3084 10.3731 31.2614 10.3614C31.3183 10.3614 31.3868 10.3614 31.4052 10.2327C30.9605 10.0153 30.5024 9.79129 30.0443 9.56724C29.9891 9.54049 29.9323 9.5104 29.8737 9.49368C29.8152 9.47696 29.7517 9.47028 29.6898 9.47028C29.0277 9.47028 28.3656 9.47028 27.655 9.47028L27.6534 9.47194ZM19.3922 1.02354V1.01852C19.1866 1.01852 18.9809 1.01852 18.7753 1.01852C18.2018 1.02019 18.1667 0.968366 18.18 1.64718C18.1851 1.90801 18.2486 1.9799 18.5094 1.98325C19.0027 1.99161 19.4976 1.99161 19.9908 1.97656C20.5944 1.95984 20.6161 1.92974 20.596 1.3362C20.5877 1.09042 20.5459 1.03358 20.3185 1.02522C20.0108 1.01519 19.7015 1.02187 19.3922 1.02187V1.02354ZM19.4658 4.70352C19.4441 4.55472 19.4374 4.47279 19.4173 4.39421C19.3554 4.14007 19.3521 4.13338 19.0896 4.1267C18.8422 4.12001 18.593 4.14175 18.3472 4.12001C18.078 4.09661 17.9159 4.19358 17.8373 4.45106C17.8139 4.5263 17.7437 4.58649 17.7788 4.7052C18.3188 4.75536 18.8689 4.74867 19.4658 4.7052V4.70352Z" fill="white"/>
<path d="M26.8457 25.674C26.4612 26.0101 26.0766 26.2859 25.6352 26.4782C25.0534 26.7307 24.4699 26.734 23.8813 26.5167C23.4082 26.3411 23.0019 26.0535 22.609 25.7493C22.4668 25.6389 22.3598 25.6406 22.2344 25.7676C21.9101 26.097 21.5222 26.3294 21.0992 26.5133C20.5391 26.7574 19.9756 26.7675 19.4055 26.5585C18.9942 26.408 18.6163 26.199 18.2686 25.9282C18.0111 25.7275 17.9843 25.7342 17.7352 25.9465C17.5446 26.1087 17.3473 26.2559 17.1283 26.3762C16.4027 26.7775 15.6737 26.7775 14.9246 26.4314C14.5819 26.2726 14.2743 26.0669 13.9767 25.8429C13.8613 25.7559 13.7526 25.7559 13.6423 25.8529C13.5336 25.9482 13.4266 26.0485 13.3112 26.1355C12.5087 26.734 11.6543 26.8527 10.7464 26.3963C10.5625 26.3043 10.382 26.1957 10.2198 26.0686C9.90043 25.8211 9.87199 25.8713 9.58442 26.0987C9.32359 26.3043 9.05607 26.5033 8.74007 26.617C7.97264 26.8945 7.27545 26.724 6.62339 26.2726C6.47291 26.1689 6.36588 26.0034 6.18197 25.9532C6.0014 26.0101 5.94623 26.1873 5.81749 26.2876C5.05508 26.8862 4.32613 26.7474 3.66905 26.2023C3.45002 26.0201 3.3614 25.761 3.45001 25.4717C3.52358 25.2293 3.76935 25.1189 3.98838 25.2376C4.15223 25.3262 4.30439 25.4349 4.45988 25.5352C4.67724 25.6757 4.88788 25.6556 5.10022 25.5185C5.27577 25.4048 5.42624 25.2644 5.55666 25.1005C5.63357 25.0036 5.71051 24.9032 5.80247 24.8213C6.00311 24.6458 6.21042 24.6424 6.42276 24.8029C6.50469 24.8648 6.57489 24.9434 6.65012 25.0136C6.75546 25.1122 6.85747 25.2176 6.96949 25.3079C7.59313 25.8178 8.1716 25.8362 8.90225 25.3463C9.08951 25.2209 9.23999 25.042 9.40885 24.8882C9.75662 24.5722 9.88372 24.5672 10.2699 24.8598C10.4355 24.9852 10.5893 25.1256 10.7531 25.251C10.9186 25.3764 11.0942 25.4834 11.2915 25.5586C11.6175 25.6824 11.9369 25.679 12.2596 25.5503C12.5521 25.4333 12.813 25.2677 13.0454 25.0571C13.1524 24.9601 13.2544 24.8564 13.3614 24.7578C13.5737 24.5655 13.8061 24.5488 14.0452 24.6959C14.1689 24.7712 14.2759 24.8698 14.3946 24.9534C14.6321 25.1206 14.8595 25.3045 15.1119 25.4433C15.6871 25.7576 16.2672 25.7459 16.814 25.3664C17.0514 25.2025 17.2604 24.9969 17.4844 24.8146C17.7937 24.5638 17.9877 24.5521 18.3271 24.7745C18.6214 24.9668 18.9039 25.1808 19.2015 25.368C19.8469 25.776 20.4923 25.7593 21.1259 25.3396C21.2982 25.2259 21.457 25.0922 21.6192 24.9634C21.7161 24.8865 21.8047 24.7979 21.9051 24.7243C22.2913 24.4384 22.4769 24.4317 22.8548 24.7043C23.0404 24.8364 23.2126 24.9868 23.3931 25.1256C23.6071 25.2895 23.8345 25.4316 24.0853 25.5369C24.4063 25.6723 24.7257 25.6807 25.0551 25.5737C25.3961 25.4633 25.6904 25.2761 25.9612 25.0437C26.1034 24.9233 26.2421 24.7996 26.3909 24.6859C26.6534 24.4869 26.9143 24.4869 27.1885 24.6859C27.4894 24.9049 27.8071 25.1022 28.1147 25.3129C28.8136 25.7927 29.5108 25.761 30.2047 25.3045C30.3936 25.1791 30.5692 25.032 30.7514 24.8965C30.8835 24.7979 31.0156 24.6976 31.156 24.609C31.3667 24.4752 31.5874 24.4669 31.8014 24.5989C32.0489 24.7511 32.2896 24.9133 32.5337 25.0671C32.7611 25.2109 32.9835 25.368 33.2226 25.4868C33.7509 25.7493 34.2709 25.7008 34.7524 25.3664C34.938 25.2376 35.0968 25.0704 35.2674 24.9183C35.6386 24.5856 35.8074 24.5789 36.1819 24.8899C36.3408 25.0219 36.4913 25.1674 36.6551 25.2928C37.3072 25.791 37.9926 25.8028 38.6598 25.3262C38.7935 25.2309 38.9105 25.1106 39.0359 25.0019C39.1296 24.9216 39.2165 24.8297 39.3202 24.7628C39.5376 24.619 39.6881 24.6257 39.887 24.7862C39.999 24.8765 40.0943 24.9885 40.2013 25.0855C40.3234 25.1975 40.4421 25.3179 40.5775 25.4098C40.9036 25.6305 41.2564 25.7125 41.6392 25.567C41.8131 25.5001 41.9853 25.4316 42.1592 25.3614C42.2746 25.3145 42.3866 25.2594 42.5036 25.2209C42.7461 25.144 42.945 25.1942 43.0654 25.3513C43.1975 25.5252 43.1908 25.7944 43.0269 25.98C42.9333 26.087 42.823 26.194 42.6992 26.2592C41.7245 26.7758 40.7664 26.8477 39.8552 26.1104C39.8234 26.0836 39.79 26.0586 39.7566 26.0352C39.5325 25.878 39.5342 25.8813 39.3419 26.0435C39.2165 26.1505 39.0912 26.2609 38.9507 26.3461C38.0512 26.8945 37.1751 26.7775 36.319 26.2341C36.1485 26.1254 36.0264 25.9098 35.8007 25.9265C35.6068 25.9415 35.5098 26.1455 35.3527 26.2441C34.5769 26.734 33.7776 26.8327 32.935 26.4113C32.5621 26.2258 32.2127 26.0034 31.8817 25.7559C31.6091 25.5536 31.5489 25.5386 31.3048 25.7676C30.9855 26.0669 30.621 26.3043 30.2164 26.4782C29.5309 26.7725 28.8454 26.7859 28.1783 26.4348C27.7402 26.204 27.3155 25.9432 26.8407 25.669L26.8457 25.674Z" fill="white"/>
<path d="M31.3642 17.0413C31.0114 17.0413 30.6586 17.058 30.3075 17.0363C29.9564 17.0162 29.617 16.9443 29.3211 16.7153C28.5971 16.1518 28.6824 14.7189 29.7725 14.3327C29.9882 14.2575 30.2089 14.2107 30.4413 14.2123C31.0215 14.2123 31.6016 14.2073 32.1818 14.2006C32.3925 14.1973 32.5914 14.2357 32.7904 14.301C33.7886 14.6287 33.9775 15.7572 33.5863 16.4411C33.501 16.5899 33.3856 16.7036 33.2418 16.7905C32.971 16.9544 32.6767 17.0446 32.3574 17.0446C32.0263 17.0446 31.6953 17.0446 31.3625 17.0446L31.3642 17.0413ZM31.3408 15.9411V15.9378C31.6501 15.9378 31.9611 15.9378 32.2704 15.9378C32.3941 15.9378 32.5212 15.9428 32.6249 15.8559C32.7219 15.7739 32.8088 15.677 32.7687 15.5382C32.7386 15.4362 32.6567 15.366 32.5513 15.3409C32.4711 15.3225 32.3891 15.3075 32.3072 15.3075C31.6468 15.3025 30.9847 15.3025 30.3243 15.3025C30.2624 15.3025 30.2005 15.3091 30.1403 15.3192C29.9815 15.3476 29.8444 15.4763 29.8461 15.5917C29.8461 15.7071 29.9765 15.8743 30.1069 15.906C30.2056 15.9311 30.3109 15.9378 30.4129 15.9395C30.7222 15.9428 31.0332 15.9395 31.3425 15.9395L31.3408 15.9411Z" fill="white"/>
<path d="M38.3459 17.0485C38.0566 17.0485 37.7657 17.0451 37.4764 17.0485C37.2674 17.0518 37.0669 17.0184 36.8612 16.9749C36.0754 16.8111 35.6306 15.9416 36.047 15.1107C36.3044 14.594 36.7442 14.2714 37.321 14.2362C38.0433 14.1928 38.7723 14.1727 39.4945 14.2229C40.5278 14.2948 41.113 15.3096 40.7235 16.2727C40.5997 16.5787 40.3689 16.781 40.068 16.898C39.8155 16.9966 39.5531 17.0468 39.2789 17.0435C38.9679 17.0384 38.6568 17.0435 38.3475 17.0435V17.0501L38.3459 17.0485ZM38.3057 15.9416C38.6351 15.9416 38.9645 15.9433 39.2939 15.9383C39.3942 15.9366 39.5046 15.9266 39.5932 15.8848C39.7052 15.8313 39.7855 15.726 39.7838 15.5905C39.7838 15.4451 39.6801 15.3732 39.5547 15.3381C39.4778 15.3163 39.3925 15.3096 39.3106 15.3096C38.6519 15.3046 37.9931 15.2996 37.3344 15.3029C37.2357 15.3029 37.1304 15.3297 37.0401 15.3698C36.9431 15.4116 36.8762 15.5019 36.8762 15.6123C36.8762 15.7193 36.9314 15.8196 37.0251 15.8664C37.112 15.9116 37.219 15.935 37.3177 15.9383C37.647 15.9467 37.9764 15.9416 38.3057 15.9416Z" fill="white"/>
<path d="M21.4988 14.207C21.8098 14.207 22.1191 14.2054 22.4301 14.207C22.7043 14.2104 22.9601 14.2806 23.2058 14.3993C23.7024 14.6367 23.9482 15.0397 23.99 15.5764C24.0385 16.2134 23.7141 16.715 23.1039 16.9073C22.8698 16.9808 22.6173 17.0176 22.3715 17.026C21.7713 17.0444 21.1711 17.0427 20.5708 17.0343C20.1696 17.0293 19.795 16.934 19.4757 16.6648C19.26 16.4826 19.1279 16.2686 19.0878 15.9843C18.939 14.9226 19.5409 14.2254 20.6277 14.2104C20.9169 14.207 21.2078 14.2104 21.4971 14.2104V14.207H21.4988ZM21.5857 15.9392C21.895 15.9392 22.2043 15.9425 22.512 15.9359C22.614 15.9342 22.7227 15.9258 22.8129 15.884C22.9283 15.8305 22.9985 15.7252 22.9885 15.5847C22.9801 15.4694 22.9082 15.3908 22.8096 15.3557C22.7143 15.3222 22.609 15.3089 22.507 15.3072C21.8683 15.2988 21.2296 15.2955 20.5909 15.2921C20.509 15.2921 20.4254 15.2955 20.3468 15.3156C20.2248 15.3473 20.1177 15.4109 20.0793 15.5429C20.0492 15.6483 20.1629 15.8389 20.295 15.884C20.3903 15.9175 20.4939 15.9325 20.5943 15.9342C20.9236 15.9409 21.253 15.9359 21.5824 15.9359L21.5857 15.9392Z" fill="white"/>
<path d="M7.46927 16.9464C6.95263 16.9464 6.43599 16.943 5.91936 16.9464C5.43282 16.9497 5.36258 16.4649 5.52141 16.194C5.58662 16.082 5.67861 16.0017 5.804 15.9716C5.88426 15.9516 5.96785 15.9415 6.0481 15.9415C7.10144 15.9399 8.15643 15.9365 9.21144 15.9432C9.50904 15.9449 9.66622 16.0887 9.68629 16.3244C9.71304 16.617 9.54082 16.8728 9.26495 16.9213C9.1245 16.9464 8.97736 16.9414 8.8319 16.9414C8.37712 16.943 7.92237 16.9414 7.46759 16.9414V16.9464H7.46927Z" fill="white"/>
<path d="M15.8678 15.9408C16.239 15.9408 16.6101 15.9241 16.9813 15.9459C17.3792 15.9693 17.5766 16.3705 17.3793 16.7133C17.3024 16.8454 17.192 16.9323 17.0382 16.949C16.9362 16.9607 16.8325 16.9674 16.7305 16.9674C16.0918 16.9674 15.4532 16.9657 14.8145 16.9607C14.6506 16.9607 14.4834 16.9657 14.3463 16.847C14.1908 16.7133 14.1055 16.4692 14.1724 16.2886C14.251 16.0779 14.3998 15.9442 14.6339 15.9408C15.0452 15.9358 15.4582 15.9408 15.8712 15.9408H15.8678Z" fill="white"/>
<path d="M26.5658 16.9943C26.3385 16.9943 26.1111 17.0009 25.8837 16.9926C25.7115 16.9859 25.5627 16.919 25.4657 16.7652C25.2517 16.4224 25.4189 16.0111 25.8218 15.971C26.2331 15.9309 26.6494 15.9493 27.0624 15.9493C27.1644 15.9493 27.2697 15.966 27.3667 15.9961C27.5874 16.0663 27.7011 16.2268 27.7128 16.4592C27.7295 16.7903 27.5824 16.9641 27.2496 16.9859C27.0223 16.9993 26.7949 16.9892 26.5658 16.9892V16.9976V16.9943Z" fill="white"/>
<path d="M12.6098 16.4995C12.6065 16.7954 12.3925 17.0245 12.1116 17.0312C11.8039 17.0395 11.5314 16.7653 11.518 16.4309C11.5063 16.1434 11.7203 15.9243 12.0213 15.916C12.3657 15.9076 12.6132 16.1534 12.6098 16.4978V16.4995Z" fill="white"/>
<path d="M42.9715 16.5581C42.9414 16.8574 42.6639 17.068 42.3512 17.0262C42.0586 16.9878 41.853 16.7152 41.878 16.3959C41.9015 16.0949 42.1756 15.8893 42.495 15.9344C42.7993 15.9762 43.0016 16.2437 42.9699 16.5564L42.9715 16.5581Z" fill="white"/>
</svg>
