<svg width="54" height="27" viewBox="0 0 54 27" fill="none" xmlns="http://www.w3.org/2000/svg">
<path d="M15.3028 2.36278C15.3111 2.03006 15.3095 1.69732 15.2961 1.3646C15.2894 1.20577 15.1958 1.1088 15.0219 1.10379C14.7611 1.0971 14.4986 1.09878 14.2411 1.06534C13.997 1.0319 13.8415 0.811189 13.8382 0.553707C13.8348 0.294554 13.9903 0.0838978 14.2394 0.0420989C14.4016 0.0153476 14.5705 0.0136666 14.736 0.0119947C15.9733 0.0069788 17.2088 0.00195312 18.4461 0.00195312C18.6116 0.00195312 18.7805 0.00864749 18.9393 0.0504464C19.1918 0.113981 19.3473 0.348062 19.3255 0.580464C19.3021 0.839618 19.1483 1.01851 18.8908 1.07034C18.7521 1.09876 18.6066 1.10212 18.4662 1.1272C18.2321 1.17067 18.1769 1.21915 18.1719 1.45155C18.1635 1.92638 18.1652 2.4029 18.1786 2.87773C18.1853 3.13689 18.2655 3.2138 18.5313 3.21715C18.9828 3.22216 19.4359 3.23219 19.8857 3.19374C20.2568 3.16364 20.5327 3.28067 20.7601 3.55988C20.8504 3.67023 20.949 3.77391 21.0393 3.88425C21.596 4.56474 22.1595 5.24021 22.7079 5.92906C23.2095 6.55771 23.0991 6.47077 23.8365 6.45071C24.2143 6.44067 24.5253 6.546 24.8296 6.76001C25.2376 7.04592 25.6773 7.28835 26.0903 7.56756C26.4213 7.7916 26.7591 7.8936 27.1637 7.8217C27.4412 7.77154 27.7338 7.80333 28.0164 7.77323C28.3792 7.7331 28.6601 7.86852 28.9142 8.11095C29.4309 8.6025 29.9659 9.07567 30.4725 9.57726C30.6915 9.79629 30.9105 9.91834 31.2232 9.86818C31.6478 9.79963 32.019 9.94676 32.3601 10.1842C32.7313 10.4417 33.1108 10.6858 33.4686 10.96C34.7142 11.913 35.9582 12.8693 37.1904 13.8408C37.4663 14.0581 37.7422 14.1568 38.0983 14.1601C39.4292 14.1701 40.7617 14.1484 42.0909 14.2487C43.0623 14.3223 44.0337 14.4109 45.0085 14.4477C47.5281 14.5446 50.0294 14.8607 52.544 15.0279C52.8316 15.0462 52.9703 15.1867 53.0506 15.4392C53.1626 15.7936 53.2161 16.1213 52.8918 16.4189C52.7012 16.5928 52.5741 16.8319 52.4103 17.0359C51.4439 18.2413 50.4875 19.4552 49.506 20.649C48.1785 22.2624 46.9246 23.9394 45.4649 25.4425C45.4365 25.4726 45.4165 25.5344 45.4282 25.5712C45.4399 25.608 45.4917 25.6548 45.5285 25.6582C45.7408 25.6766 45.9531 25.6899 46.1672 25.6949C46.4999 25.7016 46.8343 25.6866 47.1653 25.7083C47.4462 25.7267 47.585 25.919 47.5566 26.1949C47.5265 26.4824 47.3576 26.6864 47.0666 26.7265C46.8326 26.76 46.5918 26.7533 46.3544 26.7533C43.2145 26.7533 40.0762 26.7533 36.9363 26.7533C25.4499 26.7533 13.9636 26.7533 2.4772 26.7533C2.23979 26.7533 2.00069 26.76 1.76495 26.7382C1.50078 26.7132 1.34696 26.5159 1.35031 26.2484C1.35532 25.9173 1.53089 25.7184 1.8703 25.6866C2.03415 25.6699 2.20302 25.6849 2.36854 25.6866C2.81997 25.6933 3.27138 25.7083 3.7228 25.705C4.12407 25.7016 4.16421 25.6314 3.98531 25.302C3.47537 24.3624 2.95874 23.4244 2.45047 22.4848C1.98733 21.6287 1.54091 20.761 1.06441 19.9116C0.756766 19.3632 0.79354 18.885 1.22156 18.4152C1.76662 17.8183 2.28829 17.2014 2.82833 16.5995C3.21121 16.1731 3.66262 15.8939 4.26954 15.9959C4.62901 16.0561 4.83302 15.8772 5.01192 15.5813C5.55029 14.6851 6.08697 13.7872 6.67049 12.9195C7.02996 12.3845 7.14865 11.8946 6.86275 11.276C6.64372 10.8028 7.03497 9.79295 7.45965 9.48531C7.53488 9.43014 7.6235 9.38333 7.71379 9.36326C8.40765 9.20443 9.09984 9.03054 9.80039 8.90348C11.25 8.64098 12.7029 8.39686 14.1742 8.28317C14.4819 8.25976 14.7878 8.21461 15.0955 8.17616C15.1991 8.16278 15.2694 8.09925 15.2794 7.99392C15.3028 7.75817 15.3363 7.52076 15.3346 7.28334C15.3346 6.47411 15.3195 5.66655 15.3095 4.85733C15.3095 4.76202 15.2978 4.6684 15.2911 4.5731C15.2794 4.40758 15.1891 4.31728 15.0269 4.2922C14.9333 4.27716 14.838 4.26713 14.7461 4.24038C14.4919 4.16514 14.3565 4.01466 14.3548 3.79731C14.3515 3.56324 14.4418 3.37095 14.6675 3.28401C14.8414 3.21713 15.0286 3.18536 15.2109 3.13687C15.3346 2.88775 15.2911 2.62193 15.2978 2.36278H15.3028ZM8.71027 14.4594C9.57634 14.2888 10.4558 14.2437 11.3369 14.2437C18.329 14.2437 25.3195 14.2437 32.3116 14.2437C32.6677 14.2437 33.0256 14.2437 33.3817 14.232C33.4904 14.2287 33.5974 14.1885 33.701 14.1651C33.6609 13.9277 33.4987 13.8608 33.3717 13.7655C33.0874 13.5498 32.7815 13.3609 32.5173 13.1252C32.213 12.8526 31.8786 12.7674 31.4773 12.7707C29.3138 12.7908 27.1486 12.7891 24.9851 12.7941C24.6992 12.7941 24.4133 12.7991 24.1291 12.7807C23.8014 12.7573 23.6877 12.6537 23.6843 12.3444C23.6776 11.7257 23.6776 11.1071 23.7094 10.4902C23.7345 9.98523 23.8716 9.86652 24.3615 9.83809C24.6457 9.82137 24.9316 9.82138 25.2175 9.82138C26.3829 9.82472 27.5482 9.83308 28.7119 9.83642C28.8273 9.83642 28.9493 9.85983 29.0546 9.77623C29.1198 9.6174 28.9677 9.57893 28.8891 9.51372C28.6166 9.28467 28.3625 9.00881 28.0498 8.85833C27.7254 8.70284 27.3493 8.87504 26.9948 8.89176C24.9768 8.98706 22.9587 9.0857 20.9373 9.09406C18.8691 9.10409 16.7992 9.1459 14.7377 9.32981C12.7965 9.5037 10.8654 9.76619 8.96274 10.2076C8.66345 10.2778 8.37086 10.3865 8.08328 10.4968C7.8977 10.5687 7.85256 10.7092 7.91944 10.9015C7.94284 10.9683 7.97628 11.0319 8.00136 11.0988C8.25717 11.7374 8.25382 11.7023 8.87412 11.7057C9.63486 11.709 10.3956 11.7006 11.1564 11.7124C11.4205 11.7157 11.6044 11.6288 11.7465 11.403C11.9622 11.0603 12.1813 10.7209 12.3133 10.3347C12.3802 10.1374 12.5223 10.0354 12.7213 9.97853C13.1159 9.86651 13.5188 9.85816 13.9234 9.85983C15.3747 9.86317 16.8243 9.87153 18.2755 9.8732C19.2269 9.8732 20.1816 9.91165 21.1279 9.85146C21.902 9.8013 22.3769 10.2009 22.8049 10.7326C22.9069 10.8597 22.9554 11.0285 23.0256 11.179C23.1125 11.3663 23.1008 11.5519 22.9804 11.7207C22.7865 11.9916 22.5842 12.2574 22.3167 12.4614C22.0659 12.652 21.7917 12.7858 21.464 12.7707C21.3453 12.7657 21.2265 12.7707 21.1078 12.7707C16.9931 12.7707 12.8801 12.7707 8.76546 12.7707C8.71864 12.7707 8.67014 12.7707 8.62332 12.7707C7.86091 12.7841 7.96625 12.6754 7.5817 13.3743C7.26068 13.9561 6.92128 14.5296 6.58856 15.1048C6.51667 15.2285 6.4414 15.3489 6.43639 15.4977C6.34443 15.5194 6.45144 15.5846 6.40296 15.5044C6.38791 15.4793 6.42137 15.4642 6.42137 15.511C7.04668 14.8657 7.86593 14.6266 8.71194 14.4594H8.71027ZM3.86661 18.0407C10.2167 18.0441 16.5651 18.0407 22.9152 18.0424C30.5494 18.0474 38.1819 18.0574 45.816 18.0658C46.03 18.0658 46.2474 18.0524 46.4564 18.0892C47.075 18.1996 47.3325 18.8332 46.9597 19.3365C46.7908 19.5639 46.5835 19.7645 46.3795 19.9635C45.7475 20.5771 45.0937 21.1639 44.3965 21.7023C44.2678 21.8009 44.1324 21.8912 44.1508 22.0986C44.1875 22.4948 43.9418 22.7255 43.6174 22.8543C43.288 22.9847 42.9419 23.0934 42.5942 23.1485C42.1026 23.2271 41.601 23.2505 41.1045 23.289C40.7433 23.3174 40.3939 23.2305 40.0511 23.1385C39.7368 23.0532 39.603 22.7891 39.6799 22.4697C39.7552 22.1604 39.9458 21.9147 40.1347 21.6705C40.6881 20.9583 41.2449 20.246 41.8 19.5338C41.8434 19.4769 41.8852 19.4201 41.9254 19.3616C41.9805 19.2763 41.9254 19.1626 41.8217 19.1559C41.6796 19.1476 41.5375 19.1442 41.3937 19.1442C37.7321 19.1292 34.0689 19.1124 30.4073 19.1041C29.4091 19.1024 28.4093 19.1275 27.4111 19.1526C27.06 19.1609 27.0082 19.2245 26.9931 19.5806C26.9814 19.8899 26.9914 20.1992 26.968 20.5068C26.9413 20.8613 26.7841 21.0101 26.4263 21.0419C26.2608 21.0569 26.0936 21.0452 25.9281 21.0452C25.0955 21.0469 24.2628 21.0519 23.4319 21.0502C23.1944 21.0502 22.9554 21.0452 22.7196 21.0151C22.4437 20.9783 22.305 20.8279 22.2766 20.542C22.2548 20.3296 22.2598 20.1139 22.2548 19.9016C22.2498 19.7361 22.2514 19.5689 22.2431 19.4034C22.2364 19.2696 22.1628 19.1827 22.0291 19.166C21.912 19.1509 21.7917 19.1492 21.673 19.1459C18.9861 19.089 16.2993 19.1057 13.6125 19.1459C13.4703 19.1475 13.3282 19.1593 13.1861 19.1743C13.049 19.1893 12.9738 19.2796 12.962 19.4101C12.9453 19.6224 12.9437 19.8381 12.9336 20.0504C12.9253 20.2159 12.9253 20.3831 12.9019 20.5486C12.8634 20.8312 12.7297 20.9683 12.4488 21.0185C12.3334 21.0402 12.213 21.0436 12.0943 21.0436C11.1196 21.0469 10.1448 21.0469 9.17006 21.0469C9.09816 21.0469 9.02626 21.0469 8.95604 21.0419C8.57316 21.0084 8.43773 20.8931 8.41265 20.5202C8.38925 20.1892 8.40264 19.8548 8.39094 19.5221C8.38091 19.2445 8.31734 19.1626 8.06655 19.1609C6.09364 19.1442 4.12074 19.1225 2.14951 19.1927C2.1261 19.1927 2.10438 19.2077 2.08432 19.2144C2.01242 19.3365 2.06927 19.4401 2.12779 19.5455C2.90191 20.9917 3.67934 22.4363 4.4451 23.8859C4.5705 24.1233 4.73102 24.2437 5.00188 24.2403C5.38141 24.2353 5.76259 24.252 6.1438 24.2537C13.7529 24.2554 21.3636 24.2537 28.9727 24.2571C34.0622 24.2571 39.1499 24.2637 44.2394 24.2688C44.3347 24.2688 44.43 24.2621 44.5253 24.2688C44.9901 24.3055 45.3312 24.1283 45.6254 23.7538C46.5517 22.5767 47.5047 21.4214 48.451 20.2611C49.1265 19.4318 49.8087 18.6075 50.4842 17.7765C50.6179 17.611 50.7383 17.4338 50.8553 17.2566C50.9038 17.183 50.8537 17.1078 50.7834 17.0961C50.643 17.0743 50.4992 17.071 50.3571 17.071C45.3629 17.076 40.3688 17.0844 35.3763 17.086C32.4755 17.086 29.5746 17.0777 26.6738 17.076C19.3489 17.0727 12.0258 17.0693 4.70092 17.071C3.60913 17.071 3.93514 17.0091 3.26302 17.7364C3.2162 17.7866 3.18947 17.8535 3.11925 17.9672C3.40683 18.0942 3.64592 18.0457 3.87665 18.0457L3.86661 18.0407ZM44.4116 15.4559C39.8488 15.17 35.2844 15.3606 30.7199 15.3422C24.0388 15.3171 17.356 15.3372 10.6748 15.3355C10.0796 15.3355 9.48608 15.3539 8.89922 15.4642C8.59827 15.5211 8.30566 15.5913 8.04985 15.7786C8.11506 15.9575 8.25217 15.904 8.35249 15.9056C9.75526 15.9341 11.158 15.9775 12.5608 15.9792C21.6679 15.9859 30.7751 15.9842 39.8822 15.9792C41.7364 15.9792 43.5907 15.9424 45.4465 15.9458C46.9195 15.9491 48.3909 16.0227 49.8605 15.9692C48.0632 15.6297 46.2374 15.5696 44.4133 15.4542L44.4116 15.4559ZM43.5672 25.3087C31.7482 25.3121 19.9291 25.3171 8.11002 25.3204C7.25398 25.3204 6.39796 25.3238 5.54192 25.3305C5.48173 25.3305 5.38139 25.3371 5.40313 25.4408C5.41651 25.5027 5.46 25.5695 5.51016 25.608C5.63054 25.7016 5.78101 25.6782 5.92145 25.6816C6.51667 25.6916 7.1102 25.7083 7.70542 25.7083C18.6919 25.7116 29.6783 25.7117 40.6648 25.7117C41.4974 25.7117 42.33 25.6966 43.161 25.6849C43.3265 25.6832 43.497 25.6849 43.6575 25.6515C43.7997 25.623 43.9217 25.5411 43.9067 25.3338C43.7946 25.3254 43.6793 25.3104 43.5639 25.3104L43.5672 25.3087ZM41.805 22.1805C42.0508 22.1872 42.2481 22.122 42.427 21.9197C42.6293 21.6923 42.8935 21.5217 43.1326 21.3278C43.9017 20.6975 44.6724 20.0688 45.4398 19.4368C45.4883 19.3967 45.5335 19.3265 45.5368 19.2679C45.5418 19.1726 45.4432 19.1693 45.3797 19.1693C44.8112 19.1693 44.2427 19.1743 43.6743 19.1793C43.5506 19.1793 43.4452 19.2261 43.3666 19.3265C42.6494 20.2327 41.9304 21.1388 41.1713 22.0969C41.4288 22.2306 41.6194 22.1755 41.8067 22.1805H41.805ZM30.1164 11.0269C30.0478 10.9533 29.9709 10.9115 29.8706 10.9098C29.7051 10.9065 29.5395 10.8998 29.374 10.9015C28.12 10.9048 26.8661 10.9081 25.6104 10.9132C25.4449 10.9132 25.2794 10.9115 25.1139 10.9215C24.9032 10.9332 24.8346 11.0118 24.8279 11.2375C24.8246 11.3312 24.8279 11.4264 24.8363 11.5201C24.848 11.6538 24.9216 11.7358 25.057 11.7508C25.1506 11.7608 25.2459 11.7675 25.3396 11.7659C26.9965 11.7609 28.6534 11.7558 30.3103 11.7491C30.4257 11.7491 30.5427 11.7358 30.7734 11.7207C30.4975 11.4315 30.3036 11.2308 30.1147 11.0269H30.1164ZM17.7556 4.67341C17.5934 4.38918 17.3743 4.2688 17.0583 4.30057C16.9396 4.31227 16.8209 4.31562 16.7039 4.32733C16.5384 4.34238 16.4464 4.43599 16.4431 4.60151C16.4381 5.02786 16.4347 5.45589 16.433 5.88224C16.433 6.66137 16.3996 6.6179 17.167 6.61623C17.6636 6.61623 18.1602 6.61623 18.7588 6.61623C18.416 5.87053 18.095 5.26863 17.7556 4.67341ZM21.5894 6.59282C21.6964 6.59115 21.7532 6.47412 21.6897 6.39387C21.6028 6.28184 21.5058 6.1765 21.4155 6.06615C21.0226 5.58964 20.618 5.1215 20.2451 4.62827C20.0879 4.41927 19.9258 4.29222 19.6616 4.30559C19.4961 4.31395 19.3289 4.30391 19.1634 4.31227C19.0045 4.31895 18.9343 4.41927 19.0062 4.54132C19.3523 5.13821 19.675 5.74514 19.8907 6.40556C19.9291 6.52427 20.0328 6.59617 20.1649 6.59951C20.4023 6.60453 20.6397 6.59951 20.8771 6.59951V6.59617C21.1145 6.59617 21.3519 6.59951 21.5894 6.59617V6.59282ZM23.7144 7.55419C23.2195 7.59934 22.7196 7.60435 22.2214 7.61773C20.4675 7.66622 18.7119 7.71136 16.9581 7.75984C16.8628 7.76319 16.7691 7.76654 16.6738 7.7749C16.5651 7.78494 16.51 7.85683 16.4949 7.95882C16.4765 8.08087 16.5702 8.18118 16.7089 8.1795C16.8276 8.1795 16.9463 8.17449 17.0634 8.15944C18.3157 8.00228 19.5747 8.03739 20.8303 8.019C21.8034 8.00563 22.7764 8.01565 23.7478 8.01231C24.0053 8.01231 24.2662 8.03573 24.5989 7.89863C24.3113 7.61774 24.0488 7.5241 23.7127 7.55419H23.7144ZM16.0819 11.7425C16.5317 11.7909 16.729 11.5518 16.8895 11.2091C16.9697 11.0386 16.9162 10.9282 16.734 10.9282C15.7392 10.9299 14.746 10.9349 13.7512 10.9449C13.3198 10.9483 13.0841 11.1288 12.9236 11.5702C12.9019 11.6304 12.932 11.709 13.029 11.7124C13.0992 11.714 13.1711 11.7224 13.2413 11.7224C13.7379 11.7224 14.2361 11.7224 14.7327 11.7224V11.7324C15.1824 11.7324 15.6372 11.694 16.0803 11.7425H16.0819ZM21.0861 11.7241C21.2266 11.7224 21.372 11.714 21.5041 11.6722C21.6395 11.6288 21.7632 11.5268 21.7933 11.3813C21.8301 11.2007 21.6646 11.1506 21.5442 11.0837C21.4004 11.0018 21.255 10.9382 21.0777 10.9416C20.2719 10.955 19.4643 10.965 18.6567 10.9583C18.2956 10.955 18.0833 11.1121 17.9679 11.4432C17.9094 11.6154 17.9562 11.699 18.1669 11.7023C18.6885 11.709 19.2102 11.704 19.7335 11.704C19.7335 11.7124 19.7335 11.719 19.7335 11.7274C20.1849 11.7274 20.6347 11.7308 21.0861 11.7257V11.7241ZM23.681 19.176C23.4603 19.1843 23.4001 19.2863 23.4068 19.5706C23.4118 19.8013 23.472 19.8899 23.6793 19.8966C24.2896 19.915 24.9015 19.9233 25.5134 19.9267C25.6255 19.9267 25.7592 19.9267 25.8161 19.7946C25.893 19.619 25.9264 19.4318 25.8345 19.2546C25.8094 19.2061 25.7191 19.1676 25.6573 19.166C25.3279 19.1576 24.9985 19.1626 24.6691 19.1626V19.1743C24.3397 19.1743 24.0104 19.1643 23.681 19.1776V19.176ZM11.5492 19.9016C11.7666 19.8899 11.8218 19.7879 11.8185 19.4903C11.8151 19.2629 11.7532 19.1743 11.5392 19.171C10.9473 19.1626 10.3555 19.1609 9.76361 19.171C9.55294 19.1743 9.47605 19.3064 9.48441 19.5756C9.49109 19.7929 9.56299 19.8866 9.77532 19.8949C10.083 19.9066 10.3906 19.8983 10.6982 19.8983V19.9033C10.9825 19.9033 11.2667 19.915 11.5509 19.8999L11.5492 19.9016ZM35.5903 13.8809C34.3581 12.9563 33.1242 12.0334 31.8886 11.1121C31.8134 11.057 31.7264 11.0152 31.6412 10.9734C31.5927 10.95 31.5542 10.9767 31.5442 11.0352C31.5409 11.057 31.5442 11.0904 31.5576 11.1038C31.6629 11.1991 31.7666 11.2977 31.8803 11.3813C32.6644 11.9565 33.4452 12.535 34.2394 13.0984C34.6841 13.4144 35.1306 13.7271 35.5201 14.1116C35.6372 14.227 35.7525 14.3624 36.0033 14.2387C35.8411 14.0982 35.7224 13.9812 35.5903 13.8826V13.8809ZM16.9999 1.34789C16.9965 1.22918 16.963 1.10044 16.8025 1.12218C16.6654 1.14057 16.5083 1.15561 16.4665 1.32782C16.4448 1.41811 16.4397 1.51509 16.4414 1.6104C16.4447 2.06015 16.4464 2.51157 16.4615 2.96133C16.4665 3.14525 16.6103 3.17868 16.7624 3.18369C16.9012 3.18704 16.9948 3.12518 16.9982 2.98307C17.0065 2.69883 16.9999 2.41461 16.9999 2.13037C16.9999 2.13037 16.9999 2.13037 17.0015 2.13037C17.0015 1.86955 17.0065 1.60871 16.9982 1.34789H16.9999Z" fill="white"/>
</svg>
