<svg width="14" height="14" viewBox="0 0 14 14" fill="none" xmlns="http://www.w3.org/2000/svg">
<path d="M12.3651 11.9535C12.3775 11.9447 12.3972 11.9285 12.424 11.8998L13.2721 12.6982C13.0726 12.9114 12.8281 13.0694 12.5348 13.1131C12.2451 13.1562 11.9913 13.0753 11.7958 12.9738C11.6052 12.8748 11.4362 12.7387 11.2987 12.6186C11.232 12.5603 11.1389 12.4746 11.0554 12.3976C10.9972 12.344 10.9436 12.2947 10.9067 12.2617C10.6323 12.0169 10.5036 11.961 10.4426 11.9583L10.442 11.9583C10.4342 11.9579 10.4058 11.9565 10.343 11.9999C10.2682 12.0516 10.1526 12.1628 10.0044 12.3901L10.0013 12.3949C9.83194 12.6493 9.62007 12.8648 9.34524 12.9797C9.05558 13.1008 8.77413 13.0781 8.53824 12.9982C8.31764 12.9235 8.1249 12.7955 7.97298 12.6818C7.86378 12.6001 7.74756 12.5036 7.64487 12.4182C7.60719 12.3869 7.57134 12.3572 7.53832 12.3302C7.23828 12.0849 7.08089 12.0016 6.97978 11.9944L6.97868 11.9943C6.96128 11.9925 6.80469 11.976 6.51425 12.4144C6.35495 12.6588 6.14508 12.8656 5.865 12.9677C5.57885 13.072 5.30632 13.0355 5.08758 12.9599C4.87789 12.8875 4.68794 12.7692 4.53343 12.6624C4.4318 12.5921 4.31977 12.508 4.21846 12.4319L4.21844 12.4319C4.1708 12.3961 4.12553 12.3621 4.08483 12.3322C3.77574 12.1049 3.59633 12.0151 3.47297 12.0076L3.47112 12.0075C3.4345 12.0052 3.28337 11.9954 3.02616 12.3901L3.02304 12.3949C2.76901 12.7765 2.38396 13.1141 1.87487 13.1141C1.36344 13.1141 0.980211 12.7738 0.730469 12.3895L1.70477 11.7524C1.78852 11.8812 1.84844 11.9268 1.87549 11.9421C1.90311 11.9272 1.96588 11.8816 2.05443 11.749C2.44856 11.1455 2.94448 10.8069 3.54295 10.8431C4.05205 10.8739 4.48916 11.183 4.77247 11.3913C4.83509 11.4374 4.89076 11.4792 4.94282 11.5184L4.94285 11.5184C5.03123 11.5849 5.10925 11.6435 5.19338 11.7017C5.32199 11.7906 5.40811 11.8367 5.46644 11.8569L5.47573 11.86C5.49024 11.8454 5.51257 11.8194 5.54139 11.7751L5.54396 11.7711C5.95152 11.1549 6.45102 10.7873 7.06198 10.8307C7.58199 10.8676 8.00988 11.2107 8.27302 11.4258C8.32319 11.4668 8.36887 11.5047 8.41177 11.5404C8.50447 11.6174 8.58421 11.6837 8.6683 11.7466C8.78865 11.8367 8.86437 11.8773 8.91014 11.8928L8.91116 11.8932C8.93197 11.8767 8.97396 11.8369 9.0327 11.749C9.41996 11.1558 9.89522 10.7665 10.4935 10.7928C11.0166 10.8157 11.4302 11.1674 11.6796 11.39C11.7611 11.4627 11.8194 11.5169 11.8733 11.567C11.9332 11.6227 11.9877 11.6734 12.0626 11.7389C12.1808 11.8421 12.2658 11.9041 12.3304 11.9377C12.3454 11.9455 12.3568 11.9504 12.3651 11.9535Z" fill="black"/>
<path fill-rule="evenodd" clip-rule="evenodd" d="M2.91602 3.79171C2.91602 3.46954 3.17718 3.20837 3.49935 3.20837H7.87435C8.03972 3.20837 8.19732 3.27856 8.30794 3.40148L10.9329 6.31823L10.0658 7.09867L7.61455 4.37504H4.08268V6.70845H2.91602V3.79171Z" fill="black"/>
<path fill-rule="evenodd" clip-rule="evenodd" d="M4.08203 0.875H5.83203C6.1542 0.875 6.41536 1.13617 6.41536 1.45833V3.79167H5.2487V2.04167H4.08203V0.875Z" fill="black"/>
<path d="M1.16602 6.27087C1.03315 6.27087 0.907478 6.33126 0.824451 6.43499C0.741424 6.53873 0.710039 6.67458 0.739147 6.80422L1.64459 10.8369C2.12243 10.2948 2.77127 9.91095 3.59674 9.96086C4.3825 10.0084 5.02393 10.4804 5.29799 10.6821C5.75778 10.2226 6.36177 9.89481 7.12498 9.94905C7.88685 10.0032 8.47816 10.4549 8.75705 10.6816C9.19167 10.2286 9.77495 9.87647 10.5329 9.90978C11.2226 9.94008 11.7593 10.3057 12.0686 10.5598C12.1068 10.5206 12.1437 10.4801 12.1794 10.4386C12.5658 9.9882 12.807 9.41007 12.9614 8.87034C13.1172 8.32555 13.1937 7.78666 13.2317 7.38791C13.2508 7.1875 13.2604 7.02001 13.2653 6.90169C13.2676 6.84453 13.2694 6.74821 13.2701 6.71204L13.2702 6.70837C13.2702 6.46675 13.0743 6.27087 12.8327 6.27087H1.16602Z" fill="black"/>
</svg>
