<?xml version="1.0" encoding="UTF-8"?>
<svg id="Layer_1" data-name="Layer 1" xmlns="http://www.w3.org/2000/svg" viewBox="0 0 8.94 10">
  <defs>
    <style>
      .cls-1 {
        fill: none;
        stroke: #000;
        stroke-miterlimit: 10;
        stroke-width: .25px;
      }
    </style>
  </defs>
  <g>
    <path class="cls-1" d="M4.35,7.81h0c-.36-.09-.56-.33-.6-.79-.03,.57-.14,.79-.75,.79-.3,0-.56-.33-.6-.79-.04,.72-.3,.81-1.22,.79"/>
    <path class="cls-1" d="M4.34,7.81h0c.52-.03,.7-.23,.73-.79,.04,.46,.24,.7,.6,.79h.01"/>
    <path class="cls-1" d="M7.5,7.82c-.77,.03-1.02-.1-1.09-.8-.03,.57-.21,.77-.73,.79,0,0,0,0-.01,0"/>
  </g>
  <path class="cls-1" d="M1.17,2.99v-.21c0-.52,.42-.94,.94-.94h0c.52,0,.94,.42,.94,.94v3.72"/>
  <path class="cls-1" d="M3.99,2.99v-.21c0-.52,.42-.94,.94-.94h0c.52,0,.94,.42,.94,.94v3.72"/>
  <line class="cls-1" x1="3.04" y1="3.56" x2="5.87" y2="3.56"/>
  <line class="cls-1" x1="3.04" y1="4.67" x2="5.87" y2="4.67"/>
  <line class="cls-1" x1="3.04" y1="5.78" x2="5.87" y2="5.78"/>
</svg>