<?xml version="1.0" encoding="UTF-8"?>
<svg id="Layer_1" data-name="Layer 1" xmlns="http://www.w3.org/2000/svg" viewBox="0 0 8.27 10">
  <defs>
    <style>
      .cls-1 {
        stroke-width: .25px;
      }

      .cls-1, .cls-2 {
        fill: none;
        stroke: #000;
        stroke-miterlimit: 10;
      }

      .cls-2 {
        stroke-width: .26px;
      }
    </style>
  </defs>
  <g>
    <path class="cls-1" d="M3.8,6.62h.01c.36,.09,.56,.33,.6,.79,.03-.57,.14-.79,.75-.79,.3,0,.56,.33,.6,.79,.04-.72,.3-.81,1.22-.79"/>
    <path class="cls-1" d="M3.81,6.62h-.01c-.52,.03-.7,.23-.73,.79-.04-.46-.24-.7-.6-.79h0"/>
    <path class="cls-1" d="M.64,6.61c.77-.03,1.02,.1,1.09,.8,.03-.57,.21-.77,.73-.79,0,0,0,0,0,0"/>
  </g>
  <path class="cls-2" d="M2.89,5.8c.03-.56,.27-1.08,.88-1.53h2.17"/>
  <line class="cls-2" x1="5.57" y1="5.89" x2="3.77" y2="4.27"/>
  <circle cx="2.02" cy="4.38" r=".5"/>
</svg>