<?xml version="1.0" encoding="UTF-8"?>
<svg id="Layer_1" data-name="Layer 1" xmlns="http://www.w3.org/2000/svg" viewBox="0 0 8.95 10">
  <path d="M7.32,2.73h-.59v-.24c0-.35-.28-.63-.63-.63H2.11c-.35,0-.63,.28-.63,.63v.24h-.32c-.06,0-.11,.05-.11,.11s.05,.11,.11,.11h.32V7.57c0,.06,.05,.11,.11,.11h.63v.41c0,.06,.05,.11,.11,.11H6.62c.06,0,.11-.05,.11-.11V2.95h.59c.06,0,.11-.05,.11-.11s-.05-.11-.11-.11ZM2.3,5.83c.16,0,.24,.05,.34,.1,.1,.05,.2,.11,.37,.11s.28-.06,.37-.11,.17-.1,.34-.1c.17,0,.26,.05,.35,.1,.1,.05,.2,.11,.37,.11s.28-.06,.37-.11,.17-.1,.34-.1c.17,0,.26,.05,.35,.1,.07,.04,.15,.08,.26,.1v.23c-.05-.02-.1-.04-.15-.07-.1-.06-.23-.13-.46-.13h0c-.22,0-.35,.07-.45,.13-.08,.05-.15,.08-.26,.08s-.18-.04-.26-.08c-.1-.06-.23-.13-.46-.13-.22,0-.35,.07-.45,.13-.08,.05-.15,.08-.26,.08s-.18-.04-.26-.08c-.1-.06-.23-.13-.46-.13-.22,0-.35,.07-.45,.13-.05,.03-.09,.05-.14,.07v-.23c.11-.02,.19-.06,.25-.1,.09-.05,.17-.1,.34-.1Zm-.6,.66c.11-.02,.19-.06,.25-.1,.09-.05,.17-.1,.34-.1,.16,0,.24,.05,.34,.1,.1,.05,.2,.11,.37,.11s.28-.06,.37-.11c.09-.05,.17-.1,.34-.1h0c.16,0,.24,.04,.34,.1,.1,.05,.2,.11,.37,.11s.28-.06,.37-.11c.09-.05,.17-.1,.34-.1,.16,0,.24,.05,.34,.1,.07,.04,.15,.08,.26,.1v.23c-.05-.02-.1-.04-.15-.07-.1-.06-.23-.13-.46-.13h0c-.22,0-.35,.07-.45,.13-.08,.05-.15,.08-.26,.08s-.18-.04-.26-.08c-.11-.06-.23-.13-.46-.13-.22,0-.35,.07-.45,.13-.08,.05-.15,.08-.26,.08s-.18-.04-.26-.08c-.1-.06-.23-.13-.46-.13-.22,0-.35,.07-.45,.13-.05,.03-.09,.05-.14,.07v-.23Zm0,.46c.11-.02,.19-.06,.25-.1,.09-.05,.17-.1,.34-.1h0c.16,0,.25,.05,.34,.1,.1,.05,.2,.11,.37,.11s.28-.06,.37-.11c.09-.05,.17-.1,.34-.1h0c.16,0,.24,.05,.34,.1,.1,.05,.2,.11,.37,.11s.28-.06,.37-.11c.09-.05,.17-.1,.34-.1h0c.16,0,.25,.05,.34,.1,.07,.04,.15,.08,.26,.1v.5H1.7v-.5ZM5.75,2.72v3.08c-.05-.02-.1-.04-.15-.07-.1-.06-.23-.13-.45-.13h0c-.22,0-.35,.07-.45,.13-.08,.05-.15,.08-.26,.08s-.18-.04-.26-.08c-.11-.06-.23-.13-.46-.13h0c-.22,0-.35,.07-.45,.13-.08,.05-.15,.08-.26,.08s-.18-.04-.26-.08c-.1-.06-.23-.13-.46-.13h0c-.22,0-.35,.07-.45,.13-.05,.03-.09,.05-.14,.07V2.48c0-.22,.18-.4,.4-.4h4c.07,0,.14,.02,.2,.06-.02,0-.04,0-.06,0-.3,0-.49,.23-.49,.58ZM2.44,7.69h3.42c.06,0,.11-.05,.11-.11V2.95h.53V7.99H2.44v-.3ZM5.98,2.72c0-.11,.03-.36,.26-.36s.26,.25,.26,.36h0s-.53,0-.53,0h0Z"/>
</svg>