<?xml version="1.0" encoding="UTF-8"?>
<svg id="Layer_1" data-name="Layer 1" xmlns="http://www.w3.org/2000/svg" viewBox="0 0 10.06 10">
  <g id="_21" data-name="21">
    <g>
      <path d="M3,5.56c0,1.3-.19,3.75-.89,3.75h-.59c-.7,0-.89-2.45-.89-3.75s.19-3.75,.89-3.75h.59c.7,0,.89,2.45,.89,3.75Zm-2.11,0c0,2.26,.41,3.49,.63,3.49h.59c.21,0,.63-1.23,.63-3.49s-.41-3.49-.63-3.49h-.59c-.21,0-.63,1.23-.63,3.49h0Z"/>
      <path d="M1.8,5.56c0,1.56-.23,1.56-.31,1.56s-.31,0-.31-1.56,.23-1.56,.31-1.56c.08,0,.31,0,.31,1.56Zm-.23-1.33h0s0,0,0,0Zm-.08,2.28c.03-.22,.05-.55,.05-.96s-.02-.73-.05-.96c-.03,.22-.05,.55-.05,.96,0,.41,.02,.73,.05,.96h0Z"/>
      <path d="M2.4,5.56c0,1.3-.19,3.75-.89,3.75-.07,0-.13-.06-.13-.13s.06-.13,.13-.13c.21,0,.63-1.23,.63-3.49s-.41-3.49-.63-3.49c-.07,0-.13-.06-.13-.13s.06-.13,.13-.13c.7,0,.89,2.45,.89,3.75h0Z"/>
      <path d="M9.42,5.56c0,1.3-.19,3.75-.89,3.75h-.59c-.31,0-.55-.47-.71-1.39-.01-.07,.03-.14,.11-.15,.07-.01,.14,.03,.15,.11,.17,.96,.39,1.18,.45,1.18h.59c.21,0,.63-1.23,.63-3.49s-.41-3.49-.63-3.49h-.59c-.06,0-.28,.22-.45,1.18-.01,.07-.08,.12-.15,.11-.07-.01-.12-.08-.11-.15,.16-.92,.4-1.39,.71-1.39h.59c.7,0,.89,2.45,.89,3.75Z"/>
      <path d="M8.24,5.56c0,.4-.03,2.42-.53,2.42H2.74c-.07,0-.13-.06-.13-.13s.06-.13,.13-.13H7.69c.1-.11,.28-.84,.28-2.16s-.18-2.05-.28-2.16H2.74c-.07,0-.13-.06-.13-.13s.06-.13,.13-.13H7.71c.5,0,.53,2.02,.53,2.42h0Z"/>
      <g>
        <path d="M7.46,5.56c0,.31-.01,.6-.04,.89,0,.07-.07,.13-.14,.12-.07,0-.13-.07-.12-.14,.03-.27,.04-.56,.04-.86,0-1.35-.26-2.13-.39-2.16-.07,0-.13-.06-.13-.13s.06-.13,.13-.13c.52,0,.65,1.52,.65,2.42Z"/>
        <path d="M7.36,6.92s0,.01,0,.02c-.12,.69-.3,1.04-.55,1.04-.07,0-.13-.06-.13-.13s.06-.13,.13-.13c.04,0,.18-.18,.29-.82,.01-.07,.08-.12,.15-.11,.06,.01,.11,.07,.11,.13h0Zm-.55,.8h0s0,0,0,0Z"/>
      </g>
      <g>
        <path d="M6.73,5.56c0,.31-.01,.6-.04,.89,0,.07-.07,.13-.14,.12-.07,0-.13-.07-.12-.14,.03-.27,.04-.56,.04-.86,0-1.35-.26-2.13-.39-2.16-.07,0-.13-.06-.13-.13s.06-.13,.13-.13c.52,0,.65,1.52,.65,2.42Z"/>
        <path d="M6.63,6.92s0,.01,0,.02c-.12,.69-.3,1.04-.55,1.04-.07,0-.13-.06-.13-.13s.06-.13,.13-.13c.04,0,.18-.18,.29-.82,.01-.07,.08-.12,.15-.11,.06,.01,.11,.07,.11,.13h0Zm-.55,.8h0s0,0,0,0Z"/>
      </g>
      <g>
        <path d="M5.99,5.56c0,.31-.01,.6-.04,.89,0,.07-.07,.13-.14,.12-.07,0-.13-.07-.12-.14,.03-.27,.04-.56,.04-.86,0-1.35-.26-2.13-.39-2.16-.07,0-.13-.06-.13-.13s.06-.13,.13-.13c.52,0,.65,1.52,.65,2.42h0Z"/>
        <path d="M5.89,6.92s0,.01,0,.02c-.12,.69-.3,1.04-.55,1.04-.07,0-.13-.06-.13-.13s.06-.13,.13-.13c.04,0,.18-.18,.29-.82,.01-.07,.08-.12,.15-.11,.06,.01,.11,.07,.11,.13Zm-.55,.8h0s0,0,0,0Z"/>
      </g>
      <g>
        <path d="M5.26,5.56c0,.31-.01,.6-.04,.89,0,.07-.07,.13-.14,.12-.07,0-.12-.07-.12-.14,.03-.27,.04-.56,.04-.86,0-1.35-.26-2.13-.39-2.16-.07,0-.13-.06-.13-.13s.06-.13,.13-.13c.52,0,.65,1.52,.65,2.42h0Z"/>
        <path d="M5.16,6.92s0,.01,0,.02c-.12,.69-.3,1.04-.55,1.04-.07,0-.13-.06-.13-.13s.06-.13,.13-.13c.04,0,.18-.18,.29-.82,.01-.07,.08-.12,.15-.11,.06,.01,.11,.07,.11,.13Zm-.55,.8h0s0,0,0,0Z"/>
      </g>
      <g>
        <path d="M4.52,5.56c0,.31-.01,.6-.04,.89,0,.07-.07,.13-.14,.12-.07,0-.12-.07-.12-.14,.03-.27,.04-.56,.04-.86,0-1.35-.26-2.13-.39-2.16-.07,0-.13-.06-.13-.13s.06-.13,.13-.13c.52,0,.65,1.52,.65,2.42h0Z"/>
        <path d="M4.42,6.92s0,.01,0,.02c-.12,.69-.3,1.04-.55,1.04-.07,0-.13-.06-.13-.13s.06-.13,.13-.13c.04,0,.18-.18,.29-.82,.01-.07,.08-.12,.15-.11,.06,.01,.11,.07,.11,.13h0Zm-.55,.8h0s0,0,0,0Z"/>
      </g>
      <g>
        <path d="M3.79,5.56c0,.31-.01,.6-.04,.89,0,.07-.07,.13-.14,.12-.07,0-.12-.07-.12-.14,.03-.27,.04-.56,.04-.86,0-1.35-.26-2.13-.39-2.16-.07,0-.13-.06-.13-.13s.06-.13,.13-.13c.52,0,.65,1.52,.65,2.42h0Z"/>
        <path d="M3.68,6.92s0,.01,0,.02c-.12,.69-.3,1.04-.55,1.04-.07,0-.13-.06-.13-.13s.06-.13,.13-.13c.04,0,.18-.18,.29-.82,.01-.07,.08-.12,.15-.11,.06,.01,.11,.07,.11,.13h0Zm-.55,.8h0s0,0,0,0Z"/>
      </g>
      <path d="M8.82,5.56c0,1.3-.19,3.75-.89,3.75-.07,0-.13-.06-.13-.13s.06-.13,.13-.13c.21,0,.63-1.23,.63-3.49s-.41-3.49-.63-3.49c-.07,0-.13-.06-.13-.13s.06-.13,.13-.13c.7,0,.89,2.45,.89,3.75h0Z"/>
      <path d="M5.26,1.13c0,.18-.11,.34-.28,.41-.13,.05-.58,.48-.49,1.64,0,.07-.05,.14-.12,.14-.07,0-.14-.05-.14-.12-.11-1.3,.43-1.81,.65-1.9,.09-.04,.14-.15,.1-.24-.02-.05-.05-.08-.1-.1-.05-.02-.1-.02-.14,0-.38,.16-1,.81-.88,2.27,0,.07-.05,.14-.12,.14-.07,0-.14-.05-.14-.12-.14-1.61,.59-2.35,1.04-2.54,.11-.05,.23-.04,.34,0,.11,.05,.2,.13,.24,.24,.02,.05,.03,.11,.03,.17h0Z"/>
    </g>
  </g>
</svg>