<?xml version="1.0" encoding="UTF-8"?>
<svg id="Layer_1" data-name="Layer 1" xmlns="http://www.w3.org/2000/svg" viewBox="0 0 50 10">
  <defs>
    <style>
      .cls-1 {
        fill: none;
        stroke: #000;
        stroke-miterlimit: 10;
        stroke-width: .25px;
      }
    </style>
  </defs>
  <path class="cls-1" d="M10.77,2.46c-.65-.66-1.55-1.05-2.54-1.05s-1.89,.4-2.55,1.05-1.05,1.55-1.05,2.54,.41,1.89,1.05,2.54,1.56,1.05,2.55,1.05,1.89-.4,2.54-1.05c.65-.65,1.05-1.55,1.05-2.54s-.41-1.89-1.05-2.54Zm-1.95,3.13c-.15,.15-.35,.24-.59,.24s-.44-.09-.6-.24c-.15-.16-.24-.36-.24-.59s.1-.43,.24-.59c.16-.15,.36-.24,.6-.24s.44,.09,.59,.24c.15,.16,.24,.36,.24,.59s-.1,.43-.24,.59Z"/>
  <path class="cls-1" d="M10.19,3.04c-.5-.5-1.19-.81-1.96-.81s-1.46,.31-1.97,.81c-.5,.5-.81,1.19-.81,1.96s.31,1.46,.81,1.96c.51,.5,1.2,.81,1.97,.81s1.46-.31,1.96-.81c.5-.5,.81-1.19,.81-1.96s-.31-1.46-.81-1.96Zm-1.96,2.79c-.23,0-.44-.09-.6-.24-.15-.16-.24-.36-.24-.59s.1-.43,.24-.59c.16-.15,.36-.24,.6-.24s.44,.09,.59,.24c.15,.16,.24,.36,.24,.59s-.1,.43-.24,.59c-.15,.15-.35,.24-.59,.24Z"/>
  <line class="cls-1" x1="8.23" y1="7.77" x2="8.23" y2="5.83"/>
  <polyline class="cls-1" points="8.23 5.01 8.23 5 8.23 4.99"/>
  <line class="cls-1" x1="8.23" y1="4.17" x2="8.23" y2="2.23"/>
  <line class="cls-1" x1="8.23" y1="9.61" x2="8.23" y2="8.6"/>
  <line class="cls-1" x1="8.23" y1="1.4" x2="8.23" y2=".39"/>
  <line class="cls-1" x1="10.19" y1="6.96" x2="8.82" y2="5.59"/>
  <line class="cls-1" x1="8.23" y1="5.01" x2="8.23" y2="5"/>
  <line class="cls-1" x1="7.64" y1="4.41" x2="6.26" y2="3.04"/>
  <line class="cls-1" x1="11.48" y1="8.26" x2="10.77" y2="7.54"/>
  <line class="cls-1" x1="5.68" y1="2.46" x2="4.97" y2="1.74"/>
  <line class="cls-1" x1="11.01" y1="5" x2="9.06" y2="5"/>
  <line class="cls-1" x1="7.39" y1="5" x2="5.45" y2="5"/>
  <line class="cls-1" x1="12.84" y1="5" x2="11.83" y2="5"/>
  <line class="cls-1" x1="4.63" y1="5" x2="3.63" y2="5"/>
  <line class="cls-1" x1="10.19" y1="3.04" x2="8.82" y2="4.41"/>
  <line class="cls-1" x1="8.23" y1="5" x2="8.23" y2="4.99"/>
  <line class="cls-1" x1="7.64" y1="5.59" x2="6.26" y2="6.96"/>
  <line class="cls-1" x1="11.48" y1="1.74" x2="10.77" y2="2.46"/>
  <line class="cls-1" x1="5.68" y1="7.54" x2="4.97" y2="8.26"/>
</svg>