<?xml version="1.0" encoding="UTF-8"?>
<svg id="Layer_1" data-name="Layer 1" xmlns="http://www.w3.org/2000/svg" viewBox="0 0 9.98 10">
  <defs>
    <style>
      .cls-1 {
        fill: none;
        stroke: #000;
        stroke-miterlimit: 10;
        stroke-width: .25px;
      }
    </style>
  </defs>
  <circle class="cls-1" cx="4.94" cy="4.28" r=".64"/>
  <path class="cls-1" d="M3.81,5.51c-.33-.3-.54-.74-.54-1.23,0-.55,.26-1.03,.67-1.33"/>
  <path class="cls-1" d="M5.98,2.98c.38,.31,.62,.77,.62,1.3,0,.5-.22,.94-.56,1.25"/>
  <path class="cls-1" d="M7.07,2.07c.58,.56,.94,1.34,.94,2.21s-.34,1.61-.89,2.16"/>
  <path class="cls-1" d="M2.76,6.46c-.56-.56-.9-1.32-.9-2.17,0-.93,.41-1.76,1.06-2.32"/>
  <line class="cls-1" x1="4.94" y1="4.93" x2="4.94" y2="7.82"/>
</svg>