<?xml version="1.0" encoding="UTF-8"?>
<svg id="Layer_1" data-name="Layer 1" xmlns="http://www.w3.org/2000/svg" viewBox="0 0 50 10">
  <defs>
    <style>
      .cls-1 {
        fill: none;
        stroke: #000;
        stroke-miterlimit: 10;
        stroke-width: .25px;
      }
    </style>
  </defs>
  <polygon class="cls-1" points="9.67 5.85 8.38 5.85 8.53 4.35 9.53 4.35 9.67 5.85"/>
  <line class="cls-1" x1="9.04" y1="4.35" x2="9.04" y2=".52"/>
  <g>
    <g>
      <path d="M4.29,9.11c-.48,0-.87-.39-.87-.87V1.75c0-.48,.39-.87,.87-.87s.87,.39,.87,.87v6.48c0,.48-.39,.87-.87,.87h0Zm0-7.97c-.34,0-.61,.28-.61,.61v6.48c0,.34,.28,.61,.61,.61s.61-.28,.61-.61V1.75c0-.34-.28-.61-.61-.61h0Z"/>
      <g>
        <path d="M4.29,5.41c-.2,0-.37-.17-.37-.37v-.53c0-.2,.17-.37,.37-.37s.37,.17,.37,.37v.53c0,.2-.17,.37-.37,.37Zm0-1.01c-.06,0-.11,.05-.11,.11v.53c0,.06,.05,.11,.11,.11s.11-.05,.11-.11v-.53c0-.06-.05-.11-.11-.11Z"/>
        <path d="M4.53,5.85h-.48c-.07,0-.13-.06-.13-.13s.06-.13,.13-.13h.48c.07,0,.13,.06,.13,.13s-.06,.13-.13,.13Z"/>
      </g>
      <path d="M5.03,2.28h-1.49c-.07,0-.13-.06-.13-.13s.06-.13,.13-.13h1.49c.07,0,.13,.06,.13,.13s-.06,.13-.13,.13Z"/>
      <path d="M5.03,7.97h-1.49c-.07,0-.13-.06-.13-.13s.06-.13,.13-.13h1.49c.07,0,.13,.06,.13,.13s-.06,.13-.13,.13Z"/>
      <path d="M5.03,2.79h-1.49c-.07,0-.13-.06-.13-.13s.06-.13,.13-.13h1.49c.07,0,.13,.06,.13,.13s-.06,.13-.13,.13Z"/>
      <path d="M5.03,7.46h-1.49c-.07,0-.13-.06-.13-.13s.06-.13,.13-.13h1.49c.07,0,.13,.06,.13,.13s-.06,.13-.13,.13Z"/>
    </g>
    <g>
      <path d="M6.73,9.11c-.48,0-.87-.39-.87-.87V1.75c0-.48,.39-.87,.87-.87s.87,.39,.87,.87v6.48c0,.48-.39,.87-.87,.87h0Zm0-7.97c-.34,0-.61,.28-.61,.61v6.48c0,.34,.28,.61,.61,.61s.61-.28,.61-.61V1.75c0-.34-.28-.61-.61-.61h0Z"/>
      <path d="M7.48,2.28h-1.49c-.07,0-.13-.06-.13-.13s.06-.13,.13-.13h1.49c.07,0,.13,.06,.13,.13s-.06,.13-.13,.13Z"/>
      <path d="M7.48,7.97h-1.49c-.07,0-.13-.06-.13-.13s.06-.13,.13-.13h1.49c.07,0,.13,.06,.13,.13s-.06,.13-.13,.13Z"/>
      <path d="M7.48,2.79h-1.49c-.07,0-.13-.06-.13-.13s.06-.13,.13-.13h1.49c.07,0,.13,.06,.13,.13s-.06,.13-.13,.13Z"/>
      <path d="M7.48,7.46h-1.49c-.07,0-.13-.06-.13-.13s.06-.13,.13-.13h1.49c.07,0,.13,.06,.13,.13s-.06,.13-.13,.13Z"/>
      <g>
        <path d="M6.73,5.41c-.2,0-.37-.17-.37-.37v-.53c0-.2,.17-.37,.37-.37s.37,.17,.37,.37v.53c0,.2-.17,.37-.37,.37Zm0-1.01c-.06,0-.11,.05-.11,.11v.53c0,.06,.05,.11,.11,.11s.11-.05,.11-.11v-.53c0-.06-.05-.11-.11-.11Z"/>
        <path d="M6.98,5.85h-.48c-.07,0-.13-.06-.13-.13s.06-.13,.13-.13h.48c.07,0,.13,.06,.13,.13s-.06,.13-.13,.13Z"/>
      </g>
    </g>
  </g>
</svg>