<?xml version="1.0" encoding="UTF-8"?>
<svg id="Layer_1" data-name="Layer 1" xmlns="http://www.w3.org/2000/svg" viewBox="0 0 9.09 10">
  <defs>
    <style>
      .cls-1, .cls-2 {
        fill: none;
        stroke: #000;
        stroke-linecap: round;
        stroke-linejoin: round;
        stroke-width: .25px;
      }

      .cls-2, .cls-3 {
        fill-rule: evenodd;
      }
    </style>
  </defs>
  <g>
    <path id="_474560872" data-name=" 474560872" class="cls-3" d="M5.6,6.51s-.06,0-.08-.03c-.83-.69-1.29-1.62-1.29-2.6s.46-1.92,1.31-2.62c.03-.03,.08-.03,.12,0,.84,.7,1.31,1.63,1.31,2.62s-.46,1.9-1.29,2.6c-.02,.02-.05,.03-.08,.03h0Zm0-5.06c-.76,.66-1.18,1.52-1.18,2.43s.42,1.77,1.18,2.43c.76-.66,1.18-1.52,1.18-2.43,0-.91-.42-1.77-1.18-2.43h0Z"/>
    <path id="_474560224" data-name=" 474560224" class="cls-3" d="M6.29,7.36s-.03,0-.04,0c-.21-.1-.42-.15-.65-.15s-.44,.05-.65,.15c-.03,.01-.07,.01-.09,0-.03-.02-.04-.05-.04-.09,.06-.4,.21-.79,.45-1.11,.03-.04,.09-.05,.13-.02,.04,.03,.05,.09,.02,.13-.19,.26-.32,.56-.39,.87,.18-.07,.37-.1,.57-.1s.39,.03,.57,.1c-.07-.31-.2-.61-.39-.87-.03-.04-.02-.1,.02-.13,.04-.03,.1-.02,.13,.02,.24,.33,.39,.71,.45,1.11,0,.03,0,.07-.04,.09-.02,.01-.03,.02-.05,.02h0Z"/>
    <path id="_474559912" data-name=" 474559912" class="cls-3" d="M7.47,5.22s-.03,0-.04,0c-.21-.1-.42-.15-.65-.15-.04,0-.07,0-.1,0-.05,0-.1-.03-.1-.08,0-.05,.03-.1,.08-.1,.03,0,.07,0,.12,0,.19,0,.38,.03,.56,.1-.1-.38-.36-.91-.55-1.18-.03-.04-.02-.1,.02-.13,.04-.03,.1-.02,.13,.02,.24,.33,.56,1.02,.61,1.42,0,.03,0,.07-.04,.09-.02,.01-.03,.02-.05,.02h0Z"/>
    <path id="_474559528" data-name=" 474559528" class="cls-3" d="M3.73,5.22s-.04,0-.05-.02c-.03-.02-.04-.05-.04-.09,.06-.4,.38-1.1,.61-1.42,.03-.04,.09-.05,.13-.02,.04,.03,.05,.09,.02,.13-.19,.26-.45,.8-.55,1.18,.18-.07,.37-.1,.56-.1,.05,0,.09,0,.12,0,.05,0,.09,.05,.08,.1,0,.05-.05,.09-.1,.08-.03,0-.06,0-.1,0-.22,0-.44,.05-.65,.15-.01,0-.03,0-.04,0h0Z"/>
    <path id="_474558568" data-name=" 474558568" class="cls-3" d="M5.6,2.91c-.35,0-.69-.1-1.01-.31-.04-.03-.06-.08-.03-.13,.03-.04,.08-.06,.13-.03,.29,.18,.6,.28,.91,.28s.62-.09,.91-.28c.04-.03,.1-.01,.13,.03,.03,.04,.01,.1-.03,.13-.32,.2-.66,.31-1.01,.31Z"/>
    <path id="_474558016" data-name=" 474558016" class="cls-3" d="M5.83,2.39s-.06-.01-.08-.04l-.08-.11s-.02-.1,.02-.13c.04-.03,.1-.02,.13,.02l.08,.11s.02,.1-.02,.13c-.02,.01-.03,.02-.05,.02h0Z"/>
  </g>
  <path class="cls-2" d="M2.7,3.7v2.6c0,.45-.37,.82-.82,.82s-.81-.37-.81-.82v-1.49"/>
  <line class="cls-1" x1="2.7" y1="2.27" x2="2.7" y2="1.24"/>
  <polygon class="cls-3" points="1.06 4.53 .43 5.72 1.7 5.72 1.06 4.53"/>
  <circle class="cls-1" cx="2.7" cy="2.99" r=".71"/>
</svg>