<?xml version="1.0" encoding="UTF-8"?>
<svg id="Layer_1" data-name="Layer 1" xmlns="http://www.w3.org/2000/svg" viewBox="0 0 11.14 10">
  <defs>
    <style>
      .cls-1 {
        fill: none;
        stroke: #000;
        stroke-miterlimit: 10;
        stroke-width: .29px;
      }
    </style>
  </defs>
  <circle cx="2.94" cy="2.57" r=".54"/>
  <circle cx="7.3" cy="2.57" r=".54"/>
  <rect class="cls-1" x="2.49" y="3.57" width=".9" height="2.19"/>
  <line class="cls-1" x1="2.49" y1="7.77" x2="2.49" y2="5.76"/>
  <line class="cls-1" x1="3.38" y1="7.77" x2="3.38" y2="5.76"/>
  <path class="cls-1" d="M1.67,5.51c.2-.65,.47-1.3,.82-1.95"/>
  <path class="cls-1" d="M4.2,5.51c-.2-.65-.47-1.3-.82-1.95"/>
  <line class="cls-1" x1="5.17" y1="2.04" x2="5.17" y2="7.77"/>
  <path class="cls-1" d="M6.27,6.26h2.18c.05-1-.17-1.76-.67-2.28-.23-.25-.63-.27-.87-.03-.51,.5-.69,1.3-.65,2.32Z"/>
  <path class="cls-1" d="M5.91,5.25c.15-.75,.53-1.29,1.34-1.47"/>
  <path class="cls-1" d="M8.78,5.25c-.15-.75-.53-1.29-1.34-1.47"/>
  <line class="cls-1" x1="6.95" y1="7.77" x2="6.95" y2="6.26"/>
  <line class="cls-1" x1="7.92" y1="7.77" x2="7.92" y2="6.26"/>
</svg>