<?xml version="1.0" encoding="UTF-8"?>
<svg id="Layer_1" data-name="Layer 1" xmlns="http://www.w3.org/2000/svg" viewBox="0 0 8.38 10">
  <path d="M.74,3.89l.17,.17c-.11,.22-.07,.5,.12,.69l.28,.28c.08,.08,.21,.08,.28,0l.99-.99,1.96,1.96-.99,.99c-.08,.08-.08,.21,0,.28l.28,.28c.19,.19,.46,.22,.69,.12l.17,.17c.24,.24,.62,.24,.85,0l.43-.43,.43,.43c.08,.08,.21,.08,.28,0l.57-.57c.08-.08,.08-.21,0-.28l-.43-.43,.43-.43c.24-.24,.24-.62,0-.85l-.17-.17c.11-.22,.07-.5-.12-.69l-.28-.28c-.08-.08-.21-.08-.28,0l-.99,.99-1.96-1.96,.99-.99c.08-.08,.08-.21,0-.28l-.28-.28c-.19-.19-.46-.22-.69-.12l-.17-.17c-.24-.24-.62-.24-.85,0l-.43,.43-.43-.43c-.08-.08-.21-.08-.28,0l-.57,.57c-.08,.08-.08,.21,0,.28l.43,.43-.43,.43c-.24,.24-.24,.62,0,.85Zm.99-1.85l-.28,.28-.28-.28,.28-.28,.28,.28ZM6.25,7.13l.28-.28,.28,.28-.28,.28-.28-.28Zm-1.42,.28l1.99-1.99,.14,.14c.08,.08,.08,.21,0,.28l-1.71,1.71c-.08,.08-.21,.08-.28,0l-.14-.14Zm1.71-2.84l.14,.14c.08,.08,.08,.21,0,.28l-2.27,2.27c-.08,.08-.21,.08-.28,0l-.14-.14s2.47-2.47,2.56-2.56Zm-3.66-.82l.28-.28,1.96,1.96-.28,.28-1.96-1.96Zm-1.56,.43L3.58,1.9c.08-.08,.21-.08,.28,0l.14,.14-.99,.99h0s0,0,0,0l-1.56,1.56-.14-.14c-.08-.08-.08-.21,0-.28Zm-.28-.85l1.71-1.71c.08-.08,.21-.08,.28,0l.14,.14-1.99,1.99-.14-.14c-.08-.08-.08-.21,0-.28Z"/>
</svg>