<?xml version="1.0" encoding="UTF-8"?>
<svg id="Layer_1" data-name="Layer 1" xmlns="http://www.w3.org/2000/svg" viewBox="0 0 58.91 10">
  <path d="M8.77,6.63l-1.44-.66c-.2-.1-.45-.05-.6,.12l-.66,.72s-.02,.01-.03,0c-.6-.22-1.15-.55-1.63-.97-.18-.18-.34-.34-.51-.5-.37-.41-.85-1.2-.96-1.63,0-.01,0-.02,0-.03,.18-.16,.54-.49,.72-.66,.17-.15,.22-.39,.12-.6l-.66-1.44c-.08-.18-.27-.3-.47-.3h-.66c-.28,0-.55,.14-.73,.36-2.39,3.18,1.97,8.07,5.37,8.13,.74,0,1.47-.25,2.06-.7,.25-.2,.39-.51,.36-.83v-.57c0-.2-.12-.39-.3-.47ZM2.67,.99c.08,0,.16,.05,.2,.13l.66,1.44c.04,.08,.02,.18-.05,.24l-.22,.2L2.34,1h.33Zm5.86,7.26c-1,.78-2.3,.78-3.42,.27C2.57,7.59-.42,3.84,1.52,1.24c.12-.15,.3-.24,.49-.24,0,0,1.02,2.22,1.02,2.22l-.27,.24c-.1,.09-.13,.22-.09,.35,.12,.45,.62,1.29,1.02,1.73h0c.17,.22,.36,.41,.56,.56h0c.3,.26,.62,.49,.97,.68,.24,.13,.49,.25,.75,.33,.12,.04,.26,0,.35-.09l.24-.27s2.22,1.01,2.22,1.02c0,.19-.09,.37-.24,.49Zm.24-.82l-2.01-.92,.2-.22c.06-.07,.16-.09,.25-.05l1.44,.66c.08,.03,.12,.11,.12,.19v.33Z"/>
  <path d="M4.11,1.73c2.11-.04,3.98,1.82,3.93,3.93,0,.08,.07,.15,.15,.15,.08,0,.15-.07,.15-.15,.05-2.27-1.96-4.28-4.23-4.23-.08,0-.15,.07-.15,.15,0,.08,.07,.15,.15,.15Z"/>
  <path d="M6.86,5.12c0,.08,.07,.15,.15,.15,.08,0,.15-.07,.15-.15,0-1.39-1.13-2.51-2.52-2.51-.08,0-.15,.07-.15,.15,0,.08,.07,.15,.15,.15,1.22,0,2.21,.99,2.21,2.21Z"/>
  <path d="M5.03,3.94h0c0,.08,.07,.15,.15,.15h0c.27,0,.49,.22,.49,.49,0,.08,.07,.15,.15,.15,.08,0,.15-.07,.15-.15,0-.44-.36-.79-.8-.8-.08,0-.15,.07-.15,.15Z"/>
</svg>