<?xml version="1.0" encoding="UTF-8"?>
<svg id="Layer_1" data-name="Layer 1" xmlns="http://www.w3.org/2000/svg" viewBox="0 0 9.14 10">
  <path d="M6.52,3.61c-.02,.06,.01,.12,.08,.14,.09,.03,.18,.04,.26,.04s.18-.01,.26-.04c.06-.02,.09-.08,.08-.14-.02-.06-.08-.09-.14-.08-.13,.04-.26,.04-.39,0-.06-.02-.12,.01-.14,.08h0Z"/>
  <path d="M5.94,5.69c-.06,0-.11,.05-.11,.11s.05,.11,.11,.11h.41c.06,0,.11-.05,.11-.11s-.05-.11-.11-.11h-.41Z"/>
  <path d="M5.63,7.5c-.06,0-.11,.05-.11,.11v.46c0,.06,.05,.11,.11,.11s.11-.05,.11-.11v-.46c0-.06-.05-.11-.11-.11Z"/>
  <path d="M6.15,7.5c-.06,0-.11,.05-.11,.11v1.18c0,.06,.05,.11,.11,.11s.11-.05,.11-.11v-1.18c0-.06-.05-.11-.11-.11Z"/>
  <path d="M6.67,7.5c-.06,0-.11,.05-.11,.11v.46c0,.06,.05,.11,.11,.11s.11-.05,.11-.11v-.46c0-.06-.05-.11-.11-.11Z"/>
  <path d="M2.46,3.54c-.13,.04-.26,.04-.39,0-.06-.02-.12,.01-.14,.08s.01,.12,.08,.14c.09,.03,.18,.04,.26,.04s.18-.01,.26-.04c.06-.02,.09-.08,.08-.14-.02-.06-.08-.09-.14-.08Z"/>
  <path d="M3.18,5.69h-.41c-.06,0-.11,.05-.11,.11s.05,.11,.11,.11h.41c.06,0,.11-.05,.11-.11s-.05-.11-.11-.11Z"/>
  <path d="M2.46,7.5c-.06,0-.11,.05-.11,.11v.46c0,.06,.05,.11,.11,.11s.11-.05,.11-.11v-.46c0-.06-.05-.11-.11-.11Z"/>
  <path d="M2.97,7.5c-.06,0-.11,.05-.11,.11v1.18c0,.06,.05,.11,.11,.11s.11-.05,.11-.11v-1.18c0-.06-.05-.11-.11-.11Z"/>
  <path d="M3.49,7.5c-.06,0-.11,.05-.11,.11v.46c0,.06,.05,.11,.11,.11s.11-.05,.11-.11v-.46c0-.06-.05-.11-.11-.11Z"/>
  <path d="M8.16,4.03h-.32v-.38c0-.34-.28-.62-.62-.62h-.24V1.5c0-.13-.09-.24-.21-.29-.49-.17-.99-.17-1.48,0-.13,.04-.21,.16-.21,.29v2.53h-1.02V1.5c0-.13-.09-.24-.21-.29-.16-.05-.32-.09-.48-.11-.06,0-.12,.04-.13,.1s.04,.12,.1,.13c.14,.02,.29,.05,.43,.1,.03,.01,.06,.04,.06,.07v.39c-.48,.14-.97,.14-1.45,0v-.39s.02-.06,.06-.07c.16-.05,.31-.09,.47-.1,.06,0,.11-.06,.1-.13,0-.06-.06-.11-.13-.1-.17,.02-.35,.06-.52,.11-.13,.04-.21,.16-.21,.29v1.53h-.24c-.34,0-.62,.28-.62,.62v.38h-.33c-.17,0-.31,.14-.31,.31v.16c0,.17,.14,.31,.31,.31h.69l.28,.41c0,1.48,0,1.43,0,1.46l.18,.54c.03,.1,.12,.16,.23,.16h.35c.06,0,.11-.05,.11-.11s-.05-.11-.11-.11h-.35s0,0-.01,0l-.13-.39h1.54l-.13,.39s0,0-.01,0h-.45c-.06,0-.11,.05-.11,.11s.05,.11,.11,.11h.45c.1,0,.19-.07,.23-.16,.2-.58,.19-.54,.19-.55,0-.02,0,.06,0-1.45l.28-.41h.52l.28,.41c0,1.52,0,1.44,0,1.46l.18,.54c.03,.1,.12,.16,.23,.16h1.25c.1,0,.19-.07,.23-.16,.04-.12,.18-.53,.19-.54,0-.03,0-.02,0-.45,0-.06-.05-.11-.11-.11s-.11,.05-.11,.11v.3h-1.63v-1.23h1.63v.47c0,.06,.05,.11,.11,.11s.11-.05,.11-.11v-.55l.28-.41h.68c.17,0,.31-.14,.31-.31v-.16c0-.17-.14-.31-.31-.31h0Zm-1.24,2.73l-.13,.39s0,0-.01,0h-1.25s0,0-.01,0l-.13-.39h1.54Zm.69-3.11v.38h-1.49v-.38c0-.21,.17-.39,.39-.39h.71c.21,0,.39,.17,.39,.39h0ZM5.36,1.43c.44-.15,.89-.15,1.33,0,.03,.01,.06,.04,.06,.07v.39c-.48,.14-.97,.14-1.45,0v-.39s.02-.06,.06-.07Zm-.06,2.24h.23c.06,0,.11-.05,.11-.11s-.05-.11-.11-.11h-.23v-.25h.23c.06,0,.11-.05,.11-.11s-.05-.11-.11-.11h-.23v-.25h.23c.06,0,.11-.05,.11-.11s-.05-.11-.11-.11h-.23v-.35c.24,.06,.48,.09,.72,.09s.48-.03,.72-.09v.9h-.24c-.34,0-.62,.28-.62,.62v.38h-.59v-.36Zm-2.93-1.54c.24,.06,.48,.09,.72,.09s.48-.03,.72-.09v.35h-.23c-.06,0-.11,.05-.11,.11s.05,.11,.11,.11h.23v.25h-.23c-.06,0-.11,.05-.11,.11s.05,.11,.11,.11h.23v.25h-.23c-.06,0-.11,.05-.11,.11s.05,.11,.11,.11h.23v.36h-.59v-.38c0-.34-.28-.62-.62-.62h-.24v-.9h0Zm-.86,1.52c0-.21,.17-.39,.39-.39h.71c.21,0,.39,.17,.39,.39v.38H1.52v-.38Zm.64,2.88v-1.23h1.63v1.23h-1.63Zm1.69-1.46h-1.74l-.18-.25h2.1l-.18,.25Zm3.17,0h-1.74l-.18-.25h2.1l-.18,.25Zm1.22-.56s-.04,.08-.08,.08H.96s-.08-.04-.08-.08v-.16s.04-.08,.08-.08h7.2s.08,.04,.08,.08v.16Z"/>
</svg>