<?xml version="1.0" encoding="UTF-8"?>
<svg id="Layer_1" data-name="Layer 1" xmlns="http://www.w3.org/2000/svg" viewBox="0 0 80.86 10">
  <path d="M7.96,1.29h-.77c-.18,0-.33,.15-.33,.33v.27c0,.14,.09,.27,.23,.32v.58c-.25-.12-.51-.17-.79-.17H3.06c-1.04,0-1.89,.85-1.89,1.89,0,.62,.24,1.2,.63,1.54,.28,.24,.63,.37,1.01,.37,.09,0,.18,0,.27-.02,.21-.03,.4-.09,.57-.2,.2,.35,.57,.55,1.03,.55s.84-.2,1.03-.55c.18,.1,.36,.17,.57,.2,.28,.04,.55,.02,.79-.07-.06,.44-.44,.77-.89,.77h-.73c-.09-.11-.21-.17-.35-.17h-.88c-.24,0-.44,.2-.44,.44v.44c0,.24,.2,.44,.44,.44h.88c.14,0,.26-.06,.35-.17h.73c1.04,0,1.88-.84,1.88-1.88v-.95c.08-.24,.12-.49,.12-.75,0-.22-.04-.45-.12-.66v-1.64c.13-.05,.23-.17,.23-.31v-.27c0-.18-.15-.33-.33-.33Zm-1.65,4.86c-.5-.07-.77-.38-1.01-.65-.2-.22-.37-.42-.63-.42s-.43,.19-.63,.42c-.24,.27-.5,.57-1.01,.64-.42,.06-.8-.04-1.08-.29-.34-.3-.55-.81-.55-1.36,0-.91,.74-1.65,1.64-1.65h3.24c.91,0,1.64,.74,1.64,1.65,0,.55-.2,1.06-.55,1.36-.28,.25-.66,.35-1.08,.29Zm-2.08-.48c.16-.19,.29-.34,.44-.34s.28,.15,.44,.34c.11,.12,.23,.26,.38,.39-.14,.28-.45,.44-.83,.44s-.69-.17-.83-.44c.15-.12,.28-.26,.39-.39Zm3.33-2.53c-.08-.07-.14-.16-.23-.22v-.7h.49v1.16c-.05-.07-.13-.12-.19-.18-.02-.02-.05-.04-.07-.06Zm-.46-1.25v-.27s.04-.09,.09-.09h.77s.09,.04,.09,.09v.27s-.04,.09-.09,.09h-.77s-.09-.04-.09-.09Zm-1.55,5.45h.63c.63,0,1.14-.51,1.14-1.13,.09-.05,.16-.1,.23-.16,.09-.08,.18-.18,.26-.3v.45c0,.9-.73,1.63-1.63,1.63h-.63s0-.02,0-.03v-.44s0-.02,0-.03Zm-1.51,.03c0-.11,.09-.2,.2-.2h.88c.11,0,.2,.09,.2,.2v.44c0,.11-.09,.2-.2,.2h-.88c-.11,0-.2-.09-.2-.2v-.44Z"/>
  <path d="M6.3,3.16H3.06c-.74,0-1.34,.6-1.34,1.34,0,.37,.11,.72,.3,.97,.2,.26,.46,.38,.79,.38,.06,0,.13,0,.19-.01,.39-.05,.6-.29,.82-.54,.22-.25,.46-.52,.86-.52s.65,.28,.86,.53c.22,.25,.43,.49,.82,.54,.06,0,.13,.01,.19,.01,.86,0,1.09-.85,1.09-1.36,0-.74-.6-1.34-1.34-1.34Zm.25,2.45c-.05,0-.1,0-.16-.01-.3-.04-.46-.23-.67-.46-.23-.26-.53-.61-1.05-.61s-.82,.35-1.05,.61c-.2,.23-.37,.42-.67,.46-.33,.04-.58-.05-.75-.28-.16-.2-.25-.5-.25-.82,0-.6,.49-1.09,1.09-1.09h3.24c.6,0,1.09,.49,1.09,1.09,0,.41-.18,1.11-.84,1.11Z"/>
</svg>