<?xml version="1.0" encoding="UTF-8"?>
<svg id="Layer_1" data-name="Layer 1" xmlns="http://www.w3.org/2000/svg" viewBox="0 0 8.64 10">
  <defs>
    <style>
      .cls-1 {
        stroke-dasharray: 0 0 .49 .49;
      }

      .cls-1, .cls-2, .cls-3, .cls-4, .cls-5, .cls-6 {
        fill: none;
        stroke: #000;
        stroke-miterlimit: 10;
        stroke-width: .25px;
      }

      .cls-2 {
        stroke-dasharray: 0 0 .48 .48;
      }

      .cls-3 {
        stroke-dasharray: 0 0 .39 .39;
      }

      .cls-5 {
        stroke-dasharray: 0 0 .44 .44;
      }

      .cls-6 {
        stroke-dasharray: 0 0 .45 .45;
      }
    </style>
  </defs>
  <g>
    <line class="cls-4" x1="3.39" y1="4.97" x2="3.49" y2="5.2"/>
    <line class="cls-3" x1="3.66" y1="5.55" x2="3.9" y2="6.08"/>
    <line class="cls-4" x1="3.98" y1="6.26" x2="4.08" y2="6.49"/>
  </g>
  <g>
    <line class="cls-4" x1="4.22" y1="4.61" x2="4.33" y2="4.84"/>
    <line class="cls-5" x1="4.51" y1="5.24" x2="4.78" y2="5.84"/>
    <line class="cls-4" x1="4.87" y1="6.04" x2="4.98" y2="6.27"/>
  </g>
  <g>
    <line class="cls-4" x1="4.8" y1="4.42" x2="4.91" y2="4.64"/>
    <line class="cls-6" x1="5.13" y1="5.03" x2="5.45" y2="5.62"/>
    <line class="cls-4" x1="5.55" y1="5.82" x2="5.67" y2="6.04"/>
  </g>
  <g>
    <line class="cls-4" x1="5.59" y1="4.04" x2="5.71" y2="4.25"/>
    <line class="cls-1" x1="5.94" y1="4.69" x2="6.29" y2="5.34"/>
    <line class="cls-4" x1="6.41" y1="5.55" x2="6.53" y2="5.77"/>
  </g>
  <g>
    <line class="cls-4" x1="6.19" y1="3.76" x2="6.32" y2="3.97"/>
    <line class="cls-2" x1="6.56" y1="4.39" x2="6.92" y2="5.01"/>
    <line class="cls-4" x1="7.04" y1="5.22" x2="7.17" y2="5.44"/>
  </g>
  <path class="cls-4" d="M3.07,4.53l2.92-1.23-.07-.13c-.38-.66-1.19-.94-1.9-.64l-.13,.05c-.76,.32-1.12,1.18-.82,1.95h0Z"/>
  <path class="cls-4" d="M1.57,7.77v-3.69c0-.86,.69-1.55,1.55-1.55h.9"/>
</svg>