<?xml version="1.0" encoding="UTF-8"?>
<svg id="Layer_1" data-name="Layer 1" xmlns="http://www.w3.org/2000/svg" viewBox="0 0 59.65 10">
  <defs>
    <style>
      .cls-1 {
        fill: none;
        stroke: #000;
        stroke-miterlimit: 10;
        stroke-width: .25px;
      }
    </style>
  </defs>
  <path class="cls-1" d="M4.09,4.44c-.07-.14-.02-.32,.12-.39,.15-.08,.33-.03,.4,.12s.02,.32-.13,.4c-.14,.07-.32,.02-.39-.12Z"/>
  <path class="cls-1" d="M4.09,4.44c-.07-.14-.02-.32,.12-.39,.15-.08,.33-.03,.4,.12s.02,.32-.13,.4c-.14,.07-.32,.02-.39-.12Z"/>
  <path class="cls-1" d="M4.09,4.44c-.07-.14-.02-.32,.12-.39,.15-.08,.33-.03,.4,.12s.02,.32-.13,.4c-.14,.07-.32,.02-.39-.12Z"/>
  <path class="cls-1" d="M5.84,4.44c-.17,.4-.48,.75-.91,.98-.4,.21-.83,.27-1.24,.2"/>
  <path class="cls-1" d="M7.14,4.79c-.27,.75-.81,1.41-1.57,1.82s-1.56,.48-2.31,.29"/>
  <path class="cls-1" d="M4.09,4.44c-.07-.14-.02-.32,.12-.39,.15-.08,.33-.03,.4,.12s.02,.32-.13,.4c-.14,.07-.32,.02-.39-.12Z"/>
  <path class="cls-1" d="M8.24,5.08c-.35,1.05-1.09,1.97-2.15,2.53s-2.18,.65-3.22,.37"/>
  <path class="cls-1" d="M5.84,4.44c-.17,.4-.48,.75-.91,.98-.4,.21-.83,.27-1.24,.2"/>
  <path class="cls-1" d="M1.09,1.09H5.72c-.22,1.93-1.94,2.86-4.77,3.03"/>
</svg>