<?xml version="1.0" encoding="UTF-8"?>
<svg id="Layer_1" data-name="Layer 1" xmlns="http://www.w3.org/2000/svg" viewBox="0 0 10.35 10">
  <defs>
    <style>
      .cls-1 {
        fill-rule: evenodd;
      }
    </style>
  </defs>
  <g id="travel_vehicle-symbols_fan-copy" data-name="travel/vehicle-symbols/fan-copy">
    <path id="Fill-97" class="cls-1" d="M3.3,.75c.83-.55,2.4-.18,3.03,.76,.5,.76,.28,1.72-.62,2.86,.04,.06,.08,.13,.12,.19,.14-.06,.27-.12,.39-.2,.43-.27,.88-1.13,1.34-1.4,.57-.38,1.2-.09,1.57,.47,.55,.83,.18,2.4-.76,3.03-.76,.5-1.72,.28-2.86-.62-.06,.04-.13,.08-.19,.12,.06,.14,.12,.27,.2,.39,.27,.43,1.13,.88,1.4,1.34,.38,.57,.09,1.2-.47,1.57-.83,.55-2.4,.18-3.03-.76-.5-.76-.28-1.72,.62-2.86-.04-.06-.08-.13-.12-.19-.14,.06-.27,.12-.39,.2-.43,.27-.9,1.15-1.34,1.4-.57,.38-1.2,.09-1.57-.47-.55-.83-.18-2.4,.76-3.03,.76-.5,1.72-.28,2.86,.62,.06-.04,.13-.08,.19-.11-.06-.14-.12-.27-.2-.39-.26-.42-1.18-.93-1.4-1.34-.38-.57-.09-1.2,.47-1.57m1.04,5.16c-.79,1-.97,1.78-.59,2.35,.5,.75,1.82,1.06,2.45,.64,.39-.26,.57-.66,.35-.99-.26-.42-1.18-.93-1.4-1.34-.1-.15-.19-.33-.26-.52-.19,0-.38-.04-.55-.14m3.44-2.6c-.42,.26-.93,1.18-1.34,1.4-.15,.1-.33,.19-.52,.26,0,.19-.04,.38-.14,.55,1,.79,1.78,.97,2.35,.59,.75-.5,1.06-1.82,.64-2.45-.26-.39-.66-.57-.99-.35m-3.26,1.16c-.29,.19-.37,.58-.18,.87s.58,.37,.87,.18,.37-.58,.18-.87-.58-.37-.87-.18m-2.91-.59c-.75,.5-1.06,1.82-.64,2.45,.26,.39,.66,.57,.99,.35,.42-.26,.93-1.18,1.34-1.4,.15-.1,.33-.19,.52-.26,0-.19,.04-.38,.14-.55-1-.79-1.78-.96-2.35-.59M3.54,1.1c-.39,.26-.57,.66-.35,.99,.26,.42,1.18,.93,1.4,1.34,.1,.15,.19,.33,.26,.52,.19,0,.38,.04,.55,.14,.79-1,.96-1.78,.59-2.35-.5-.75-1.82-1.06-2.45-.64"/>
  </g>
</svg>