<?xml version="1.0" encoding="UTF-8"?>
<svg id="Layer_1" data-name="Layer 1" xmlns="http://www.w3.org/2000/svg" viewBox="0 0 50 10">
  <path d="M9.08,5.03c.69-.01,1.35-.39,1.7-1,.01-.02,.01-.06-.02-.08-.02-.01-.06-.01-.08,.02-.33,.58-.95,.93-1.61,.94-.04,0-.06,.02-.06,.06,.01,.04,.04,.06,.07,.06h0Z"/>
  <path d="M10.89,3.65s.06,0,.08-.02c0-.01,.01-.02,.01-.02,.01-.04-.01-.06-.05-.07s-.06,.01-.07,.05c-.02,.02-.01,.06,.02,.07h0Z"/>
  <path d="M11.53,7.31c-.06,0-.12,.01-.16,.02l-1.09-1.96c.81-.42,1.38-1.26,1.42-2.23h.08c.2,0,.35-.16,.35-.35s-.16-.35-.35-.35H6.33c-.2,0-.35,.16-.35,.35s.16,.35,.35,.35h.08c.01,.21,.05,.41,.09,.61h-.61v-.24c0-.06-.05-.12-.12-.12s-.12,.05-.12,.12v.69c0,.06,.05,.12,.12,.12s.12-.05,.12-.12v-.24h.69c.24,.6,.68,1.09,1.25,1.39l-1.6,2.89c-.04,.06-.01,.13,.05,.15,.01,.01,.02,.01,.05,.01,.04,0,.08-.02,.09-.06l.21-.38h4.34c.05,.25,.27,.43,.54,.43,.31,0,.55-.25,.55-.55s-.24-.55-.54-.55h0ZM6.2,2.78c0-.07,.06-.13,.13-.13h5.43c.07,0,.13,.06,.13,.13s-.06,.13-.13,.13H6.33c-.07,0-.13-.06-.13-.13h0Zm.43,.35h4.82c-.06,1.28-1.12,2.3-2.41,2.3s-2.34-1.02-2.41-2.3h0Zm1.41,2.33c.31,.13,.65,.2,1,.2s.69-.07,1-.2l1.1,1.99c-.09,.08-.15,.18-.18,.31H6.77l1.28-2.29Zm3.48,2.73c-.18,0-.33-.14-.33-.33s.14-.33,.33-.33c.18,0,.33,.14,.33,.33s-.15,.33-.33,.33Z"/>
  <path d="M9.88,2.02s-.06,.11-.02,.16c.04,.05,.11,.06,.16,.02,.14-.11,.35-.4,.12-.73-.15-.22-.04-.36-.01-.38,.05-.05,.05-.12,.01-.16-.05-.05-.12-.05-.16-.01-.11,.09-.24,.35-.01,.67,.14,.22-.06,.4-.08,.42Z"/>
  <path d="M8.89,2.02s-.06,.11-.02,.16c.04,.05,.11,.06,.16,.02,.14-.11,.35-.4,.12-.73-.15-.22-.04-.36-.01-.38,.05-.05,.05-.12,.01-.16-.05-.05-.12-.05-.16-.01-.11,.09-.24,.35-.01,.67,.14,.22-.06,.4-.08,.42Z"/>
  <path d="M7.91,2.02s-.06,.11-.02,.16c.04,.05,.11,.06,.16,.02,.14-.11,.35-.4,.12-.73-.15-.22-.04-.36-.01-.38,.05-.05,.05-.12,0-.16s-.12-.05-.16-.01c-.11,.09-.24,.35-.01,.67,.16,.22-.05,.4-.07,.42h0Z"/>
</svg>