<?xml version="1.0" encoding="UTF-8"?>
<svg id="Layer_1" data-name="Layer 1" xmlns="http://www.w3.org/2000/svg" viewBox="0 0 50 10">
  <defs>
    <style>
      .cls-1 {
        fill: none;
        stroke: #000;
        stroke-miterlimit: 10;
        stroke-width: .25px;
      }

      .cls-2 {
        fill-rule: evenodd;
      }
    </style>
  </defs>
  <rect class="cls-1" x="7.59" y="1.32" width="6.8" height="6.64" rx=".65" ry=".65"/>
  <path class="cls-2" d="M13,4.92c-.02-.08-.1-.14-.19-.12l-.89,.2-.62-.36,.62-.36,.9,.2c.08,.02,.17-.03,.19-.12,.02-.08-.03-.17-.12-.19l-.57-.13,.54-.31c.07-.04,.1-.14,.06-.21h0c-.04-.07-.14-.1-.21-.06l-.49,.29,.17-.52c.03-.08-.02-.17-.1-.2-.08-.03-.17,.02-.2,.1l-.28,.85-.66,.38v-.8l.57-.57c.06-.06,.06-.16,0-.22-.06-.06-.16-.06-.22,0l-.36,.36v-.56c0-.09-.07-.16-.16-.16s-.16,.07-.16,.16v.56l-.36-.36c-.06-.06-.16-.06-.22,0h0c-.06,.06-.06,.16,0,.22l.57,.57v.8l-.66-.38-.28-.85c-.03-.08-.11-.13-.2-.1-.08,.03-.13,.11-.1,.2l.17,.51-.49-.28c-.07-.04-.17-.02-.21,.06-.04,.07-.02,.17,.06,.21l.54,.31-.57,.13c-.08,.02-.14,.1-.12,.19,.02,.08,.1,.14,.19,.12l.9-.2,.62,.36-.62,.36-.9-.2c-.08-.02-.17,.03-.19,.12h0c-.02,.08,.03,.17,.12,.19l.57,.13-.54,.31c-.07,.04-.1,.14-.06,.21,.04,.07,.14,.1,.21,.06l.49-.29-.17,.52c-.03,.08,.02,.17,.1,.2,.08,.03,.17-.02,.2-.1l.28-.85,.66-.38v.8l-.57,.57c-.06,.06-.06,.16,0,.22s.16,.06,.22,0l.36-.36v.56c0,.09,.07,.16,.16,.16s.16-.07,.16-.16v-.56l.36,.36c.06,.06,.16,.06,.22,0s.06-.16,0-.22l-.57-.57v-.81l.65,.38,.28,.85c.03,.08,.11,.13,.2,.1,.08-.03,.13-.11,.1-.2l-.17-.52,.5,.29c.07,.04,.17,.02,.21-.06s.02-.17-.06-.21l-.54-.31,.56-.13c.08-.02,.14-.1,.12-.19h0Z"/>
</svg>