<?xml version="1.0" encoding="UTF-8"?>
<svg id="Layer_1" data-name="Layer 1" xmlns="http://www.w3.org/2000/svg" viewBox="0 0 50 10">
  <defs>
    <style>
      .cls-1 {
        stroke-miterlimit: 10;
      }

      .cls-1, .cls-2 {
        fill: none;
        stroke: #000;
        stroke-width: .25px;
      }

      .cls-2 {
        stroke-linecap: round;
        stroke-linejoin: round;
      }
    </style>
  </defs>
  <path class="cls-2" d="M4.48,5.89V2.7c0-.56,.46-1.02,1.03-1.02s1.02,.46,1.02,1.02v3.19"/>
  <path class="cls-2" d="M6.53,5.89c.21,.23,.34,.55,.34,.89,0,.76-.61,1.37-1.36,1.37s-1.37-.61-1.37-1.37c0-.34,.13-.66,.34-.89"/>
  <line class="cls-1" x1="5.5" y1="3.1" x2="5.5" y2="6.34"/>
  <circle class="cls-2" cx="5.5" cy="6.6" r=".33"/>
  <path class="cls-2" d="M9.12,2.17c-.67,.84-1.09,2.2,0,2.2s.81-1.3,0-2.2Z"/>
  <path class="cls-2" d="M9.12,5.33c-.67,.84-1.09,2.2,0,2.2s.81-1.3,0-2.2Z"/>
</svg>