<?xml version="1.0" encoding="utf-8"?>
<!-- Generator: Adobe Illustrator 26.5.0, SVG Export Plug-In . SVG Version: 6.00 Build 0)  -->
<svg version="1.1" id="Layer_1" xmlns="http://www.w3.org/2000/svg" xmlns:xlink="http://www.w3.org/1999/xlink" x="0px" y="0px"
	 viewBox="0 0 50 10" style="enable-background:new 0 0 50 10;" xml:space="preserve">
<style type="text/css">
	.st0{fill:#010101;}
	.st1{fill:none;stroke:#010101;stroke-width:0.2457;stroke-miterlimit:10;}
</style>
<g>
	<path class="st0" d="M14.3,2.1C14.3,2.1,14.3,2.1,14.3,2.1l-1.2,0c0,0,0,0,0,0c0,0,0,0,0,0h-1.1c0,0-0.1,0-0.1,0c0,0,0,0.1,0,0.1
		c0,0,0,0.1,0,0.1c0,0,0.1,0,0.1,0h0H13v0.2h-0.1c-0.1,0-0.1,0.1-0.1,0.1v0.4h-0.3c-0.1-0.3-0.3-0.5-0.6-0.5h-1
		c-0.3,0-0.6,0.2-0.6,0.5H9.8V2.7c0-0.1-0.1-0.1-0.1-0.1H9.6V2.4h1c0.1,0,0.1-0.1,0.1-0.1c0,0,0-0.1,0-0.1c0,0-0.1,0-0.1,0H9.4
		c0,0,0,0,0,0s0,0,0,0c0,0,0,0,0,0H8.3c-0.1,0-0.1,0.1-0.1,0.1c0,0.1,0.1,0.1,0.1,0.1h0.9v0.2H9.2C9.1,2.5,9,2.6,9,2.7v0.5
		c0,0.1,0.1,0.1,0.1,0.1h0.1h0h0.4h0.5c0,0.1,0.1,0.2,0.1,0.3C9.8,4,9.6,4.6,9.6,5.3c0,0.1,0.1,0.1,0.1,0.1c0.1,0,0.1-0.1,0.1-0.1
		c0-0.6,0.3-1.1,0.7-1.5c0.1,0,0.2,0.1,0.3,0.1h1c0.1,0,0.2,0,0.3-0.1c0.4,0.4,0.7,0.9,0.7,1.5c0,0.1,0.1,0.1,0.1,0.1
		c0.1,0,0.1-0.1,0.1-0.1c0-0.6-0.3-1.2-0.8-1.6c0.1-0.1,0.1-0.2,0.1-0.3h0.4h0.5h0c0,0,0,0,0,0c0.1,0,0.1-0.1,0.1-0.1V2.7
		c0-0.1-0.1-0.1-0.1-0.1h-0.1V2.4h1C14.3,2.4,14.4,2.3,14.3,2.1C14.4,2.2,14.4,2.1,14.3,2.1z M13.3,2.8v0.3H13V2.8H13.3z M11.8,3.6
		h-1c-0.2,0-0.4-0.2-0.4-0.4c0-0.2,0.2-0.4,0.4-0.4h1c0.2,0,0.4,0.2,0.4,0.4C12.2,3.4,12.1,3.6,11.8,3.6z M9.6,2.8v0.3H9.3V2.8H9.6z
		"/>
	<path class="st0" d="M12.3,4.3h-1.9c-0.1,0-0.1,0.1-0.1,0.1v1.9c0,0.1,0.1,0.1,0.1,0.1h1.9c0.1,0,0.1-0.1,0.1-0.1V4.4
		C12.4,4.3,12.4,4.3,12.3,4.3z M12.2,4.5v1.7h-1.7V4.5H12.2z"/>
</g>
<line class="st1" x1="7.8" y1="7.9" x2="14.8" y2="7.9"/>
</svg>
