<?xml version="1.0" encoding="UTF-8"?>
<svg id="Layer_1" data-name="Layer 1" xmlns="http://www.w3.org/2000/svg" viewBox="0 0 65.57 10">
  <g>
    <path d="M2.94,4.48c-.06,0-.11-.05-.11-.11v-.61c0-.32-.26-.58-.58-.58h-.65c-.32,0-.58,.26-.58,.58v.61c0,.06-.05,.11-.11,.11s-.11-.05-.11-.11v-.61c0-.44,.36-.81,.81-.81h.65c.44,0,.81,.36,.81,.81v.61c0,.06-.05,.11-.11,.11Z"/>
    <path d="M2.25,8.42h-.65c-.44,0-.81-.36-.81-.81v-.68c0-.06,.05-.11,.11-.11s.11,.05,.11,.11v.68c0,.32,.26,.58,.58,.58h.65c.32,0,.58-.26,.58-.58v-.68c0-.06,.05-.11,.11-.11s.11,.05,.11,.11v.68c0,.44-.36,.81-.81,.81Z"/>
    <path d="M.9,6.53c-.06,0-.11-.05-.11-.11v-1.55c0-.06,.05-.11,.11-.11s.11,.05,.11,.11v1.55c0,.06-.05,.11-.11,.11Z"/>
    <path d="M2.94,6.53c-.06,0-.11-.05-.11-.11v-1.55c0-.06,.05-.11,.11-.11s.11,.05,.11,.11v1.55c0,.06-.05,.11-.11,.11Z"/>
    <path d="M2.17,3.17c-.06,0-.11-.05-.11-.11v-.53c0-.06,.05-.11,.11-.11s.11,.05,.11,.11v.53c0,.06-.05,.11-.11,.11Z"/>
    <path d="M1.67,3.17c-.06,0-.11-.05-.11-.11v-.53c0-.06,.05-.11,.11-.11s.11,.05,.11,.11v.53c0,.06-.05,.11-.11,.11Z"/>
    <path d="M3.13,4.99H.72c-.06,0-.11-.05-.11-.11v-.51c0-.06,.05-.11,.11-.11H3.13c.06,0,.11,.05,.11,.11v.51c0,.06-.05,.11-.11,.11Zm-2.3-.23H3.01v-.29H.83v.29Z"/>
    <path d="M3.13,7.05H.72c-.06,0-.11-.05-.11-.11v-.51c0-.06,.05-.11,.11-.11H3.13c.06,0,.11,.05,.11,.11v.51c0,.06-.05,.11-.11,.11Zm-2.3-.23H3.01v-.29H.83v.29Z"/>
    <path d="M2.43,2.64H1.41c-.06,0-.11-.05-.11-.11v-.36c0-.06,.05-.11,.11-.11h1.02c.06,0,.11,.05,.11,.11v.36c0,.06-.05,.11-.11,.11Zm-.91-.23h.8v-.13h-.8v.13Z"/>
  </g>
  <g>
    <path d="M6.06,4.48c-.06,0-.11-.05-.11-.11v-.61c0-.32-.26-.58-.58-.58h-.65c-.32,0-.58,.26-.58,.58v.61c0,.06-.05,.11-.11,.11s-.11-.05-.11-.11v-.61c0-.44,.36-.81,.81-.81h.65c.44,0,.81,.36,.81,.81v.61c0,.06-.05,.11-.11,.11Z"/>
    <path d="M5.36,8.42h-.65c-.44,0-.8-.36-.8-.81v-.68c0-.06,.05-.11,.11-.11s.11,.05,.11,.11v.68c0,.32,.26,.58,.58,.58h.65c.32,0,.58-.26,.58-.58v-.68c0-.06,.05-.11,.11-.11s.11,.05,.11,.11v.68c0,.44-.36,.81-.8,.81Z"/>
    <path d="M4.02,6.53c-.06,0-.11-.05-.11-.11v-1.55c0-.06,.05-.11,.11-.11s.11,.05,.11,.11v1.55c0,.06-.05,.11-.11,.11Z"/>
    <path d="M6.06,6.53c-.06,0-.11-.05-.11-.11v-1.55c0-.06,.05-.11,.11-.11s.11,.05,.11,.11v1.55c0,.06-.05,.11-.11,.11Z"/>
    <path d="M5.29,3.17c-.06,0-.11-.05-.11-.11v-.53c0-.06,.05-.11,.11-.11s.11,.05,.11,.11v.53c0,.06-.05,.11-.11,.11Z"/>
    <path d="M4.79,3.17c-.06,0-.11-.05-.11-.11v-.53c0-.06,.05-.11,.11-.11s.11,.05,.11,.11v.53c0,.06-.05,.11-.11,.11Z"/>
    <path d="M6.25,4.99H3.83c-.06,0-.11-.05-.11-.11v-.51c0-.06,.05-.11,.11-.11h2.41c.06,0,.11,.05,.11,.11v.51c0,.06-.05,.11-.11,.11Zm-2.3-.23h2.19v-.29H3.95v.29Z"/>
    <path d="M6.25,7.05H3.83c-.06,0-.11-.05-.11-.11v-.51c0-.06,.05-.11,.11-.11h2.41c.06,0,.11,.05,.11,.11v.51c0,.06-.05,.11-.11,.11Zm-2.3-.23h2.19v-.29H3.95v.29Z"/>
    <path d="M5.55,2.64h-1.02c-.06,0-.11-.05-.11-.11v-.36c0-.06,.05-.11,.11-.11h1.02c.06,0,.11,.05,.11,.11v.36c0,.06-.05,.11-.11,.11Zm-.91-.23h.8v-.13h-.8v.13Z"/>
  </g>
  <path d="M5.04,1.77H1.92c-.06,0-.11-.05-.11-.11s.05-.11,.11-.11h3.12c.06,0,.11,.05,.11,.11s-.05,.11-.11,.11Z"/>
  <path d="M1.92,2.26c-.06,0-.11-.05-.11-.11v-.49c0-.06,.05-.11,.11-.11s.11,.05,.11,.11v.49c0,.06-.05,.11-.11,.11Z"/>
  <path d="M5.04,2.26c-.06,0-.11-.05-.11-.11v-.49c0-.06,.05-.11,.11-.11s.11,.05,.11,.11v.49c0,.06-.05,.11-.11,.11Z"/>
</svg>