<?xml version="1.0" encoding="UTF-8"?>
<svg id="Layer_1" data-name="Layer 1" xmlns="http://www.w3.org/2000/svg" viewBox="0 0 8.73 10">
  <defs>
    <style>
      .cls-1, .cls-2 {
        fill: none;
        stroke: #000;
        stroke-miterlimit: 10;
        stroke-width: .25px;
      }

      .cls-2 {
        fill-rule: evenodd;
      }
    </style>
  </defs>
  <path class="cls-2" d="M1.02,3.05v1.52c0,.49,.4,.89,.89,.89,.28,0,.54-.13,.7-.33,.13-.15,.2-.35,.2-.56v-1.52"/>
  <line class="cls-1" x1="1.91" y1="3.05" x2="1.91" y2="4.87"/>
  <line class="cls-1" x1="1.91" y1="7.87" x2="1.91" y2="5.46"/>
  <path class="cls-2" d="M7.67,7.87V3.26h0c-.66,0-1.2,.54-1.2,1.2v.71c0,.66,.54,1.2,1.2,1.2h0"/>
  <circle class="cls-1" cx="4.59" cy="5.46" r="1.01"/>
  <path class="cls-2" d="M6.47,4.76c-.28-.77-1.02-1.31-1.88-1.31-.78,0-1.45,.44-1.78,1.09v.03c0,.21-.07,.41-.2,.56-.02,.11-.03,.22-.03,.33,0,1.11,.9,2.01,2.01,2.01,1.03,0,1.88-.77,2-1.77h0"/>
</svg>