<?xml version="1.0" encoding="UTF-8"?>
<svg id="Layer_1" data-name="Layer 1" xmlns="http://www.w3.org/2000/svg" viewBox="0 0 8.22 10">
  <defs>
    <style>
      .cls-1 {
        fill: none;
        stroke: #000;
        stroke-miterlimit: 10;
        stroke-width: .25px;
      }
    </style>
  </defs>
  <path class="cls-1" d="M4.33,6.11c0,.16-.13,.29-.29,.29-.17,0-.3-.13-.3-.29s.13-.29,.3-.29c.16,0,.29,.13,.29,.29Z"/>
  <path class="cls-1" d="M4.33,6.11c0,.16-.13,.29-.29,.29-.17,0-.3-.13-.3-.29s.13-.29,.3-.29c.16,0,.29,.13,.29,.29Z"/>
  <path class="cls-1" d="M4.33,6.11c0,.16-.13,.29-.29,.29-.17,0-.3-.13-.3-.29s.13-.29,.3-.29c.16,0,.29,.13,.29,.29Z"/>
  <path class="cls-1" d="M2.78,5.29c.34-.27,.78-.44,1.26-.44,.45,0,.86,.15,1.19,.4"/>
  <path class="cls-1" d="M1.8,4.37c.59-.54,1.38-.87,2.24-.87s1.6,.31,2.18,.83"/>
  <path class="cls-1" d="M4.33,6.11c0,.16-.13,.29-.29,.29-.17,0-.3-.13-.3-.29s.13-.29,.3-.29c.16,0,.29,.13,.29,.29Z"/>
  <path class="cls-1" d="M.96,3.6c.8-.76,1.89-1.23,3.08-1.23s2.23,.45,3.02,1.18"/>
  <path class="cls-1" d="M2.78,5.29c.34-.27,.78-.44,1.26-.44,.45,0,.86,.15,1.19,.4"/>
</svg>