<?xml version="1.0" encoding="UTF-8"?>
<svg id="Layer_1" data-name="Layer 1" xmlns="http://www.w3.org/2000/svg" viewBox="0 0 50 10">
  <path d="M10.26,6.27s0-.04,0,0t-.04-.07c-.53-.74-1.09-1.45-1.83-1.83-.25-.28-1.06-1.16-1.76-1.23-.11-.07-.42-.28-.67-.49-.07-.07-.18-.07-.25,.04-.07,.07-.07,.18,.04,.25,.11,.11,.25,.21,.35,.28-.25,.07-.42,.25-.42,.42,0,.11,.07,.18,.18,.18s.18-.07,.18-.18c0-.04,.18-.18,.53-.18,.32,0,.74,.28,1.06,.6-.14-.04-.25-.04-.39-.07h-.85c-.18,0-.35,.04-.49,.14l-.04,.04-.18,.18h-1.52c-.35,0-.63,.18-.78,.49l-.11,.21c-.35,.04-.63,.18-.88,.42l-.56,.67c0,.07-.04,.11-.04,.11v.07l.18,.71c.04,.07,.11,.14,.18,.14h6.24l1.76-.71h.04l.04-.04v-.07s.04-.07,.04-.07Zm-6.56-1.27c.11-.18,.28-.28,.46-.28h1.2l-.32,.35h-1.41l.07-.07Zm4.58,1.8H2.29l-.11-.35h6.98l-.88,.35Zm-5.93-.71l.32-.39c.18-.21,.42-.32,.67-.32h1.8s.11-.04,.14-.07l.81-.92c.07-.04,.18-.07,.28-.07h.85c.35,.04,.67,.11,.95,.28,.04,.04,.07,.07,.14,.07,.56,.32,1.02,.85,1.41,1.41H2.36Z"/>
</svg>