<?xml version="1.0" encoding="UTF-8"?>
<svg id="Layer_1" data-name="Layer 1" xmlns="http://www.w3.org/2000/svg" viewBox="0 0 73.71 10">
  <defs>
    <style>
      .cls-1 {
        stroke-miterlimit: 10;
        stroke-width: .25px;
      }

      .cls-1, .cls-2 {
        fill: none;
        stroke: #000;
      }

      .cls-2 {
        stroke-linecap: round;
        stroke-linejoin: round;
        stroke-width: .25px;
      }
    </style>
  </defs>
  <g>
    <path class="cls-1" d="M4.22,7.4h-.01c-.36-.09-.56-.33-.6-.79-.03,.57-.14,.79-.75,.79-.3,0-.56-.33-.6-.79-.04,.72-.3,.81-1.22,.79"/>
    <path class="cls-1" d="M4.21,7.4h.01c.52-.03,.7-.23,.73-.79,.04,.46,.24,.7,.6,.79h0"/>
    <path class="cls-1" d="M7.38,7.42c-.77,.03-1.02-.1-1.09-.8-.03,.57-.21,.77-.73,.79,0,0,0,.01,0,0"/>
  </g>
  <g>
    <path d="M2.37,4.44c.07,.15,.14,.34,.23,.51,.03,.06,.14,.12,.2,.1,.51-.09,.86,.14,1.17,.51,.07,.08,.18,.13,.22,.22,.03,.09,.03,.24-.02,.31-.04,.05-.22,.05-.29,0-.17-.12-.3-.29-.46-.42-.1-.08-.24-.13-.36-.14-.24-.02-.49-.01-.73,0-.23,0-.38-.08-.46-.3-.12-.3-.27-.6-.4-.9-.1-.22-.05-.32,.2-.35,.2-.02,.4-.02,.6,0,.32,.02,.62-.03,.9-.19,.12-.07,.27-.15,.35,.04,.08,.19-.1,.24-.22,.28-.29,.11-.59,.21-.92,.33Z"/>
    <path d="M2.07,3.52c0,.21-.15,.36-.36,.35-.2,0-.34-.15-.34-.35,0-.21,.15-.35,.36-.35,.2,0,.34,.15,.34,.35Z"/>
  </g>
  <path class="cls-2" d="M3.22,1.58c1.99,.53,3.3,1.65,3.67,3.59-.75-.14-1.43,.09-2,.83-.17-1.83-.72-3.3-1.67-4.42Z"/>
</svg>