<?xml version="1.0" encoding="UTF-8"?>
<svg id="Layer_1" data-name="Layer 1" xmlns="http://www.w3.org/2000/svg" viewBox="0 0 10.86 10">
  <defs>
    <style>
      .cls-1 {
        fill-rule: evenodd;
      }
    </style>
  </defs>
  <g id="travel_vehicle-symbols_fan-copy" data-name="travel/vehicle-symbols/fan-copy">
    <path id="Fill-97" class="cls-1" d="M6.98,1.03c.52,.34,.78,.93,.43,1.46-.2,.38-1.05,.86-1.3,1.24-.07,.1-.13,.22-.18,.36,.06,.03,.12,.07,.18,.11,1.06-.84,1.95-1.04,2.65-.58,.87,.58,1.22,2.04,.71,2.81-.34,.52-.93,.78-1.46,.43-.41-.23-.85-1.05-1.24-1.3-.1-.07-.22-.13-.36-.18-.03,.06-.07,.12-.11,.18,.84,1.06,1.04,1.95,.58,2.65-.58,.87-2.04,1.22-2.81,.71-.52-.34-.78-.93-.43-1.46,.25-.42,1.04-.84,1.3-1.24,.07-.1,.13-.22,.18-.36-.06-.03-.12-.07-.18-.11-1.06,.84-1.95,1.04-2.65,.58-.87-.58-1.22-2.04-.71-2.81,.34-.52,.93-.78,1.46-.43,.42,.25,.84,1.04,1.24,1.3,.1,.07,.22,.13,.36,.18,.03-.06,.07-.12,.11-.18-.84-1.06-1.04-1.95-.58-2.65,.58-.87,2.04-1.22,2.81-.71m-.97,4.79c-.15,.09-.33,.13-.51,.13-.07,.18-.15,.34-.24,.48-.2,.38-1.05,.86-1.3,1.24-.2,.31-.03,.68,.33,.92,.58,.39,1.81,.1,2.27-.6,.35-.53,.19-1.25-.54-2.18M2.83,3.41c-.31-.2-.68-.03-.92,.33-.39,.58-.1,1.81,.6,2.27,.53,.35,1.25,.19,2.18-.54-.09-.16-.13-.33-.13-.51-.18-.07-.34-.15-.48-.24-.38-.2-.86-1.05-1.24-1.3m3.03,1.08c-.27-.18-.63-.11-.81,.16s-.11,.63,.16,.81,.63,.11,.81-.16,.11-.63-.16-.81m2.7-.54c-.53-.35-1.25-.19-2.18,.54,.09,.16,.13,.33,.13,.51,.18,.07,.34,.15,.48,.24,.38,.2,.86,1.05,1.24,1.3,.31,.2,.68,.03,.92-.33,.39-.58,.1-1.81-.6-2.27m-1.79-2.59c-.58-.39-1.81-.1-2.27,.6-.35,.53-.19,1.25,.54,2.18,.16-.09,.33-.13,.51-.13,.07-.18,.15-.34,.24-.48,.2-.38,1.05-.86,1.3-1.24,.2-.31,.03-.68-.33-.92"/>
  </g>
</svg>