<?xml version="1.0" encoding="UTF-8"?>
<svg id="Layer_1" data-name="Layer 1" xmlns="http://www.w3.org/2000/svg" viewBox="0 0 50 10">
  <defs>
    <style>
      .cls-1 {
        fill: none;
        stroke: #000;
        stroke-miterlimit: 10;
        stroke-width: .25px;
      }
    </style>
  </defs>
  <path class="cls-1" d="M2.41,6.4l1.41,1.31c.2,.19,.51,.19,.72,0l2.7-2.38c.56-.5,.85-1.23,.77-1.98l-.09-.8-1.28-.13c-.71-.07-1.42,.19-1.91,.71l-2.36,2.5c-.21,.22-.19,.56,.03,.76Z"/>
  <path class="cls-1" d="M3.34,6.33l.6,.56c.17,.16,.44,.16,.61,0l1.88-1.68c.38-.34,.56-.84,.5-1.34l-.06-.43-.61-.04c-.46-.03-.91,.14-1.22,.48l-1.72,1.82c-.17,.18-.16,.48,.02,.65Z"/>
  <line class="cls-1" x1="7.93" y1="2.55" x2="9.02" y2="1.41"/>
  <line class="cls-1" x1="3.82" y1="4.11" x2="6.05" y2="6.39"/>
  <line class="cls-1" x1="4.27" y1="3.62" x2="6.49" y2="5.91"/>
</svg>