<?xml version="1.0" encoding="UTF-8"?>
<svg id="Layer_1" data-name="Layer 1" xmlns="http://www.w3.org/2000/svg" viewBox="0 0 7.99 10">
  <path d="M6.22,1.18H1.31c-.34,0-.61,.27-.61,.61V7.68c0,.2,.16,.37,.37,.37v.37c0,.07,.05,.12,.12,.12H6.34c.07,0,.12-.05,.12-.12v-.37c.2,0,.37-.16,.37-.37V1.79c0-.34-.27-.61-.61-.61Zm-4.91,.25H6.22c.2,0,.37,.16,.37,.37v.86H.94v-.86c0-.2,.16-.37,.37-.37Zm4.91,6.87H1.31v-.25H6.22v.25Zm.25-.49H1.07c-.07,0-.12-.05-.12-.12V2.89H6.59V7.68c0,.07-.05,.12-.12,.12Z"/>
  <path d="M1.31,2.4h1.47c.07,0,.12-.05,.12-.12v-.49c0-.07-.05-.12-.12-.12H1.31c-.07,0-.12,.05-.12,.12v.49c0,.07,.05,.12,.12,.12Zm.12-.49h1.23v.25H1.43v-.25Z"/>
  <path d="M3.52,2.4c.2,0,.37-.16,.37-.37s-.16-.37-.37-.37-.37,.16-.37,.37,.16,.37,.37,.37Zm0-.49c.07,0,.12,.05,.12,.12s-.05,.12-.12,.12-.12-.05-.12-.12,.05-.12,.12-.12Z"/>
  <path d="M4.5,2.4c.2,0,.37-.16,.37-.37s-.16-.37-.37-.37-.37,.16-.37,.37,.16,.37,.37,.37Zm0-.49c.07,0,.12,.05,.12,.12s-.05,.12-.12,.12-.12-.05-.12-.12,.05-.12,.12-.12Z"/>
  <path d="M5.24,2.16h.25c.07,0,.12-.05,.12-.12s-.05-.12-.12-.12h-.25c-.07,0-.12,.05-.12,.12s.05,.12,.12,.12Z"/>
  <path d="M5.98,2.16h.25c.07,0,.12-.05,.12-.12s-.05-.12-.12-.12h-.25c-.07,0-.12,.05-.12,.12s.05,.12,.12,.12Z"/>
  <path d="M3.77,3.39c-1.08,0-1.96,.88-1.96,1.96s.88,1.96,1.96,1.96,1.96-.88,1.96-1.96c0-1.08-.88-1.96-1.96-1.96Zm0,3.68c-.95,0-1.72-.77-1.72-1.72s.77-1.72,1.72-1.72,1.72,.77,1.72,1.72c0,.95-.77,1.72-1.72,1.72Z"/>
  <path d="M3.77,3.75c-.88,0-1.6,.71-1.6,1.59,0,.21,.04,.42,.12,.61,0,0,0,0,0,0,0,0,0,0,0,0,.34,.81,1.28,1.19,2.09,.85,.45-.19,.79-.58,.92-1.06,0,0,0,0,0,0,.23-.85-.27-1.72-1.12-1.95-.14-.04-.28-.06-.42-.05Zm0,.25c.74,0,1.35,.6,1.35,1.34,0,.1-.01,.2-.03,.3-.06,.02-.13,.05-.19,.07-.16,.08-.34,.13-.52,.13-.15,0-.3-.03-.44-.11-.17-.09-.36-.14-.55-.14-.31,.01-.62,.07-.92,.17-.23-.71,.15-1.47,.86-1.7,.14-.04,.28-.07,.42-.07Zm0,2.7c-.49,0-.95-.27-1.19-.71,.26-.09,.54-.14,.82-.15,.15,0,.3,.03,.44,.11,.17,.09,.36,.14,.55,.14,.21,0,.41-.05,.59-.14-.23,.46-.7,.75-1.21,.75Z"/>
</svg>