<?xml version="1.0" encoding="UTF-8"?>
<svg id="Layer_1" data-name="Layer 1" xmlns="http://www.w3.org/2000/svg" viewBox="0 0 9.72 10">
  <path d="M7.65,4.1v-.74c0-.64-1.59-.99-3.08-.99s-3.08,.34-3.08,.99v.74c0,.15,.08,.28,.23,.39v1.99s-.06,0-.09,.02c-.08,.04-.14,.13-.14,.22v.33c0,.64,1.59,.99,3.08,.99s3.08-.34,3.08-.99v-.33c0-.09-.05-.18-.14-.22-.03-.01-.06-.02-.09-.02v-1.99c.15-.11,.23-.25,.23-.39Zm-1.99,2.89v-1.97c.25-.03,.5-.07,.73-.12v1.97c-.22,.05-.46,.09-.73,.12Zm-2.19-1.97v1.97c-.26-.03-.51-.07-.73-.12v-1.97c.23,.05,.47,.09,.73,.12Zm.25,.02c.24,.02,.48,.03,.72,.04v1.97c-.25,0-.49-.01-.72-.04v-1.97Zm.97,.04c.24,0,.49-.01,.72-.04v1.97c-.23,.02-.48,.03-.72,.04v-1.97Zm-.12-.25c-1.76,0-2.83-.43-2.83-.74v-.33s0,0,0,0c.03,.02,.06,.04,.09,.06,.51,.32,1.56,.51,2.74,.51s2.22-.2,2.74-.51c.03-.02,.06-.04,.09-.06,0,0,0,0,0,0v.33c0,.31-1.08,.74-2.83,.74Zm-2.4-1.11c.53-.23,1.43-.37,2.4-.37s1.88,.14,2.4,.37c-.53,.23-1.43,.37-2.4,.37s-1.88-.14-2.4-.37Zm2.4-1.11c1.76,0,2.83,.43,2.83,.74,0,.08-.08,.16-.17,.23-.53-.29-1.54-.47-2.67-.47s-2.13,.18-2.67,.47c-.09-.06-.17-.14-.17-.23,0-.31,1.08-.74,2.83-.74Zm-2.07,2.22v1.96c-.22-.06-.4-.14-.54-.22v-1.94c.15,.08,.34,.14,.54,.2h0Zm4.9,2.22c0,.31-1.08,.74-2.83,.74s-2.83-.43-2.83-.74v-.33s.06,.04,.1,.07c.51,.32,1.56,.51,2.74,.51s2.22-.2,2.74-.51c.03-.02,.07-.04,.1-.07v.33Zm-.23-.47c-.14,.08-.32,.16-.54,.22v-1.96c.2-.06,.39-.12,.54-.2v1.94h0ZM4.37,1.36c-.02-.08,0-.16,.04-.23l.1-.16c.04-.06,.11-.07,.17-.04,.06,.04,.07,.11,.04,.17l-.1,.16s-.01,.03,0,.05c0,0,0,.03,.03,.04,.07,.04,.12,.11,.14,.19,.02,.08,0,.16-.04,.23l-.1,.16s-.06,.06-.1,.06c-.02,0-.05,0-.07-.02-.06-.04-.07-.11-.04-.17l.1-.16s.01-.03,0-.05c0,0,0-.03-.03-.04-.07-.04-.12-.11-.14-.19h0Zm1.63,.25c-.02-.08,0-.16,.04-.23l.1-.16c.04-.06,.11-.07,.17-.04,.06,.04,.07,.11,.04,.17l-.1,.16s-.01,.03,0,.05c0,0,0,.03,.03,.04,.07,.04,.12,.11,.14,.19,.02,.08,0,.16-.04,.23l-.1,.16s-.06,.06-.1,.06c-.02,0-.05,0-.07-.02-.06-.04-.07-.11-.04-.17l.1-.16s0-.04,0-.05c0-.02-.01-.03-.03-.04-.07-.04-.12-.11-.14-.19h0Zm-3.26,0c-.02-.08,0-.16,.04-.23l.1-.16c.04-.06,.11-.07,.17-.04,.06,.04,.07,.11,.04,.17l-.1,.16s0,.04,0,.05c0,.02,.01,.03,.03,.04,.07,.04,.12,.11,.14,.19,.02,.08,0,.16-.04,.23l-.1,.16s-.06,.06-.1,.06c-.02,0-.05,0-.07-.02-.06-.04-.07-.11-.04-.17l.1-.16s.01-.03,0-.05c0,0,0-.03-.03-.04-.07-.04-.12-.11-.14-.19h0Zm1.63,2.16c0,.07-.06,.12-.12,.12-.02,0-.21,0-.38-.12-.17,.11-.36,.12-.38,.12-.07,0-.12-.06-.12-.12s.06-.12,.12-.12c0,0,.15,0,.26-.09,.07-.05,.17-.05,.24,0,.11,.08,.26,.09,.26,.09,.07,0,.12,.06,.12,.12Zm.4,0c0-.07,.06-.12,.12-.12,0,0,.15,0,.26-.09,.07-.05,.17-.05,.24,0,.11,.08,.26,.09,.26,.09,.07,0,.12,.06,.12,.12,0,.07-.06,.12-.12,.12-.02,0-.21,0-.38-.12-.17,.11-.36,.12-.38,.12-.07,0-.12-.06-.12-.12h0Z"/>
</svg>